G04 #@! TF.GenerationSoftware,KiCad,Pcbnew,(5.1.4-0-10_14)*
G04 #@! TF.CreationDate,2019-09-19T16:43:00-04:00*
G04 #@! TF.ProjectId,Tympan_BTE_RIGID_Array,54796d70-616e-45f4-9254-455f52494749,V1*
G04 #@! TF.SameCoordinates,Original*
G04 #@! TF.FileFunction,Profile,NP*
%FSLAX46Y46*%
G04 Gerber Fmt 4.6, Leading zero omitted, Abs format (unit mm)*
G04 Created by KiCad (PCBNEW (5.1.4-0-10_14)) date 2019-09-19 16:43:00*
%MOMM*%
%LPD*%
G04 APERTURE LIST*
%ADD10C,0.050000*%
G04 APERTURE END LIST*
D10*
X164784183Y-80031304D02*
X115784183Y-80031304D01*
X164784183Y-101031304D02*
X164784183Y-80031304D01*
X115784183Y-101031304D02*
X164784183Y-101031304D01*
X115784183Y-80031304D02*
X115784183Y-101031304D01*
X158784183Y-95431304D02*
X158784183Y-86031304D01*
X156784183Y-95431304D02*
X158784183Y-95431304D01*
X121784183Y-86031304D02*
X158784183Y-86031304D01*
X121784183Y-95431304D02*
X121784183Y-86031304D01*
X123624183Y-95431304D02*
X121784183Y-95431304D01*
X149784183Y-95431304D02*
X151624183Y-95431304D01*
X144624183Y-95431304D02*
X142784183Y-95431304D01*
X135784183Y-95431304D02*
X137624183Y-95431304D01*
X128784183Y-95431304D02*
X130624183Y-95431304D01*
X156784183Y-95031304D02*
X156784183Y-95431304D01*
X156277732Y-90320496D02*
G75*
G02X156124786Y-89535252I-76473J392622D01*
G01*
X152081701Y-88985479D02*
G75*
G02X151875305Y-89758397I-103198J-386459D01*
G01*
X155971349Y-88747477D02*
X152275192Y-88260870D01*
X156124786Y-89535252D02*
X155971349Y-88747477D01*
X156784183Y-95031304D02*
X156783077Y-92915040D01*
X151436416Y-93828940D02*
X151624761Y-95033998D01*
X151435152Y-91406723D02*
X151436416Y-93828940D01*
X151875305Y-89758397D02*
X151435152Y-91406723D01*
X156783077Y-92915040D02*
X156277732Y-90320497D01*
X152275192Y-88260870D02*
X152081699Y-88985479D01*
X151624761Y-95033998D02*
X151624183Y-95431304D01*
X149784183Y-95031304D02*
X149784183Y-95431304D01*
X149277732Y-90320496D02*
G75*
G02X149124786Y-89535252I-76473J392622D01*
G01*
X145081701Y-88985479D02*
G75*
G02X144875305Y-89758397I-103198J-386459D01*
G01*
X148971349Y-88747477D02*
X145275192Y-88260870D01*
X149124786Y-89535252D02*
X148971349Y-88747477D01*
X149784183Y-95031304D02*
X149783077Y-92915040D01*
X144436416Y-93828940D02*
X144624761Y-95033998D01*
X144435152Y-91406723D02*
X144436416Y-93828940D01*
X144875305Y-89758397D02*
X144435152Y-91406723D01*
X149783077Y-92915040D02*
X149277732Y-90320497D01*
X145275192Y-88260870D02*
X145081699Y-88985479D01*
X144624761Y-95033998D02*
X144624183Y-95431304D01*
X142784183Y-95031304D02*
X142784183Y-95431304D01*
X142277732Y-90320496D02*
G75*
G02X142124786Y-89535252I-76473J392622D01*
G01*
X138081701Y-88985479D02*
G75*
G02X137875305Y-89758397I-103198J-386459D01*
G01*
X141971349Y-88747477D02*
X138275192Y-88260870D01*
X142124786Y-89535252D02*
X141971349Y-88747477D01*
X142784183Y-95031304D02*
X142783077Y-92915040D01*
X137436416Y-93828940D02*
X137624761Y-95033998D01*
X137435152Y-91406723D02*
X137436416Y-93828940D01*
X137875305Y-89758397D02*
X137435152Y-91406723D01*
X142783077Y-92915040D02*
X142277732Y-90320497D01*
X138275192Y-88260870D02*
X138081699Y-88985479D01*
X137624761Y-95033998D02*
X137624183Y-95431304D01*
X135784183Y-95031304D02*
X135784183Y-95431304D01*
X135277732Y-90320496D02*
G75*
G02X135124786Y-89535252I-76473J392622D01*
G01*
X131081701Y-88985479D02*
G75*
G02X130875305Y-89758397I-103198J-386459D01*
G01*
X134971349Y-88747477D02*
X131275192Y-88260870D01*
X135124786Y-89535252D02*
X134971349Y-88747477D01*
X135784183Y-95031304D02*
X135783077Y-92915040D01*
X130436416Y-93828940D02*
X130624761Y-95033998D01*
X130435152Y-91406723D02*
X130436416Y-93828940D01*
X130875305Y-89758397D02*
X130435152Y-91406723D01*
X135783077Y-92915040D02*
X135277732Y-90320497D01*
X131275192Y-88260870D02*
X131081699Y-88985479D01*
X130624761Y-95033998D02*
X130624183Y-95431304D01*
X128784183Y-95031304D02*
X128784183Y-95431304D01*
X123624761Y-95033998D02*
X123624183Y-95431304D01*
X124275192Y-88260870D02*
X124081699Y-88985479D01*
X128783077Y-92915040D02*
X128277732Y-90320497D01*
X123875305Y-89758397D02*
X123435152Y-91406723D01*
X123435152Y-91406723D02*
X123436416Y-93828940D01*
X123436416Y-93828940D02*
X123624761Y-95033998D01*
X128784183Y-95031304D02*
X128783077Y-92915040D01*
X128124786Y-89535252D02*
X127971349Y-88747477D01*
X127971349Y-88747477D02*
X124275192Y-88260870D01*
X124081701Y-88985479D02*
G75*
G02X123875305Y-89758397I-103198J-386459D01*
G01*
X128277732Y-90320496D02*
G75*
G02X128124786Y-89535252I-76473J392622D01*
G01*
M02*
