G04 #@! TF.GenerationSoftware,KiCad,Pcbnew,(5.1.4-0-10_14)*
G04 #@! TF.CreationDate,2019-09-19T16:43:00-04:00*
G04 #@! TF.ProjectId,Tympan_BTE_RIGID_Array,54796d70-616e-45f4-9254-455f52494749,V1*
G04 #@! TF.SameCoordinates,Original*
G04 #@! TF.FileFunction,Soldermask,Bot*
G04 #@! TF.FilePolarity,Negative*
%FSLAX46Y46*%
G04 Gerber Fmt 4.6, Leading zero omitted, Abs format (unit mm)*
G04 Created by KiCad (PCBNEW (5.1.4-0-10_14)) date 2019-09-19 16:43:00*
%MOMM*%
%LPD*%
G04 APERTURE LIST*
%ADD10C,0.100000*%
G04 APERTURE END LIST*
D10*
G36*
X124504353Y-94462107D02*
G01*
X124516060Y-94465659D01*
X124535260Y-94475921D01*
X124557899Y-94485298D01*
X124581932Y-94490078D01*
X124606436Y-94490078D01*
X124630469Y-94485297D01*
X124653106Y-94475921D01*
X124672306Y-94465659D01*
X124684013Y-94462107D01*
X124702321Y-94460304D01*
X125126045Y-94460304D01*
X125144353Y-94462107D01*
X125156058Y-94465658D01*
X125166848Y-94471425D01*
X125176302Y-94479185D01*
X125184062Y-94488639D01*
X125189829Y-94499429D01*
X125193380Y-94511134D01*
X125195183Y-94529442D01*
X125195183Y-94893166D01*
X125193380Y-94911474D01*
X125189829Y-94923179D01*
X125184062Y-94933969D01*
X125176302Y-94943423D01*
X125166848Y-94951183D01*
X125156058Y-94956950D01*
X125144353Y-94960501D01*
X125126045Y-94962304D01*
X124702321Y-94962304D01*
X124684013Y-94960501D01*
X124672306Y-94956949D01*
X124653106Y-94946687D01*
X124630467Y-94937310D01*
X124606434Y-94932530D01*
X124581930Y-94932530D01*
X124557897Y-94937311D01*
X124535260Y-94946687D01*
X124516060Y-94956949D01*
X124504353Y-94960501D01*
X124486045Y-94962304D01*
X124062321Y-94962304D01*
X124044013Y-94960501D01*
X124032308Y-94956950D01*
X124021518Y-94951183D01*
X124012064Y-94943423D01*
X124004304Y-94933969D01*
X123998537Y-94923179D01*
X123994986Y-94911474D01*
X123993183Y-94893166D01*
X123993183Y-94529442D01*
X123994986Y-94511134D01*
X123998537Y-94499429D01*
X124004304Y-94488639D01*
X124012064Y-94479185D01*
X124021518Y-94471425D01*
X124032308Y-94465658D01*
X124044013Y-94462107D01*
X124062321Y-94460304D01*
X124486045Y-94460304D01*
X124504353Y-94462107D01*
X124504353Y-94462107D01*
G37*
G36*
X152504353Y-94462107D02*
G01*
X152516060Y-94465659D01*
X152535260Y-94475921D01*
X152557899Y-94485298D01*
X152581932Y-94490078D01*
X152606436Y-94490078D01*
X152630469Y-94485297D01*
X152653106Y-94475921D01*
X152672306Y-94465659D01*
X152684013Y-94462107D01*
X152702321Y-94460304D01*
X153126045Y-94460304D01*
X153144353Y-94462107D01*
X153156058Y-94465658D01*
X153166848Y-94471425D01*
X153176302Y-94479185D01*
X153184062Y-94488639D01*
X153189829Y-94499429D01*
X153193380Y-94511134D01*
X153195183Y-94529442D01*
X153195183Y-94893166D01*
X153193380Y-94911474D01*
X153189829Y-94923179D01*
X153184062Y-94933969D01*
X153176302Y-94943423D01*
X153166848Y-94951183D01*
X153156058Y-94956950D01*
X153144353Y-94960501D01*
X153126045Y-94962304D01*
X152702321Y-94962304D01*
X152684013Y-94960501D01*
X152672306Y-94956949D01*
X152653106Y-94946687D01*
X152630467Y-94937310D01*
X152606434Y-94932530D01*
X152581930Y-94932530D01*
X152557897Y-94937311D01*
X152535260Y-94946687D01*
X152516060Y-94956949D01*
X152504353Y-94960501D01*
X152486045Y-94962304D01*
X152062321Y-94962304D01*
X152044013Y-94960501D01*
X152032308Y-94956950D01*
X152021518Y-94951183D01*
X152012064Y-94943423D01*
X152004304Y-94933969D01*
X151998537Y-94923179D01*
X151994986Y-94911474D01*
X151993183Y-94893166D01*
X151993183Y-94529442D01*
X151994986Y-94511134D01*
X151998537Y-94499429D01*
X152004304Y-94488639D01*
X152012064Y-94479185D01*
X152021518Y-94471425D01*
X152032308Y-94465658D01*
X152044013Y-94462107D01*
X152062321Y-94460304D01*
X152486045Y-94460304D01*
X152504353Y-94462107D01*
X152504353Y-94462107D01*
G37*
G36*
X145504353Y-94462107D02*
G01*
X145516060Y-94465659D01*
X145535260Y-94475921D01*
X145557899Y-94485298D01*
X145581932Y-94490078D01*
X145606436Y-94490078D01*
X145630469Y-94485297D01*
X145653106Y-94475921D01*
X145672306Y-94465659D01*
X145684013Y-94462107D01*
X145702321Y-94460304D01*
X146126045Y-94460304D01*
X146144353Y-94462107D01*
X146156058Y-94465658D01*
X146166848Y-94471425D01*
X146176302Y-94479185D01*
X146184062Y-94488639D01*
X146189829Y-94499429D01*
X146193380Y-94511134D01*
X146195183Y-94529442D01*
X146195183Y-94893166D01*
X146193380Y-94911474D01*
X146189829Y-94923179D01*
X146184062Y-94933969D01*
X146176302Y-94943423D01*
X146166848Y-94951183D01*
X146156058Y-94956950D01*
X146144353Y-94960501D01*
X146126045Y-94962304D01*
X145702321Y-94962304D01*
X145684013Y-94960501D01*
X145672306Y-94956949D01*
X145653106Y-94946687D01*
X145630467Y-94937310D01*
X145606434Y-94932530D01*
X145581930Y-94932530D01*
X145557897Y-94937311D01*
X145535260Y-94946687D01*
X145516060Y-94956949D01*
X145504353Y-94960501D01*
X145486045Y-94962304D01*
X145062321Y-94962304D01*
X145044013Y-94960501D01*
X145032308Y-94956950D01*
X145021518Y-94951183D01*
X145012064Y-94943423D01*
X145004304Y-94933969D01*
X144998537Y-94923179D01*
X144994986Y-94911474D01*
X144993183Y-94893166D01*
X144993183Y-94529442D01*
X144994986Y-94511134D01*
X144998537Y-94499429D01*
X145004304Y-94488639D01*
X145012064Y-94479185D01*
X145021518Y-94471425D01*
X145032308Y-94465658D01*
X145044013Y-94462107D01*
X145062321Y-94460304D01*
X145486045Y-94460304D01*
X145504353Y-94462107D01*
X145504353Y-94462107D01*
G37*
G36*
X138504353Y-94462107D02*
G01*
X138516060Y-94465659D01*
X138535260Y-94475921D01*
X138557899Y-94485298D01*
X138581932Y-94490078D01*
X138606436Y-94490078D01*
X138630469Y-94485297D01*
X138653106Y-94475921D01*
X138672306Y-94465659D01*
X138684013Y-94462107D01*
X138702321Y-94460304D01*
X139126045Y-94460304D01*
X139144353Y-94462107D01*
X139156058Y-94465658D01*
X139166848Y-94471425D01*
X139176302Y-94479185D01*
X139184062Y-94488639D01*
X139189829Y-94499429D01*
X139193380Y-94511134D01*
X139195183Y-94529442D01*
X139195183Y-94893166D01*
X139193380Y-94911474D01*
X139189829Y-94923179D01*
X139184062Y-94933969D01*
X139176302Y-94943423D01*
X139166848Y-94951183D01*
X139156058Y-94956950D01*
X139144353Y-94960501D01*
X139126045Y-94962304D01*
X138702321Y-94962304D01*
X138684013Y-94960501D01*
X138672306Y-94956949D01*
X138653106Y-94946687D01*
X138630467Y-94937310D01*
X138606434Y-94932530D01*
X138581930Y-94932530D01*
X138557897Y-94937311D01*
X138535260Y-94946687D01*
X138516060Y-94956949D01*
X138504353Y-94960501D01*
X138486045Y-94962304D01*
X138062321Y-94962304D01*
X138044013Y-94960501D01*
X138032308Y-94956950D01*
X138021518Y-94951183D01*
X138012064Y-94943423D01*
X138004304Y-94933969D01*
X137998537Y-94923179D01*
X137994986Y-94911474D01*
X137993183Y-94893166D01*
X137993183Y-94529442D01*
X137994986Y-94511134D01*
X137998537Y-94499429D01*
X138004304Y-94488639D01*
X138012064Y-94479185D01*
X138021518Y-94471425D01*
X138032308Y-94465658D01*
X138044013Y-94462107D01*
X138062321Y-94460304D01*
X138486045Y-94460304D01*
X138504353Y-94462107D01*
X138504353Y-94462107D01*
G37*
G36*
X131504353Y-94462107D02*
G01*
X131516060Y-94465659D01*
X131535260Y-94475921D01*
X131557899Y-94485298D01*
X131581932Y-94490078D01*
X131606436Y-94490078D01*
X131630469Y-94485297D01*
X131653106Y-94475921D01*
X131672306Y-94465659D01*
X131684013Y-94462107D01*
X131702321Y-94460304D01*
X132126045Y-94460304D01*
X132144353Y-94462107D01*
X132156058Y-94465658D01*
X132166848Y-94471425D01*
X132176302Y-94479185D01*
X132184062Y-94488639D01*
X132189829Y-94499429D01*
X132193380Y-94511134D01*
X132195183Y-94529442D01*
X132195183Y-94893166D01*
X132193380Y-94911474D01*
X132189829Y-94923179D01*
X132184062Y-94933969D01*
X132176302Y-94943423D01*
X132166848Y-94951183D01*
X132156058Y-94956950D01*
X132144353Y-94960501D01*
X132126045Y-94962304D01*
X131702321Y-94962304D01*
X131684013Y-94960501D01*
X131672306Y-94956949D01*
X131653106Y-94946687D01*
X131630467Y-94937310D01*
X131606434Y-94932530D01*
X131581930Y-94932530D01*
X131557897Y-94937311D01*
X131535260Y-94946687D01*
X131516060Y-94956949D01*
X131504353Y-94960501D01*
X131486045Y-94962304D01*
X131062321Y-94962304D01*
X131044013Y-94960501D01*
X131032308Y-94956950D01*
X131021518Y-94951183D01*
X131012064Y-94943423D01*
X131004304Y-94933969D01*
X130998537Y-94923179D01*
X130994986Y-94911474D01*
X130993183Y-94893166D01*
X130993183Y-94529442D01*
X130994986Y-94511134D01*
X130998537Y-94499429D01*
X131004304Y-94488639D01*
X131012064Y-94479185D01*
X131021518Y-94471425D01*
X131032308Y-94465658D01*
X131044013Y-94462107D01*
X131062321Y-94460304D01*
X131486045Y-94460304D01*
X131504353Y-94462107D01*
X131504353Y-94462107D01*
G37*
G36*
X127290183Y-94562304D02*
G01*
X126388183Y-94562304D01*
X126388183Y-93940304D01*
X127290183Y-93940304D01*
X127290183Y-94562304D01*
X127290183Y-94562304D01*
G37*
G36*
X155290183Y-94562304D02*
G01*
X154388183Y-94562304D01*
X154388183Y-93940304D01*
X155290183Y-93940304D01*
X155290183Y-94562304D01*
X155290183Y-94562304D01*
G37*
G36*
X148290183Y-94562304D02*
G01*
X147388183Y-94562304D01*
X147388183Y-93940304D01*
X148290183Y-93940304D01*
X148290183Y-94562304D01*
X148290183Y-94562304D01*
G37*
G36*
X141290183Y-94562304D02*
G01*
X140388183Y-94562304D01*
X140388183Y-93940304D01*
X141290183Y-93940304D01*
X141290183Y-94562304D01*
X141290183Y-94562304D01*
G37*
G36*
X134290183Y-94562304D02*
G01*
X133388183Y-94562304D01*
X133388183Y-93940304D01*
X134290183Y-93940304D01*
X134290183Y-94562304D01*
X134290183Y-94562304D01*
G37*
G36*
X149290183Y-93562304D02*
G01*
X148338183Y-93562304D01*
X148338183Y-91660304D01*
X149290183Y-91660304D01*
X149290183Y-93562304D01*
X149290183Y-93562304D01*
G37*
G36*
X142290183Y-93562304D02*
G01*
X141338183Y-93562304D01*
X141338183Y-91660304D01*
X142290183Y-91660304D01*
X142290183Y-93562304D01*
X142290183Y-93562304D01*
G37*
G36*
X128290183Y-93562304D02*
G01*
X127338183Y-93562304D01*
X127338183Y-91660304D01*
X128290183Y-91660304D01*
X128290183Y-93562304D01*
X128290183Y-93562304D01*
G37*
G36*
X135290183Y-93562304D02*
G01*
X134338183Y-93562304D01*
X134338183Y-91660304D01*
X135290183Y-91660304D01*
X135290183Y-93562304D01*
X135290183Y-93562304D01*
G37*
G36*
X156290183Y-93562304D02*
G01*
X155338183Y-93562304D01*
X155338183Y-91660304D01*
X156290183Y-91660304D01*
X156290183Y-93562304D01*
X156290183Y-93562304D01*
G37*
G36*
X148290183Y-91282304D02*
G01*
X147388183Y-91282304D01*
X147388183Y-90660304D01*
X148290183Y-90660304D01*
X148290183Y-91282304D01*
X148290183Y-91282304D01*
G37*
G36*
X141290183Y-91282304D02*
G01*
X140388183Y-91282304D01*
X140388183Y-90660304D01*
X141290183Y-90660304D01*
X141290183Y-91282304D01*
X141290183Y-91282304D01*
G37*
G36*
X134290183Y-91282304D02*
G01*
X133388183Y-91282304D01*
X133388183Y-90660304D01*
X134290183Y-90660304D01*
X134290183Y-91282304D01*
X134290183Y-91282304D01*
G37*
G36*
X155290183Y-91282304D02*
G01*
X154388183Y-91282304D01*
X154388183Y-90660304D01*
X155290183Y-90660304D01*
X155290183Y-91282304D01*
X155290183Y-91282304D01*
G37*
G36*
X127290183Y-91282304D02*
G01*
X126388183Y-91282304D01*
X126388183Y-90660304D01*
X127290183Y-90660304D01*
X127290183Y-91282304D01*
X127290183Y-91282304D01*
G37*
G36*
X132983164Y-88698832D02*
G01*
X133107086Y-88715147D01*
X133107093Y-88715149D01*
X133229042Y-88731204D01*
X133229042Y-88731203D01*
X133825892Y-88809780D01*
X133682052Y-89902353D01*
X133085202Y-89823776D01*
X132961280Y-89807461D01*
X132961273Y-89807459D01*
X132839324Y-89791404D01*
X132839324Y-89791405D01*
X132242474Y-89712828D01*
X132386314Y-88620255D01*
X132983164Y-88698832D01*
X132983164Y-88698832D01*
G37*
G36*
X125983164Y-88698832D02*
G01*
X126107086Y-88715147D01*
X126107093Y-88715149D01*
X126229042Y-88731204D01*
X126229042Y-88731203D01*
X126825892Y-88809780D01*
X126682052Y-89902353D01*
X126085202Y-89823776D01*
X125961280Y-89807461D01*
X125961273Y-89807459D01*
X125839324Y-89791404D01*
X125839324Y-89791405D01*
X125242474Y-89712828D01*
X125386314Y-88620255D01*
X125983164Y-88698832D01*
X125983164Y-88698832D01*
G37*
G36*
X139983164Y-88698832D02*
G01*
X140107086Y-88715147D01*
X140107093Y-88715149D01*
X140229042Y-88731204D01*
X140229042Y-88731203D01*
X140825892Y-88809780D01*
X140682052Y-89902353D01*
X140085202Y-89823776D01*
X139961280Y-89807461D01*
X139961273Y-89807459D01*
X139839324Y-89791404D01*
X139839324Y-89791405D01*
X139242474Y-89712828D01*
X139386314Y-88620255D01*
X139983164Y-88698832D01*
X139983164Y-88698832D01*
G37*
G36*
X146983164Y-88698832D02*
G01*
X147107086Y-88715147D01*
X147107093Y-88715149D01*
X147229042Y-88731204D01*
X147229042Y-88731203D01*
X147825892Y-88809780D01*
X147682052Y-89902353D01*
X147085202Y-89823776D01*
X146961280Y-89807461D01*
X146961273Y-89807459D01*
X146839324Y-89791404D01*
X146839324Y-89791405D01*
X146242474Y-89712828D01*
X146386314Y-88620255D01*
X146983164Y-88698832D01*
X146983164Y-88698832D01*
G37*
G36*
X153983164Y-88698832D02*
G01*
X154107086Y-88715147D01*
X154107093Y-88715149D01*
X154229042Y-88731204D01*
X154229042Y-88731203D01*
X154825892Y-88809780D01*
X154682052Y-89902353D01*
X154085202Y-89823776D01*
X153961280Y-89807461D01*
X153961273Y-89807459D01*
X153839324Y-89791404D01*
X153839324Y-89791405D01*
X153242474Y-89712828D01*
X153386314Y-88620255D01*
X153983164Y-88698832D01*
X153983164Y-88698832D01*
G37*
M02*
