G04 #@! TF.GenerationSoftware,KiCad,Pcbnew,(5.1.4-0-10_14)*
G04 #@! TF.CreationDate,2019-09-19T16:43:00-04:00*
G04 #@! TF.ProjectId,Tympan_BTE_RIGID_Array,54796d70-616e-45f4-9254-455f52494749,V1*
G04 #@! TF.SameCoordinates,Original*
G04 #@! TF.FileFunction,Copper,L2,Bot*
G04 #@! TF.FilePolarity,Positive*
%FSLAX46Y46*%
G04 Gerber Fmt 4.6, Leading zero omitted, Abs format (unit mm)*
G04 Created by KiCad (PCBNEW (5.1.4-0-10_14)) date 2019-09-19 16:43:00*
%MOMM*%
%LPD*%
G04 APERTURE LIST*
%ADD10C,0.500000*%
%ADD11C,0.100000*%
%ADD12R,0.800000X0.520000*%
%ADD13R,0.850000X0.300000*%
%ADD14C,0.400000*%
G04 APERTURE END LIST*
D10*
X153612819Y-89205830D03*
D11*
G36*
X153299695Y-89668921D02*
G01*
X153430221Y-88677476D01*
X153925943Y-88742739D01*
X153795417Y-89734184D01*
X153299695Y-89668921D01*
X153299695Y-89668921D01*
G37*
D10*
X154455547Y-89316778D03*
D11*
G36*
X154142423Y-89779869D02*
G01*
X154272949Y-88788424D01*
X154768671Y-88853687D01*
X154638145Y-89845132D01*
X154142423Y-89779869D01*
X154142423Y-89779869D01*
G37*
D10*
X146612819Y-89205830D03*
D11*
G36*
X146299695Y-89668921D02*
G01*
X146430221Y-88677476D01*
X146925943Y-88742739D01*
X146795417Y-89734184D01*
X146299695Y-89668921D01*
X146299695Y-89668921D01*
G37*
D10*
X147455547Y-89316778D03*
D11*
G36*
X147142423Y-89779869D02*
G01*
X147272949Y-88788424D01*
X147768671Y-88853687D01*
X147638145Y-89845132D01*
X147142423Y-89779869D01*
X147142423Y-89779869D01*
G37*
D10*
X139612819Y-89205830D03*
D11*
G36*
X139299695Y-89668921D02*
G01*
X139430221Y-88677476D01*
X139925943Y-88742739D01*
X139795417Y-89734184D01*
X139299695Y-89668921D01*
X139299695Y-89668921D01*
G37*
D10*
X140455547Y-89316778D03*
D11*
G36*
X140142423Y-89779869D02*
G01*
X140272949Y-88788424D01*
X140768671Y-88853687D01*
X140638145Y-89845132D01*
X140142423Y-89779869D01*
X140142423Y-89779869D01*
G37*
D10*
X132612819Y-89205830D03*
D11*
G36*
X132299695Y-89668921D02*
G01*
X132430221Y-88677476D01*
X132925943Y-88742739D01*
X132795417Y-89734184D01*
X132299695Y-89668921D01*
X132299695Y-89668921D01*
G37*
D10*
X133455547Y-89316778D03*
D11*
G36*
X133142423Y-89779869D02*
G01*
X133272949Y-88788424D01*
X133768671Y-88853687D01*
X133638145Y-89845132D01*
X133142423Y-89779869D01*
X133142423Y-89779869D01*
G37*
D10*
X125612819Y-89205830D03*
D11*
G36*
X125299695Y-89668921D02*
G01*
X125430221Y-88677476D01*
X125925943Y-88742739D01*
X125795417Y-89734184D01*
X125299695Y-89668921D01*
X125299695Y-89668921D01*
G37*
D10*
X126455547Y-89316778D03*
D11*
G36*
X126142423Y-89779869D02*
G01*
X126272949Y-88788424D01*
X126768671Y-88853687D01*
X126638145Y-89845132D01*
X126142423Y-89779869D01*
X126142423Y-89779869D01*
G37*
D12*
X154839183Y-90971304D03*
X154839183Y-94251304D03*
D13*
X155814183Y-93361304D03*
X155814183Y-92861304D03*
X155814183Y-92361304D03*
X155814183Y-91861304D03*
D11*
G36*
X153053985Y-94511786D02*
G01*
X153063692Y-94513225D01*
X153073211Y-94515610D01*
X153082451Y-94518916D01*
X153091323Y-94523112D01*
X153099740Y-94528157D01*
X153107622Y-94534003D01*
X153114894Y-94540593D01*
X153121484Y-94547865D01*
X153127330Y-94555747D01*
X153132375Y-94564164D01*
X153136571Y-94573036D01*
X153139877Y-94582276D01*
X153142262Y-94591795D01*
X153143701Y-94601502D01*
X153144183Y-94611304D01*
X153144183Y-94811304D01*
X153143701Y-94821106D01*
X153142262Y-94830813D01*
X153139877Y-94840332D01*
X153136571Y-94849572D01*
X153132375Y-94858444D01*
X153127330Y-94866861D01*
X153121484Y-94874743D01*
X153114894Y-94882015D01*
X153107622Y-94888605D01*
X153099740Y-94894451D01*
X153091323Y-94899496D01*
X153082451Y-94903692D01*
X153073211Y-94906998D01*
X153063692Y-94909383D01*
X153053985Y-94910822D01*
X153044183Y-94911304D01*
X152784183Y-94911304D01*
X152774381Y-94910822D01*
X152764674Y-94909383D01*
X152755155Y-94906998D01*
X152745915Y-94903692D01*
X152737043Y-94899496D01*
X152728626Y-94894451D01*
X152720744Y-94888605D01*
X152713472Y-94882015D01*
X152706882Y-94874743D01*
X152701036Y-94866861D01*
X152695991Y-94858444D01*
X152691795Y-94849572D01*
X152688489Y-94840332D01*
X152686104Y-94830813D01*
X152684665Y-94821106D01*
X152684183Y-94811304D01*
X152684183Y-94611304D01*
X152684665Y-94601502D01*
X152686104Y-94591795D01*
X152688489Y-94582276D01*
X152691795Y-94573036D01*
X152695991Y-94564164D01*
X152701036Y-94555747D01*
X152706882Y-94547865D01*
X152713472Y-94540593D01*
X152720744Y-94534003D01*
X152728626Y-94528157D01*
X152737043Y-94523112D01*
X152745915Y-94518916D01*
X152755155Y-94515610D01*
X152764674Y-94513225D01*
X152774381Y-94511786D01*
X152784183Y-94511304D01*
X153044183Y-94511304D01*
X153053985Y-94511786D01*
X153053985Y-94511786D01*
G37*
D14*
X152914183Y-94711304D03*
D11*
G36*
X152413985Y-94511786D02*
G01*
X152423692Y-94513225D01*
X152433211Y-94515610D01*
X152442451Y-94518916D01*
X152451323Y-94523112D01*
X152459740Y-94528157D01*
X152467622Y-94534003D01*
X152474894Y-94540593D01*
X152481484Y-94547865D01*
X152487330Y-94555747D01*
X152492375Y-94564164D01*
X152496571Y-94573036D01*
X152499877Y-94582276D01*
X152502262Y-94591795D01*
X152503701Y-94601502D01*
X152504183Y-94611304D01*
X152504183Y-94811304D01*
X152503701Y-94821106D01*
X152502262Y-94830813D01*
X152499877Y-94840332D01*
X152496571Y-94849572D01*
X152492375Y-94858444D01*
X152487330Y-94866861D01*
X152481484Y-94874743D01*
X152474894Y-94882015D01*
X152467622Y-94888605D01*
X152459740Y-94894451D01*
X152451323Y-94899496D01*
X152442451Y-94903692D01*
X152433211Y-94906998D01*
X152423692Y-94909383D01*
X152413985Y-94910822D01*
X152404183Y-94911304D01*
X152144183Y-94911304D01*
X152134381Y-94910822D01*
X152124674Y-94909383D01*
X152115155Y-94906998D01*
X152105915Y-94903692D01*
X152097043Y-94899496D01*
X152088626Y-94894451D01*
X152080744Y-94888605D01*
X152073472Y-94882015D01*
X152066882Y-94874743D01*
X152061036Y-94866861D01*
X152055991Y-94858444D01*
X152051795Y-94849572D01*
X152048489Y-94840332D01*
X152046104Y-94830813D01*
X152044665Y-94821106D01*
X152044183Y-94811304D01*
X152044183Y-94611304D01*
X152044665Y-94601502D01*
X152046104Y-94591795D01*
X152048489Y-94582276D01*
X152051795Y-94573036D01*
X152055991Y-94564164D01*
X152061036Y-94555747D01*
X152066882Y-94547865D01*
X152073472Y-94540593D01*
X152080744Y-94534003D01*
X152088626Y-94528157D01*
X152097043Y-94523112D01*
X152105915Y-94518916D01*
X152115155Y-94515610D01*
X152124674Y-94513225D01*
X152134381Y-94511786D01*
X152144183Y-94511304D01*
X152404183Y-94511304D01*
X152413985Y-94511786D01*
X152413985Y-94511786D01*
G37*
D14*
X152274183Y-94711304D03*
D12*
X147839183Y-90971304D03*
X147839183Y-94251304D03*
D13*
X148814183Y-93361304D03*
X148814183Y-92861304D03*
X148814183Y-92361304D03*
X148814183Y-91861304D03*
D11*
G36*
X146053985Y-94511786D02*
G01*
X146063692Y-94513225D01*
X146073211Y-94515610D01*
X146082451Y-94518916D01*
X146091323Y-94523112D01*
X146099740Y-94528157D01*
X146107622Y-94534003D01*
X146114894Y-94540593D01*
X146121484Y-94547865D01*
X146127330Y-94555747D01*
X146132375Y-94564164D01*
X146136571Y-94573036D01*
X146139877Y-94582276D01*
X146142262Y-94591795D01*
X146143701Y-94601502D01*
X146144183Y-94611304D01*
X146144183Y-94811304D01*
X146143701Y-94821106D01*
X146142262Y-94830813D01*
X146139877Y-94840332D01*
X146136571Y-94849572D01*
X146132375Y-94858444D01*
X146127330Y-94866861D01*
X146121484Y-94874743D01*
X146114894Y-94882015D01*
X146107622Y-94888605D01*
X146099740Y-94894451D01*
X146091323Y-94899496D01*
X146082451Y-94903692D01*
X146073211Y-94906998D01*
X146063692Y-94909383D01*
X146053985Y-94910822D01*
X146044183Y-94911304D01*
X145784183Y-94911304D01*
X145774381Y-94910822D01*
X145764674Y-94909383D01*
X145755155Y-94906998D01*
X145745915Y-94903692D01*
X145737043Y-94899496D01*
X145728626Y-94894451D01*
X145720744Y-94888605D01*
X145713472Y-94882015D01*
X145706882Y-94874743D01*
X145701036Y-94866861D01*
X145695991Y-94858444D01*
X145691795Y-94849572D01*
X145688489Y-94840332D01*
X145686104Y-94830813D01*
X145684665Y-94821106D01*
X145684183Y-94811304D01*
X145684183Y-94611304D01*
X145684665Y-94601502D01*
X145686104Y-94591795D01*
X145688489Y-94582276D01*
X145691795Y-94573036D01*
X145695991Y-94564164D01*
X145701036Y-94555747D01*
X145706882Y-94547865D01*
X145713472Y-94540593D01*
X145720744Y-94534003D01*
X145728626Y-94528157D01*
X145737043Y-94523112D01*
X145745915Y-94518916D01*
X145755155Y-94515610D01*
X145764674Y-94513225D01*
X145774381Y-94511786D01*
X145784183Y-94511304D01*
X146044183Y-94511304D01*
X146053985Y-94511786D01*
X146053985Y-94511786D01*
G37*
D14*
X145914183Y-94711304D03*
D11*
G36*
X145413985Y-94511786D02*
G01*
X145423692Y-94513225D01*
X145433211Y-94515610D01*
X145442451Y-94518916D01*
X145451323Y-94523112D01*
X145459740Y-94528157D01*
X145467622Y-94534003D01*
X145474894Y-94540593D01*
X145481484Y-94547865D01*
X145487330Y-94555747D01*
X145492375Y-94564164D01*
X145496571Y-94573036D01*
X145499877Y-94582276D01*
X145502262Y-94591795D01*
X145503701Y-94601502D01*
X145504183Y-94611304D01*
X145504183Y-94811304D01*
X145503701Y-94821106D01*
X145502262Y-94830813D01*
X145499877Y-94840332D01*
X145496571Y-94849572D01*
X145492375Y-94858444D01*
X145487330Y-94866861D01*
X145481484Y-94874743D01*
X145474894Y-94882015D01*
X145467622Y-94888605D01*
X145459740Y-94894451D01*
X145451323Y-94899496D01*
X145442451Y-94903692D01*
X145433211Y-94906998D01*
X145423692Y-94909383D01*
X145413985Y-94910822D01*
X145404183Y-94911304D01*
X145144183Y-94911304D01*
X145134381Y-94910822D01*
X145124674Y-94909383D01*
X145115155Y-94906998D01*
X145105915Y-94903692D01*
X145097043Y-94899496D01*
X145088626Y-94894451D01*
X145080744Y-94888605D01*
X145073472Y-94882015D01*
X145066882Y-94874743D01*
X145061036Y-94866861D01*
X145055991Y-94858444D01*
X145051795Y-94849572D01*
X145048489Y-94840332D01*
X145046104Y-94830813D01*
X145044665Y-94821106D01*
X145044183Y-94811304D01*
X145044183Y-94611304D01*
X145044665Y-94601502D01*
X145046104Y-94591795D01*
X145048489Y-94582276D01*
X145051795Y-94573036D01*
X145055991Y-94564164D01*
X145061036Y-94555747D01*
X145066882Y-94547865D01*
X145073472Y-94540593D01*
X145080744Y-94534003D01*
X145088626Y-94528157D01*
X145097043Y-94523112D01*
X145105915Y-94518916D01*
X145115155Y-94515610D01*
X145124674Y-94513225D01*
X145134381Y-94511786D01*
X145144183Y-94511304D01*
X145404183Y-94511304D01*
X145413985Y-94511786D01*
X145413985Y-94511786D01*
G37*
D14*
X145274183Y-94711304D03*
D12*
X140839183Y-90971304D03*
X140839183Y-94251304D03*
D13*
X141814183Y-93361304D03*
X141814183Y-92861304D03*
X141814183Y-92361304D03*
X141814183Y-91861304D03*
D11*
G36*
X139053985Y-94511786D02*
G01*
X139063692Y-94513225D01*
X139073211Y-94515610D01*
X139082451Y-94518916D01*
X139091323Y-94523112D01*
X139099740Y-94528157D01*
X139107622Y-94534003D01*
X139114894Y-94540593D01*
X139121484Y-94547865D01*
X139127330Y-94555747D01*
X139132375Y-94564164D01*
X139136571Y-94573036D01*
X139139877Y-94582276D01*
X139142262Y-94591795D01*
X139143701Y-94601502D01*
X139144183Y-94611304D01*
X139144183Y-94811304D01*
X139143701Y-94821106D01*
X139142262Y-94830813D01*
X139139877Y-94840332D01*
X139136571Y-94849572D01*
X139132375Y-94858444D01*
X139127330Y-94866861D01*
X139121484Y-94874743D01*
X139114894Y-94882015D01*
X139107622Y-94888605D01*
X139099740Y-94894451D01*
X139091323Y-94899496D01*
X139082451Y-94903692D01*
X139073211Y-94906998D01*
X139063692Y-94909383D01*
X139053985Y-94910822D01*
X139044183Y-94911304D01*
X138784183Y-94911304D01*
X138774381Y-94910822D01*
X138764674Y-94909383D01*
X138755155Y-94906998D01*
X138745915Y-94903692D01*
X138737043Y-94899496D01*
X138728626Y-94894451D01*
X138720744Y-94888605D01*
X138713472Y-94882015D01*
X138706882Y-94874743D01*
X138701036Y-94866861D01*
X138695991Y-94858444D01*
X138691795Y-94849572D01*
X138688489Y-94840332D01*
X138686104Y-94830813D01*
X138684665Y-94821106D01*
X138684183Y-94811304D01*
X138684183Y-94611304D01*
X138684665Y-94601502D01*
X138686104Y-94591795D01*
X138688489Y-94582276D01*
X138691795Y-94573036D01*
X138695991Y-94564164D01*
X138701036Y-94555747D01*
X138706882Y-94547865D01*
X138713472Y-94540593D01*
X138720744Y-94534003D01*
X138728626Y-94528157D01*
X138737043Y-94523112D01*
X138745915Y-94518916D01*
X138755155Y-94515610D01*
X138764674Y-94513225D01*
X138774381Y-94511786D01*
X138784183Y-94511304D01*
X139044183Y-94511304D01*
X139053985Y-94511786D01*
X139053985Y-94511786D01*
G37*
D14*
X138914183Y-94711304D03*
D11*
G36*
X138413985Y-94511786D02*
G01*
X138423692Y-94513225D01*
X138433211Y-94515610D01*
X138442451Y-94518916D01*
X138451323Y-94523112D01*
X138459740Y-94528157D01*
X138467622Y-94534003D01*
X138474894Y-94540593D01*
X138481484Y-94547865D01*
X138487330Y-94555747D01*
X138492375Y-94564164D01*
X138496571Y-94573036D01*
X138499877Y-94582276D01*
X138502262Y-94591795D01*
X138503701Y-94601502D01*
X138504183Y-94611304D01*
X138504183Y-94811304D01*
X138503701Y-94821106D01*
X138502262Y-94830813D01*
X138499877Y-94840332D01*
X138496571Y-94849572D01*
X138492375Y-94858444D01*
X138487330Y-94866861D01*
X138481484Y-94874743D01*
X138474894Y-94882015D01*
X138467622Y-94888605D01*
X138459740Y-94894451D01*
X138451323Y-94899496D01*
X138442451Y-94903692D01*
X138433211Y-94906998D01*
X138423692Y-94909383D01*
X138413985Y-94910822D01*
X138404183Y-94911304D01*
X138144183Y-94911304D01*
X138134381Y-94910822D01*
X138124674Y-94909383D01*
X138115155Y-94906998D01*
X138105915Y-94903692D01*
X138097043Y-94899496D01*
X138088626Y-94894451D01*
X138080744Y-94888605D01*
X138073472Y-94882015D01*
X138066882Y-94874743D01*
X138061036Y-94866861D01*
X138055991Y-94858444D01*
X138051795Y-94849572D01*
X138048489Y-94840332D01*
X138046104Y-94830813D01*
X138044665Y-94821106D01*
X138044183Y-94811304D01*
X138044183Y-94611304D01*
X138044665Y-94601502D01*
X138046104Y-94591795D01*
X138048489Y-94582276D01*
X138051795Y-94573036D01*
X138055991Y-94564164D01*
X138061036Y-94555747D01*
X138066882Y-94547865D01*
X138073472Y-94540593D01*
X138080744Y-94534003D01*
X138088626Y-94528157D01*
X138097043Y-94523112D01*
X138105915Y-94518916D01*
X138115155Y-94515610D01*
X138124674Y-94513225D01*
X138134381Y-94511786D01*
X138144183Y-94511304D01*
X138404183Y-94511304D01*
X138413985Y-94511786D01*
X138413985Y-94511786D01*
G37*
D14*
X138274183Y-94711304D03*
D12*
X133839183Y-90971304D03*
X133839183Y-94251304D03*
D13*
X134814183Y-93361304D03*
X134814183Y-92861304D03*
X134814183Y-92361304D03*
X134814183Y-91861304D03*
D11*
G36*
X132053985Y-94511786D02*
G01*
X132063692Y-94513225D01*
X132073211Y-94515610D01*
X132082451Y-94518916D01*
X132091323Y-94523112D01*
X132099740Y-94528157D01*
X132107622Y-94534003D01*
X132114894Y-94540593D01*
X132121484Y-94547865D01*
X132127330Y-94555747D01*
X132132375Y-94564164D01*
X132136571Y-94573036D01*
X132139877Y-94582276D01*
X132142262Y-94591795D01*
X132143701Y-94601502D01*
X132144183Y-94611304D01*
X132144183Y-94811304D01*
X132143701Y-94821106D01*
X132142262Y-94830813D01*
X132139877Y-94840332D01*
X132136571Y-94849572D01*
X132132375Y-94858444D01*
X132127330Y-94866861D01*
X132121484Y-94874743D01*
X132114894Y-94882015D01*
X132107622Y-94888605D01*
X132099740Y-94894451D01*
X132091323Y-94899496D01*
X132082451Y-94903692D01*
X132073211Y-94906998D01*
X132063692Y-94909383D01*
X132053985Y-94910822D01*
X132044183Y-94911304D01*
X131784183Y-94911304D01*
X131774381Y-94910822D01*
X131764674Y-94909383D01*
X131755155Y-94906998D01*
X131745915Y-94903692D01*
X131737043Y-94899496D01*
X131728626Y-94894451D01*
X131720744Y-94888605D01*
X131713472Y-94882015D01*
X131706882Y-94874743D01*
X131701036Y-94866861D01*
X131695991Y-94858444D01*
X131691795Y-94849572D01*
X131688489Y-94840332D01*
X131686104Y-94830813D01*
X131684665Y-94821106D01*
X131684183Y-94811304D01*
X131684183Y-94611304D01*
X131684665Y-94601502D01*
X131686104Y-94591795D01*
X131688489Y-94582276D01*
X131691795Y-94573036D01*
X131695991Y-94564164D01*
X131701036Y-94555747D01*
X131706882Y-94547865D01*
X131713472Y-94540593D01*
X131720744Y-94534003D01*
X131728626Y-94528157D01*
X131737043Y-94523112D01*
X131745915Y-94518916D01*
X131755155Y-94515610D01*
X131764674Y-94513225D01*
X131774381Y-94511786D01*
X131784183Y-94511304D01*
X132044183Y-94511304D01*
X132053985Y-94511786D01*
X132053985Y-94511786D01*
G37*
D14*
X131914183Y-94711304D03*
D11*
G36*
X131413985Y-94511786D02*
G01*
X131423692Y-94513225D01*
X131433211Y-94515610D01*
X131442451Y-94518916D01*
X131451323Y-94523112D01*
X131459740Y-94528157D01*
X131467622Y-94534003D01*
X131474894Y-94540593D01*
X131481484Y-94547865D01*
X131487330Y-94555747D01*
X131492375Y-94564164D01*
X131496571Y-94573036D01*
X131499877Y-94582276D01*
X131502262Y-94591795D01*
X131503701Y-94601502D01*
X131504183Y-94611304D01*
X131504183Y-94811304D01*
X131503701Y-94821106D01*
X131502262Y-94830813D01*
X131499877Y-94840332D01*
X131496571Y-94849572D01*
X131492375Y-94858444D01*
X131487330Y-94866861D01*
X131481484Y-94874743D01*
X131474894Y-94882015D01*
X131467622Y-94888605D01*
X131459740Y-94894451D01*
X131451323Y-94899496D01*
X131442451Y-94903692D01*
X131433211Y-94906998D01*
X131423692Y-94909383D01*
X131413985Y-94910822D01*
X131404183Y-94911304D01*
X131144183Y-94911304D01*
X131134381Y-94910822D01*
X131124674Y-94909383D01*
X131115155Y-94906998D01*
X131105915Y-94903692D01*
X131097043Y-94899496D01*
X131088626Y-94894451D01*
X131080744Y-94888605D01*
X131073472Y-94882015D01*
X131066882Y-94874743D01*
X131061036Y-94866861D01*
X131055991Y-94858444D01*
X131051795Y-94849572D01*
X131048489Y-94840332D01*
X131046104Y-94830813D01*
X131044665Y-94821106D01*
X131044183Y-94811304D01*
X131044183Y-94611304D01*
X131044665Y-94601502D01*
X131046104Y-94591795D01*
X131048489Y-94582276D01*
X131051795Y-94573036D01*
X131055991Y-94564164D01*
X131061036Y-94555747D01*
X131066882Y-94547865D01*
X131073472Y-94540593D01*
X131080744Y-94534003D01*
X131088626Y-94528157D01*
X131097043Y-94523112D01*
X131105915Y-94518916D01*
X131115155Y-94515610D01*
X131124674Y-94513225D01*
X131134381Y-94511786D01*
X131144183Y-94511304D01*
X131404183Y-94511304D01*
X131413985Y-94511786D01*
X131413985Y-94511786D01*
G37*
D14*
X131274183Y-94711304D03*
D13*
X127814183Y-91861304D03*
X127814183Y-92361304D03*
X127814183Y-92861304D03*
X127814183Y-93361304D03*
D12*
X126839183Y-94251304D03*
X126839183Y-90971304D03*
D11*
G36*
X124413985Y-94511786D02*
G01*
X124423692Y-94513225D01*
X124433211Y-94515610D01*
X124442451Y-94518916D01*
X124451323Y-94523112D01*
X124459740Y-94528157D01*
X124467622Y-94534003D01*
X124474894Y-94540593D01*
X124481484Y-94547865D01*
X124487330Y-94555747D01*
X124492375Y-94564164D01*
X124496571Y-94573036D01*
X124499877Y-94582276D01*
X124502262Y-94591795D01*
X124503701Y-94601502D01*
X124504183Y-94611304D01*
X124504183Y-94811304D01*
X124503701Y-94821106D01*
X124502262Y-94830813D01*
X124499877Y-94840332D01*
X124496571Y-94849572D01*
X124492375Y-94858444D01*
X124487330Y-94866861D01*
X124481484Y-94874743D01*
X124474894Y-94882015D01*
X124467622Y-94888605D01*
X124459740Y-94894451D01*
X124451323Y-94899496D01*
X124442451Y-94903692D01*
X124433211Y-94906998D01*
X124423692Y-94909383D01*
X124413985Y-94910822D01*
X124404183Y-94911304D01*
X124144183Y-94911304D01*
X124134381Y-94910822D01*
X124124674Y-94909383D01*
X124115155Y-94906998D01*
X124105915Y-94903692D01*
X124097043Y-94899496D01*
X124088626Y-94894451D01*
X124080744Y-94888605D01*
X124073472Y-94882015D01*
X124066882Y-94874743D01*
X124061036Y-94866861D01*
X124055991Y-94858444D01*
X124051795Y-94849572D01*
X124048489Y-94840332D01*
X124046104Y-94830813D01*
X124044665Y-94821106D01*
X124044183Y-94811304D01*
X124044183Y-94611304D01*
X124044665Y-94601502D01*
X124046104Y-94591795D01*
X124048489Y-94582276D01*
X124051795Y-94573036D01*
X124055991Y-94564164D01*
X124061036Y-94555747D01*
X124066882Y-94547865D01*
X124073472Y-94540593D01*
X124080744Y-94534003D01*
X124088626Y-94528157D01*
X124097043Y-94523112D01*
X124105915Y-94518916D01*
X124115155Y-94515610D01*
X124124674Y-94513225D01*
X124134381Y-94511786D01*
X124144183Y-94511304D01*
X124404183Y-94511304D01*
X124413985Y-94511786D01*
X124413985Y-94511786D01*
G37*
D14*
X124274183Y-94711304D03*
D11*
G36*
X125053985Y-94511786D02*
G01*
X125063692Y-94513225D01*
X125073211Y-94515610D01*
X125082451Y-94518916D01*
X125091323Y-94523112D01*
X125099740Y-94528157D01*
X125107622Y-94534003D01*
X125114894Y-94540593D01*
X125121484Y-94547865D01*
X125127330Y-94555747D01*
X125132375Y-94564164D01*
X125136571Y-94573036D01*
X125139877Y-94582276D01*
X125142262Y-94591795D01*
X125143701Y-94601502D01*
X125144183Y-94611304D01*
X125144183Y-94811304D01*
X125143701Y-94821106D01*
X125142262Y-94830813D01*
X125139877Y-94840332D01*
X125136571Y-94849572D01*
X125132375Y-94858444D01*
X125127330Y-94866861D01*
X125121484Y-94874743D01*
X125114894Y-94882015D01*
X125107622Y-94888605D01*
X125099740Y-94894451D01*
X125091323Y-94899496D01*
X125082451Y-94903692D01*
X125073211Y-94906998D01*
X125063692Y-94909383D01*
X125053985Y-94910822D01*
X125044183Y-94911304D01*
X124784183Y-94911304D01*
X124774381Y-94910822D01*
X124764674Y-94909383D01*
X124755155Y-94906998D01*
X124745915Y-94903692D01*
X124737043Y-94899496D01*
X124728626Y-94894451D01*
X124720744Y-94888605D01*
X124713472Y-94882015D01*
X124706882Y-94874743D01*
X124701036Y-94866861D01*
X124695991Y-94858444D01*
X124691795Y-94849572D01*
X124688489Y-94840332D01*
X124686104Y-94830813D01*
X124684665Y-94821106D01*
X124684183Y-94811304D01*
X124684183Y-94611304D01*
X124684665Y-94601502D01*
X124686104Y-94591795D01*
X124688489Y-94582276D01*
X124691795Y-94573036D01*
X124695991Y-94564164D01*
X124701036Y-94555747D01*
X124706882Y-94547865D01*
X124713472Y-94540593D01*
X124720744Y-94534003D01*
X124728626Y-94528157D01*
X124737043Y-94523112D01*
X124745915Y-94518916D01*
X124755155Y-94515610D01*
X124764674Y-94513225D01*
X124774381Y-94511786D01*
X124784183Y-94511304D01*
X125044183Y-94511304D01*
X125053985Y-94511786D01*
X125053985Y-94511786D01*
G37*
D14*
X124914183Y-94711304D03*
X133774187Y-90271304D03*
X131274183Y-93531314D03*
X132674183Y-93531296D03*
X131974183Y-93531306D03*
X131274183Y-90441304D03*
X134744183Y-94251304D03*
X134421729Y-90216951D03*
X140774187Y-90271304D03*
X138274183Y-93531314D03*
X139674183Y-93531296D03*
X138974183Y-93531306D03*
X138274183Y-90441304D03*
X141744183Y-94251304D03*
X141421729Y-90216951D03*
X147774187Y-90271304D03*
X145274183Y-93531314D03*
X146674183Y-93531296D03*
X145974183Y-93531306D03*
X145274183Y-90441304D03*
X148744183Y-94251304D03*
X148421729Y-90216951D03*
X154774187Y-90271304D03*
X152274183Y-93531314D03*
X153674183Y-93531296D03*
X152974183Y-93531306D03*
X152274183Y-90441304D03*
X155744183Y-94251304D03*
X155421729Y-90216951D03*
X126774187Y-90271304D03*
X124274183Y-93531314D03*
X125674183Y-93531296D03*
X124974183Y-93531306D03*
X124274183Y-90441304D03*
X127744183Y-94251304D03*
X127421729Y-90216951D03*
D11*
X132594183Y-89221304D02*
X132514183Y-89301304D01*
X132514183Y-89524156D02*
X133261331Y-90271304D01*
X133261331Y-90271304D02*
X133491345Y-90271304D01*
X132514183Y-89301304D02*
X132514183Y-89524156D01*
X133491345Y-90271304D02*
X133774187Y-90271304D01*
X131274183Y-94711304D02*
X131274183Y-93531314D01*
X133344175Y-92861304D02*
X132874182Y-93331297D01*
X134794183Y-92861304D02*
X133344175Y-92861304D01*
X132874182Y-93331297D02*
X132674183Y-93531296D01*
X134814183Y-92371304D02*
X132851343Y-92371304D01*
X131974183Y-93248464D02*
X131974183Y-93531306D01*
X132851343Y-92371304D02*
X131974183Y-93248464D01*
X133839183Y-94251304D02*
X134744183Y-94251304D01*
X133536082Y-89331304D02*
X134221730Y-90016952D01*
X134221730Y-90016952D02*
X134421729Y-90216951D01*
X133474183Y-89331304D02*
X133536082Y-89331304D01*
X133494183Y-93361304D02*
X134744183Y-93361304D01*
X132144183Y-94711304D02*
X133494183Y-93361304D01*
X134744183Y-93361304D02*
X134764183Y-93341304D01*
X131914183Y-94711304D02*
X132144183Y-94711304D01*
X139594183Y-89221304D02*
X139514183Y-89301304D01*
X139514183Y-89524156D02*
X140261331Y-90271304D01*
X140261331Y-90271304D02*
X140491345Y-90271304D01*
X139514183Y-89301304D02*
X139514183Y-89524156D01*
X140491345Y-90271304D02*
X140774187Y-90271304D01*
X138274183Y-94711304D02*
X138274183Y-93531314D01*
X140344175Y-92861304D02*
X139874182Y-93331297D01*
X141794183Y-92861304D02*
X140344175Y-92861304D01*
X139874182Y-93331297D02*
X139674183Y-93531296D01*
X141814183Y-92371304D02*
X139851343Y-92371304D01*
X138974183Y-93248464D02*
X138974183Y-93531306D01*
X139851343Y-92371304D02*
X138974183Y-93248464D01*
X140839183Y-94251304D02*
X141744183Y-94251304D01*
X140536082Y-89331304D02*
X141221730Y-90016952D01*
X141221730Y-90016952D02*
X141421729Y-90216951D01*
X140474183Y-89331304D02*
X140536082Y-89331304D01*
X140494183Y-93361304D02*
X141744183Y-93361304D01*
X139144183Y-94711304D02*
X140494183Y-93361304D01*
X141744183Y-93361304D02*
X141764183Y-93341304D01*
X138914183Y-94711304D02*
X139144183Y-94711304D01*
X146594183Y-89221304D02*
X146514183Y-89301304D01*
X146514183Y-89524156D02*
X147261331Y-90271304D01*
X147261331Y-90271304D02*
X147491345Y-90271304D01*
X146514183Y-89301304D02*
X146514183Y-89524156D01*
X147491345Y-90271304D02*
X147774187Y-90271304D01*
X145274183Y-94711304D02*
X145274183Y-93531314D01*
X147344175Y-92861304D02*
X146874182Y-93331297D01*
X148794183Y-92861304D02*
X147344175Y-92861304D01*
X146874182Y-93331297D02*
X146674183Y-93531296D01*
X148814183Y-92371304D02*
X146851343Y-92371304D01*
X145974183Y-93248464D02*
X145974183Y-93531306D01*
X146851343Y-92371304D02*
X145974183Y-93248464D01*
X147839183Y-94251304D02*
X148744183Y-94251304D01*
X147536082Y-89331304D02*
X148221730Y-90016952D01*
X148221730Y-90016952D02*
X148421729Y-90216951D01*
X147474183Y-89331304D02*
X147536082Y-89331304D01*
X147494183Y-93361304D02*
X148744183Y-93361304D01*
X146144183Y-94711304D02*
X147494183Y-93361304D01*
X148744183Y-93361304D02*
X148764183Y-93341304D01*
X145914183Y-94711304D02*
X146144183Y-94711304D01*
X153594183Y-89221304D02*
X153514183Y-89301304D01*
X153514183Y-89524156D02*
X154261331Y-90271304D01*
X154261331Y-90271304D02*
X154491345Y-90271304D01*
X153514183Y-89301304D02*
X153514183Y-89524156D01*
X154491345Y-90271304D02*
X154774187Y-90271304D01*
X152274183Y-94711304D02*
X152274183Y-93531314D01*
X154344175Y-92861304D02*
X153874182Y-93331297D01*
X155794183Y-92861304D02*
X154344175Y-92861304D01*
X153874182Y-93331297D02*
X153674183Y-93531296D01*
X155814183Y-92371304D02*
X153851343Y-92371304D01*
X152974183Y-93248464D02*
X152974183Y-93531306D01*
X153851343Y-92371304D02*
X152974183Y-93248464D01*
X154839183Y-94251304D02*
X155744183Y-94251304D01*
X154536082Y-89331304D02*
X155221730Y-90016952D01*
X155221730Y-90016952D02*
X155421729Y-90216951D01*
X154474183Y-89331304D02*
X154536082Y-89331304D01*
X154494183Y-93361304D02*
X155744183Y-93361304D01*
X153144183Y-94711304D02*
X154494183Y-93361304D01*
X155744183Y-93361304D02*
X155764183Y-93341304D01*
X152914183Y-94711304D02*
X153144183Y-94711304D01*
X125594183Y-89221304D02*
X125514183Y-89301304D01*
X125514183Y-89524156D02*
X126261331Y-90271304D01*
X126261331Y-90271304D02*
X126491345Y-90271304D01*
X125514183Y-89301304D02*
X125514183Y-89524156D01*
X126491345Y-90271304D02*
X126774187Y-90271304D01*
X124274183Y-94711304D02*
X124274183Y-93531314D01*
X126344175Y-92861304D02*
X125874182Y-93331297D01*
X127794183Y-92861304D02*
X126344175Y-92861304D01*
X125874182Y-93331297D02*
X125674183Y-93531296D01*
X127814183Y-92371304D02*
X125851343Y-92371304D01*
X124974183Y-93248464D02*
X124974183Y-93531306D01*
X125851343Y-92371304D02*
X124974183Y-93248464D01*
X126839183Y-94251304D02*
X127744183Y-94251304D01*
X126536082Y-89331304D02*
X127221730Y-90016952D01*
X127221730Y-90016952D02*
X127421729Y-90216951D01*
X126474183Y-89331304D02*
X126536082Y-89331304D01*
X127744183Y-93361304D02*
X127764183Y-93341304D01*
X126494183Y-93361304D02*
X127744183Y-93361304D01*
X125144183Y-94711304D02*
X126494183Y-93361304D01*
X124914183Y-94711304D02*
X125144183Y-94711304D01*
G36*
X125208851Y-88560297D02*
G01*
X125192344Y-88596728D01*
X125181161Y-88644687D01*
X125050635Y-89636132D01*
X125049024Y-89685351D01*
X125057046Y-89733939D01*
X125074393Y-89780028D01*
X125100398Y-89821847D01*
X125134061Y-89857790D01*
X125174091Y-89886474D01*
X125218947Y-89906798D01*
X125266906Y-89917981D01*
X125516620Y-89950856D01*
X126038782Y-90473019D01*
X126048173Y-90484462D01*
X126059616Y-90493853D01*
X126093853Y-90521951D01*
X126145970Y-90549808D01*
X126159132Y-90553801D01*
X126202521Y-90566963D01*
X126231858Y-90569852D01*
X126230310Y-90571739D01*
X126207095Y-90615170D01*
X126192800Y-90662295D01*
X126187973Y-90711304D01*
X126189183Y-90858804D01*
X126251683Y-90921304D01*
X126789183Y-90921304D01*
X126789183Y-90901304D01*
X126889183Y-90901304D01*
X126889183Y-90921304D01*
X127426683Y-90921304D01*
X127489183Y-90858804D01*
X127490393Y-90711304D01*
X127485641Y-90663054D01*
X127552989Y-90649657D01*
X127634884Y-90615736D01*
X127708587Y-90566489D01*
X127771267Y-90503809D01*
X127820514Y-90430106D01*
X127843180Y-90375383D01*
X127867839Y-90395623D01*
X127881038Y-90404452D01*
X127894084Y-90413444D01*
X127896229Y-90414613D01*
X127965043Y-90451477D01*
X127979698Y-90457570D01*
X127994248Y-90463860D01*
X127996580Y-90464590D01*
X128071243Y-90487386D01*
X128086793Y-90490515D01*
X128102299Y-90493861D01*
X128104724Y-90494124D01*
X128104728Y-90494124D01*
X128133835Y-90497069D01*
X128324490Y-91475932D01*
X128288192Y-91464921D01*
X128239183Y-91460094D01*
X127926683Y-91461304D01*
X127864183Y-91523804D01*
X127864183Y-91811304D01*
X127884183Y-91811304D01*
X127884183Y-91911304D01*
X127864183Y-91911304D01*
X127864183Y-91931304D01*
X127764183Y-91931304D01*
X127764183Y-91911304D01*
X127201683Y-91911304D01*
X127139183Y-91973804D01*
X127137973Y-92011304D01*
X127142800Y-92060313D01*
X127146134Y-92071304D01*
X125866073Y-92071304D01*
X125851343Y-92069853D01*
X125836613Y-92071304D01*
X125836610Y-92071304D01*
X125792533Y-92075645D01*
X125735983Y-92092800D01*
X125683865Y-92120657D01*
X125649629Y-92148754D01*
X125638185Y-92158146D01*
X125628794Y-92169589D01*
X124772473Y-93025911D01*
X124761025Y-93035306D01*
X124740880Y-93059854D01*
X124723536Y-93080987D01*
X124714122Y-93098600D01*
X124695679Y-93133105D01*
X124678524Y-93189655D01*
X124678424Y-93190669D01*
X124624645Y-93244448D01*
X124624180Y-93245143D01*
X124623721Y-93244456D01*
X124561041Y-93181776D01*
X124487338Y-93132529D01*
X124405443Y-93098608D01*
X124318504Y-93081314D01*
X124229862Y-93081314D01*
X124142923Y-93098608D01*
X124061028Y-93132529D01*
X123987325Y-93181776D01*
X123924645Y-93244456D01*
X123875398Y-93318159D01*
X123841477Y-93400054D01*
X123824183Y-93486993D01*
X123824183Y-93575635D01*
X123841477Y-93662574D01*
X123875398Y-93744469D01*
X123924645Y-93818172D01*
X123974184Y-93867711D01*
X123974183Y-94305856D01*
X123949062Y-94319284D01*
X123895841Y-94362962D01*
X123852163Y-94416183D01*
X123819708Y-94476902D01*
X123799722Y-94542787D01*
X123792974Y-94611304D01*
X123792974Y-94811304D01*
X123799722Y-94879821D01*
X123819708Y-94945706D01*
X123838736Y-94981304D01*
X123793650Y-94981304D01*
X123611408Y-93815303D01*
X123610310Y-91711304D01*
X127137973Y-91711304D01*
X127139183Y-91748804D01*
X127201683Y-91811304D01*
X127764183Y-91811304D01*
X127764183Y-91523804D01*
X127701683Y-91461304D01*
X127389183Y-91460094D01*
X127340174Y-91464921D01*
X127293049Y-91479216D01*
X127249618Y-91502431D01*
X127211551Y-91533672D01*
X127180310Y-91571739D01*
X127157095Y-91615170D01*
X127142800Y-91662295D01*
X127137973Y-91711304D01*
X123610310Y-91711304D01*
X123610163Y-91429639D01*
X123663124Y-91231304D01*
X126187973Y-91231304D01*
X126192800Y-91280313D01*
X126207095Y-91327438D01*
X126230310Y-91370869D01*
X126261551Y-91408936D01*
X126299618Y-91440177D01*
X126343049Y-91463392D01*
X126390174Y-91477687D01*
X126439183Y-91482514D01*
X126726683Y-91481304D01*
X126789183Y-91418804D01*
X126789183Y-91021304D01*
X126889183Y-91021304D01*
X126889183Y-91418804D01*
X126951683Y-91481304D01*
X127239183Y-91482514D01*
X127288192Y-91477687D01*
X127335317Y-91463392D01*
X127378748Y-91440177D01*
X127416815Y-91408936D01*
X127448056Y-91370869D01*
X127471271Y-91327438D01*
X127485566Y-91280313D01*
X127490393Y-91231304D01*
X127489183Y-91083804D01*
X127426683Y-91021304D01*
X126889183Y-91021304D01*
X126789183Y-91021304D01*
X126251683Y-91021304D01*
X126189183Y-91083804D01*
X126187973Y-91231304D01*
X123663124Y-91231304D01*
X124006786Y-89944334D01*
X124043980Y-89942613D01*
X124059687Y-89940336D01*
X124075404Y-89938281D01*
X124077780Y-89937713D01*
X124153577Y-89919027D01*
X124168531Y-89913747D01*
X124183564Y-89908673D01*
X124185784Y-89907654D01*
X124256509Y-89874601D01*
X124270143Y-89866522D01*
X124283910Y-89858622D01*
X124285890Y-89857191D01*
X124348847Y-89811031D01*
X124360641Y-89800468D01*
X124372624Y-89790033D01*
X124374289Y-89788245D01*
X124427081Y-89730736D01*
X124436631Y-89718040D01*
X124446327Y-89705517D01*
X124447613Y-89703440D01*
X124488229Y-89636771D01*
X124495097Y-89622531D01*
X124502209Y-89608299D01*
X124503066Y-89606011D01*
X124529960Y-89532724D01*
X124533932Y-89517424D01*
X124538145Y-89502076D01*
X124538542Y-89499666D01*
X124550689Y-89422549D01*
X124551616Y-89406707D01*
X124552764Y-89390893D01*
X124552685Y-89388451D01*
X124549621Y-89310445D01*
X124547454Y-89294722D01*
X124545509Y-89278994D01*
X124544958Y-89276615D01*
X124526801Y-89200688D01*
X124521623Y-89185692D01*
X124516657Y-89170630D01*
X124515657Y-89168409D01*
X124515655Y-89168404D01*
X124515652Y-89168400D01*
X124483096Y-89097450D01*
X124475124Y-89083779D01*
X124467308Y-89069936D01*
X124465891Y-89067946D01*
X124420170Y-89004668D01*
X124409684Y-88992794D01*
X124399338Y-88980744D01*
X124397561Y-88979067D01*
X124340421Y-88925875D01*
X124327842Y-88916275D01*
X124315341Y-88906455D01*
X124313272Y-88905155D01*
X124288391Y-88889757D01*
X124404639Y-88454421D01*
X125208851Y-88560297D01*
X125208851Y-88560297D01*
G37*
X125208851Y-88560297D02*
X125192344Y-88596728D01*
X125181161Y-88644687D01*
X125050635Y-89636132D01*
X125049024Y-89685351D01*
X125057046Y-89733939D01*
X125074393Y-89780028D01*
X125100398Y-89821847D01*
X125134061Y-89857790D01*
X125174091Y-89886474D01*
X125218947Y-89906798D01*
X125266906Y-89917981D01*
X125516620Y-89950856D01*
X126038782Y-90473019D01*
X126048173Y-90484462D01*
X126059616Y-90493853D01*
X126093853Y-90521951D01*
X126145970Y-90549808D01*
X126159132Y-90553801D01*
X126202521Y-90566963D01*
X126231858Y-90569852D01*
X126230310Y-90571739D01*
X126207095Y-90615170D01*
X126192800Y-90662295D01*
X126187973Y-90711304D01*
X126189183Y-90858804D01*
X126251683Y-90921304D01*
X126789183Y-90921304D01*
X126789183Y-90901304D01*
X126889183Y-90901304D01*
X126889183Y-90921304D01*
X127426683Y-90921304D01*
X127489183Y-90858804D01*
X127490393Y-90711304D01*
X127485641Y-90663054D01*
X127552989Y-90649657D01*
X127634884Y-90615736D01*
X127708587Y-90566489D01*
X127771267Y-90503809D01*
X127820514Y-90430106D01*
X127843180Y-90375383D01*
X127867839Y-90395623D01*
X127881038Y-90404452D01*
X127894084Y-90413444D01*
X127896229Y-90414613D01*
X127965043Y-90451477D01*
X127979698Y-90457570D01*
X127994248Y-90463860D01*
X127996580Y-90464590D01*
X128071243Y-90487386D01*
X128086793Y-90490515D01*
X128102299Y-90493861D01*
X128104724Y-90494124D01*
X128104728Y-90494124D01*
X128133835Y-90497069D01*
X128324490Y-91475932D01*
X128288192Y-91464921D01*
X128239183Y-91460094D01*
X127926683Y-91461304D01*
X127864183Y-91523804D01*
X127864183Y-91811304D01*
X127884183Y-91811304D01*
X127884183Y-91911304D01*
X127864183Y-91911304D01*
X127864183Y-91931304D01*
X127764183Y-91931304D01*
X127764183Y-91911304D01*
X127201683Y-91911304D01*
X127139183Y-91973804D01*
X127137973Y-92011304D01*
X127142800Y-92060313D01*
X127146134Y-92071304D01*
X125866073Y-92071304D01*
X125851343Y-92069853D01*
X125836613Y-92071304D01*
X125836610Y-92071304D01*
X125792533Y-92075645D01*
X125735983Y-92092800D01*
X125683865Y-92120657D01*
X125649629Y-92148754D01*
X125638185Y-92158146D01*
X125628794Y-92169589D01*
X124772473Y-93025911D01*
X124761025Y-93035306D01*
X124740880Y-93059854D01*
X124723536Y-93080987D01*
X124714122Y-93098600D01*
X124695679Y-93133105D01*
X124678524Y-93189655D01*
X124678424Y-93190669D01*
X124624645Y-93244448D01*
X124624180Y-93245143D01*
X124623721Y-93244456D01*
X124561041Y-93181776D01*
X124487338Y-93132529D01*
X124405443Y-93098608D01*
X124318504Y-93081314D01*
X124229862Y-93081314D01*
X124142923Y-93098608D01*
X124061028Y-93132529D01*
X123987325Y-93181776D01*
X123924645Y-93244456D01*
X123875398Y-93318159D01*
X123841477Y-93400054D01*
X123824183Y-93486993D01*
X123824183Y-93575635D01*
X123841477Y-93662574D01*
X123875398Y-93744469D01*
X123924645Y-93818172D01*
X123974184Y-93867711D01*
X123974183Y-94305856D01*
X123949062Y-94319284D01*
X123895841Y-94362962D01*
X123852163Y-94416183D01*
X123819708Y-94476902D01*
X123799722Y-94542787D01*
X123792974Y-94611304D01*
X123792974Y-94811304D01*
X123799722Y-94879821D01*
X123819708Y-94945706D01*
X123838736Y-94981304D01*
X123793650Y-94981304D01*
X123611408Y-93815303D01*
X123610310Y-91711304D01*
X127137973Y-91711304D01*
X127139183Y-91748804D01*
X127201683Y-91811304D01*
X127764183Y-91811304D01*
X127764183Y-91523804D01*
X127701683Y-91461304D01*
X127389183Y-91460094D01*
X127340174Y-91464921D01*
X127293049Y-91479216D01*
X127249618Y-91502431D01*
X127211551Y-91533672D01*
X127180310Y-91571739D01*
X127157095Y-91615170D01*
X127142800Y-91662295D01*
X127137973Y-91711304D01*
X123610310Y-91711304D01*
X123610163Y-91429639D01*
X123663124Y-91231304D01*
X126187973Y-91231304D01*
X126192800Y-91280313D01*
X126207095Y-91327438D01*
X126230310Y-91370869D01*
X126261551Y-91408936D01*
X126299618Y-91440177D01*
X126343049Y-91463392D01*
X126390174Y-91477687D01*
X126439183Y-91482514D01*
X126726683Y-91481304D01*
X126789183Y-91418804D01*
X126789183Y-91021304D01*
X126889183Y-91021304D01*
X126889183Y-91418804D01*
X126951683Y-91481304D01*
X127239183Y-91482514D01*
X127288192Y-91477687D01*
X127335317Y-91463392D01*
X127378748Y-91440177D01*
X127416815Y-91408936D01*
X127448056Y-91370869D01*
X127471271Y-91327438D01*
X127485566Y-91280313D01*
X127490393Y-91231304D01*
X127489183Y-91083804D01*
X127426683Y-91021304D01*
X126889183Y-91021304D01*
X126789183Y-91021304D01*
X126251683Y-91021304D01*
X126189183Y-91083804D01*
X126187973Y-91231304D01*
X123663124Y-91231304D01*
X124006786Y-89944334D01*
X124043980Y-89942613D01*
X124059687Y-89940336D01*
X124075404Y-89938281D01*
X124077780Y-89937713D01*
X124153577Y-89919027D01*
X124168531Y-89913747D01*
X124183564Y-89908673D01*
X124185784Y-89907654D01*
X124256509Y-89874601D01*
X124270143Y-89866522D01*
X124283910Y-89858622D01*
X124285890Y-89857191D01*
X124348847Y-89811031D01*
X124360641Y-89800468D01*
X124372624Y-89790033D01*
X124374289Y-89788245D01*
X124427081Y-89730736D01*
X124436631Y-89718040D01*
X124446327Y-89705517D01*
X124447613Y-89703440D01*
X124488229Y-89636771D01*
X124495097Y-89622531D01*
X124502209Y-89608299D01*
X124503066Y-89606011D01*
X124529960Y-89532724D01*
X124533932Y-89517424D01*
X124538145Y-89502076D01*
X124538542Y-89499666D01*
X124550689Y-89422549D01*
X124551616Y-89406707D01*
X124552764Y-89390893D01*
X124552685Y-89388451D01*
X124549621Y-89310445D01*
X124547454Y-89294722D01*
X124545509Y-89278994D01*
X124544958Y-89276615D01*
X124526801Y-89200688D01*
X124521623Y-89185692D01*
X124516657Y-89170630D01*
X124515657Y-89168409D01*
X124515655Y-89168404D01*
X124515652Y-89168400D01*
X124483096Y-89097450D01*
X124475124Y-89083779D01*
X124467308Y-89069936D01*
X124465891Y-89067946D01*
X124420170Y-89004668D01*
X124409684Y-88992794D01*
X124399338Y-88980744D01*
X124397561Y-88979067D01*
X124340421Y-88925875D01*
X124327842Y-88916275D01*
X124315341Y-88906455D01*
X124313272Y-88905155D01*
X124288391Y-88889757D01*
X124404639Y-88454421D01*
X125208851Y-88560297D01*
G36*
X128608086Y-92931975D02*
G01*
X128609157Y-94981304D01*
X125349630Y-94981304D01*
X125368658Y-94945706D01*
X125383730Y-94896020D01*
X125768446Y-94511304D01*
X126187973Y-94511304D01*
X126192800Y-94560313D01*
X126207095Y-94607438D01*
X126230310Y-94650869D01*
X126261551Y-94688936D01*
X126299618Y-94720177D01*
X126343049Y-94743392D01*
X126390174Y-94757687D01*
X126439183Y-94762514D01*
X126726683Y-94761304D01*
X126789183Y-94698804D01*
X126789183Y-94301304D01*
X126889183Y-94301304D01*
X126889183Y-94698804D01*
X126951683Y-94761304D01*
X127239183Y-94762514D01*
X127288192Y-94757687D01*
X127335317Y-94743392D01*
X127378748Y-94720177D01*
X127416815Y-94688936D01*
X127448056Y-94650869D01*
X127471271Y-94607438D01*
X127485566Y-94560313D01*
X127490393Y-94511304D01*
X127489183Y-94363804D01*
X127426683Y-94301304D01*
X126889183Y-94301304D01*
X126789183Y-94301304D01*
X126251683Y-94301304D01*
X126189183Y-94363804D01*
X126187973Y-94511304D01*
X125768446Y-94511304D01*
X126188791Y-94090960D01*
X126189183Y-94138804D01*
X126251683Y-94201304D01*
X126789183Y-94201304D01*
X126789183Y-93803804D01*
X126889183Y-93803804D01*
X126889183Y-94201304D01*
X127426683Y-94201304D01*
X127489183Y-94138804D01*
X127490393Y-93991304D01*
X127485566Y-93942295D01*
X127471271Y-93895170D01*
X127448056Y-93851739D01*
X127416815Y-93813672D01*
X127378748Y-93782431D01*
X127335317Y-93759216D01*
X127288192Y-93744921D01*
X127239183Y-93740094D01*
X126951683Y-93741304D01*
X126889183Y-93803804D01*
X126789183Y-93803804D01*
X126726683Y-93741304D01*
X126539236Y-93740515D01*
X126618447Y-93661304D01*
X127188874Y-93661304D01*
X127211551Y-93688936D01*
X127249619Y-93720177D01*
X127293049Y-93743391D01*
X127340175Y-93757686D01*
X127389183Y-93762513D01*
X128239183Y-93762513D01*
X128288191Y-93757686D01*
X128335317Y-93743391D01*
X128378747Y-93720177D01*
X128416815Y-93688936D01*
X128448056Y-93650868D01*
X128471270Y-93607438D01*
X128485565Y-93560312D01*
X128490392Y-93511304D01*
X128490392Y-93211304D01*
X128485565Y-93162296D01*
X128471270Y-93115170D01*
X128469204Y-93111304D01*
X128471270Y-93107438D01*
X128485565Y-93060312D01*
X128490392Y-93011304D01*
X128490392Y-92711304D01*
X128485565Y-92662296D01*
X128471270Y-92615170D01*
X128469204Y-92611304D01*
X128471270Y-92607438D01*
X128485565Y-92560312D01*
X128490392Y-92511304D01*
X128490392Y-92327708D01*
X128608086Y-92931975D01*
X128608086Y-92931975D01*
G37*
X128608086Y-92931975D02*
X128609157Y-94981304D01*
X125349630Y-94981304D01*
X125368658Y-94945706D01*
X125383730Y-94896020D01*
X125768446Y-94511304D01*
X126187973Y-94511304D01*
X126192800Y-94560313D01*
X126207095Y-94607438D01*
X126230310Y-94650869D01*
X126261551Y-94688936D01*
X126299618Y-94720177D01*
X126343049Y-94743392D01*
X126390174Y-94757687D01*
X126439183Y-94762514D01*
X126726683Y-94761304D01*
X126789183Y-94698804D01*
X126789183Y-94301304D01*
X126889183Y-94301304D01*
X126889183Y-94698804D01*
X126951683Y-94761304D01*
X127239183Y-94762514D01*
X127288192Y-94757687D01*
X127335317Y-94743392D01*
X127378748Y-94720177D01*
X127416815Y-94688936D01*
X127448056Y-94650869D01*
X127471271Y-94607438D01*
X127485566Y-94560313D01*
X127490393Y-94511304D01*
X127489183Y-94363804D01*
X127426683Y-94301304D01*
X126889183Y-94301304D01*
X126789183Y-94301304D01*
X126251683Y-94301304D01*
X126189183Y-94363804D01*
X126187973Y-94511304D01*
X125768446Y-94511304D01*
X126188791Y-94090960D01*
X126189183Y-94138804D01*
X126251683Y-94201304D01*
X126789183Y-94201304D01*
X126789183Y-93803804D01*
X126889183Y-93803804D01*
X126889183Y-94201304D01*
X127426683Y-94201304D01*
X127489183Y-94138804D01*
X127490393Y-93991304D01*
X127485566Y-93942295D01*
X127471271Y-93895170D01*
X127448056Y-93851739D01*
X127416815Y-93813672D01*
X127378748Y-93782431D01*
X127335317Y-93759216D01*
X127288192Y-93744921D01*
X127239183Y-93740094D01*
X126951683Y-93741304D01*
X126889183Y-93803804D01*
X126789183Y-93803804D01*
X126726683Y-93741304D01*
X126539236Y-93740515D01*
X126618447Y-93661304D01*
X127188874Y-93661304D01*
X127211551Y-93688936D01*
X127249619Y-93720177D01*
X127293049Y-93743391D01*
X127340175Y-93757686D01*
X127389183Y-93762513D01*
X128239183Y-93762513D01*
X128288191Y-93757686D01*
X128335317Y-93743391D01*
X128378747Y-93720177D01*
X128416815Y-93688936D01*
X128448056Y-93650868D01*
X128471270Y-93607438D01*
X128485565Y-93560312D01*
X128490392Y-93511304D01*
X128490392Y-93211304D01*
X128485565Y-93162296D01*
X128471270Y-93115170D01*
X128469204Y-93111304D01*
X128471270Y-93107438D01*
X128485565Y-93060312D01*
X128490392Y-93011304D01*
X128490392Y-92711304D01*
X128485565Y-92662296D01*
X128471270Y-92615170D01*
X128469204Y-92611304D01*
X128471270Y-92607438D01*
X128485565Y-92560312D01*
X128490392Y-92511304D01*
X128490392Y-92327708D01*
X128608086Y-92931975D01*
G36*
X132208851Y-88560297D02*
G01*
X132192344Y-88596728D01*
X132181161Y-88644687D01*
X132050635Y-89636132D01*
X132049024Y-89685351D01*
X132057046Y-89733939D01*
X132074393Y-89780028D01*
X132100398Y-89821847D01*
X132134061Y-89857790D01*
X132174091Y-89886474D01*
X132218947Y-89906798D01*
X132266906Y-89917981D01*
X132516620Y-89950856D01*
X133038782Y-90473019D01*
X133048173Y-90484462D01*
X133059616Y-90493853D01*
X133093853Y-90521951D01*
X133145970Y-90549808D01*
X133159132Y-90553801D01*
X133202521Y-90566963D01*
X133231859Y-90569852D01*
X133230310Y-90571740D01*
X133207096Y-90615170D01*
X133192801Y-90662296D01*
X133187974Y-90711304D01*
X133187974Y-91231304D01*
X133192801Y-91280312D01*
X133207096Y-91327438D01*
X133230310Y-91370868D01*
X133261551Y-91408936D01*
X133299619Y-91440177D01*
X133343049Y-91463391D01*
X133390175Y-91477686D01*
X133439183Y-91482513D01*
X134239183Y-91482513D01*
X134288191Y-91477686D01*
X134335317Y-91463391D01*
X134378747Y-91440177D01*
X134416815Y-91408936D01*
X134448056Y-91370868D01*
X134471270Y-91327438D01*
X134485565Y-91280312D01*
X134490392Y-91231304D01*
X134490392Y-90711304D01*
X134485640Y-90663054D01*
X134552989Y-90649657D01*
X134634884Y-90615736D01*
X134708587Y-90566489D01*
X134771267Y-90503809D01*
X134820514Y-90430106D01*
X134843180Y-90375383D01*
X134867839Y-90395623D01*
X134881038Y-90404452D01*
X134894084Y-90413444D01*
X134896229Y-90414613D01*
X134965043Y-90451477D01*
X134979698Y-90457570D01*
X134994248Y-90463860D01*
X134996580Y-90464590D01*
X135071243Y-90487386D01*
X135086793Y-90490515D01*
X135102299Y-90493861D01*
X135104724Y-90494124D01*
X135104728Y-90494124D01*
X135133835Y-90497069D01*
X135324490Y-91475933D01*
X135288191Y-91464922D01*
X135239183Y-91460095D01*
X134389183Y-91460095D01*
X134340175Y-91464922D01*
X134293049Y-91479217D01*
X134249619Y-91502431D01*
X134211551Y-91533672D01*
X134180310Y-91571740D01*
X134157096Y-91615170D01*
X134142801Y-91662296D01*
X134137974Y-91711304D01*
X134137974Y-92011304D01*
X134142801Y-92060312D01*
X134146135Y-92071304D01*
X132866073Y-92071304D01*
X132851343Y-92069853D01*
X132836613Y-92071304D01*
X132836610Y-92071304D01*
X132792533Y-92075645D01*
X132735983Y-92092800D01*
X132683865Y-92120657D01*
X132649629Y-92148754D01*
X132638185Y-92158146D01*
X132628794Y-92169589D01*
X131772473Y-93025911D01*
X131761025Y-93035306D01*
X131740880Y-93059854D01*
X131723536Y-93080987D01*
X131714122Y-93098600D01*
X131695679Y-93133105D01*
X131678524Y-93189655D01*
X131678424Y-93190669D01*
X131624645Y-93244448D01*
X131624180Y-93245143D01*
X131623721Y-93244456D01*
X131561041Y-93181776D01*
X131487338Y-93132529D01*
X131405443Y-93098608D01*
X131318504Y-93081314D01*
X131229862Y-93081314D01*
X131142923Y-93098608D01*
X131061028Y-93132529D01*
X130987325Y-93181776D01*
X130924645Y-93244456D01*
X130875398Y-93318159D01*
X130841477Y-93400054D01*
X130824183Y-93486993D01*
X130824183Y-93575635D01*
X130841477Y-93662574D01*
X130875398Y-93744469D01*
X130924645Y-93818172D01*
X130974184Y-93867711D01*
X130974183Y-94305856D01*
X130949062Y-94319284D01*
X130895841Y-94362962D01*
X130852163Y-94416183D01*
X130819708Y-94476902D01*
X130799722Y-94542787D01*
X130792974Y-94611304D01*
X130792974Y-94811304D01*
X130799722Y-94879821D01*
X130819708Y-94945706D01*
X130838736Y-94981304D01*
X130793650Y-94981304D01*
X130611408Y-93815303D01*
X130610163Y-91429639D01*
X130840432Y-90567310D01*
X130841477Y-90572564D01*
X130875398Y-90654459D01*
X130924645Y-90728162D01*
X130987325Y-90790842D01*
X131061028Y-90840089D01*
X131142923Y-90874010D01*
X131229862Y-90891304D01*
X131318504Y-90891304D01*
X131405443Y-90874010D01*
X131487338Y-90840089D01*
X131561041Y-90790842D01*
X131623721Y-90728162D01*
X131672968Y-90654459D01*
X131706889Y-90572564D01*
X131724183Y-90485625D01*
X131724183Y-90396983D01*
X131706889Y-90310044D01*
X131672968Y-90228149D01*
X131623721Y-90154446D01*
X131561041Y-90091766D01*
X131487338Y-90042519D01*
X131405443Y-90008598D01*
X131318504Y-89991304D01*
X131229862Y-89991304D01*
X131142923Y-90008598D01*
X131061028Y-90042519D01*
X130987325Y-90091766D01*
X130960164Y-90118927D01*
X131006786Y-89944334D01*
X131043980Y-89942613D01*
X131059687Y-89940336D01*
X131075404Y-89938281D01*
X131077780Y-89937713D01*
X131153577Y-89919027D01*
X131168531Y-89913747D01*
X131183564Y-89908673D01*
X131185784Y-89907654D01*
X131256509Y-89874601D01*
X131270143Y-89866522D01*
X131283910Y-89858622D01*
X131285890Y-89857191D01*
X131348847Y-89811031D01*
X131360641Y-89800468D01*
X131372624Y-89790033D01*
X131374289Y-89788245D01*
X131427081Y-89730736D01*
X131436631Y-89718040D01*
X131446327Y-89705517D01*
X131447613Y-89703440D01*
X131488229Y-89636771D01*
X131495097Y-89622531D01*
X131502209Y-89608299D01*
X131503066Y-89606011D01*
X131529960Y-89532724D01*
X131533932Y-89517424D01*
X131538145Y-89502076D01*
X131538542Y-89499666D01*
X131550689Y-89422549D01*
X131551616Y-89406707D01*
X131552764Y-89390893D01*
X131552685Y-89388451D01*
X131549621Y-89310445D01*
X131547454Y-89294722D01*
X131545509Y-89278994D01*
X131544958Y-89276615D01*
X131526801Y-89200688D01*
X131521623Y-89185692D01*
X131516657Y-89170630D01*
X131515657Y-89168409D01*
X131515655Y-89168404D01*
X131515652Y-89168400D01*
X131483096Y-89097450D01*
X131475124Y-89083779D01*
X131467308Y-89069936D01*
X131465891Y-89067946D01*
X131420170Y-89004668D01*
X131409684Y-88992794D01*
X131399338Y-88980744D01*
X131397561Y-88979067D01*
X131340421Y-88925875D01*
X131327842Y-88916275D01*
X131315341Y-88906455D01*
X131313272Y-88905155D01*
X131288391Y-88889757D01*
X131404639Y-88454421D01*
X132208851Y-88560297D01*
X132208851Y-88560297D01*
G37*
X132208851Y-88560297D02*
X132192344Y-88596728D01*
X132181161Y-88644687D01*
X132050635Y-89636132D01*
X132049024Y-89685351D01*
X132057046Y-89733939D01*
X132074393Y-89780028D01*
X132100398Y-89821847D01*
X132134061Y-89857790D01*
X132174091Y-89886474D01*
X132218947Y-89906798D01*
X132266906Y-89917981D01*
X132516620Y-89950856D01*
X133038782Y-90473019D01*
X133048173Y-90484462D01*
X133059616Y-90493853D01*
X133093853Y-90521951D01*
X133145970Y-90549808D01*
X133159132Y-90553801D01*
X133202521Y-90566963D01*
X133231859Y-90569852D01*
X133230310Y-90571740D01*
X133207096Y-90615170D01*
X133192801Y-90662296D01*
X133187974Y-90711304D01*
X133187974Y-91231304D01*
X133192801Y-91280312D01*
X133207096Y-91327438D01*
X133230310Y-91370868D01*
X133261551Y-91408936D01*
X133299619Y-91440177D01*
X133343049Y-91463391D01*
X133390175Y-91477686D01*
X133439183Y-91482513D01*
X134239183Y-91482513D01*
X134288191Y-91477686D01*
X134335317Y-91463391D01*
X134378747Y-91440177D01*
X134416815Y-91408936D01*
X134448056Y-91370868D01*
X134471270Y-91327438D01*
X134485565Y-91280312D01*
X134490392Y-91231304D01*
X134490392Y-90711304D01*
X134485640Y-90663054D01*
X134552989Y-90649657D01*
X134634884Y-90615736D01*
X134708587Y-90566489D01*
X134771267Y-90503809D01*
X134820514Y-90430106D01*
X134843180Y-90375383D01*
X134867839Y-90395623D01*
X134881038Y-90404452D01*
X134894084Y-90413444D01*
X134896229Y-90414613D01*
X134965043Y-90451477D01*
X134979698Y-90457570D01*
X134994248Y-90463860D01*
X134996580Y-90464590D01*
X135071243Y-90487386D01*
X135086793Y-90490515D01*
X135102299Y-90493861D01*
X135104724Y-90494124D01*
X135104728Y-90494124D01*
X135133835Y-90497069D01*
X135324490Y-91475933D01*
X135288191Y-91464922D01*
X135239183Y-91460095D01*
X134389183Y-91460095D01*
X134340175Y-91464922D01*
X134293049Y-91479217D01*
X134249619Y-91502431D01*
X134211551Y-91533672D01*
X134180310Y-91571740D01*
X134157096Y-91615170D01*
X134142801Y-91662296D01*
X134137974Y-91711304D01*
X134137974Y-92011304D01*
X134142801Y-92060312D01*
X134146135Y-92071304D01*
X132866073Y-92071304D01*
X132851343Y-92069853D01*
X132836613Y-92071304D01*
X132836610Y-92071304D01*
X132792533Y-92075645D01*
X132735983Y-92092800D01*
X132683865Y-92120657D01*
X132649629Y-92148754D01*
X132638185Y-92158146D01*
X132628794Y-92169589D01*
X131772473Y-93025911D01*
X131761025Y-93035306D01*
X131740880Y-93059854D01*
X131723536Y-93080987D01*
X131714122Y-93098600D01*
X131695679Y-93133105D01*
X131678524Y-93189655D01*
X131678424Y-93190669D01*
X131624645Y-93244448D01*
X131624180Y-93245143D01*
X131623721Y-93244456D01*
X131561041Y-93181776D01*
X131487338Y-93132529D01*
X131405443Y-93098608D01*
X131318504Y-93081314D01*
X131229862Y-93081314D01*
X131142923Y-93098608D01*
X131061028Y-93132529D01*
X130987325Y-93181776D01*
X130924645Y-93244456D01*
X130875398Y-93318159D01*
X130841477Y-93400054D01*
X130824183Y-93486993D01*
X130824183Y-93575635D01*
X130841477Y-93662574D01*
X130875398Y-93744469D01*
X130924645Y-93818172D01*
X130974184Y-93867711D01*
X130974183Y-94305856D01*
X130949062Y-94319284D01*
X130895841Y-94362962D01*
X130852163Y-94416183D01*
X130819708Y-94476902D01*
X130799722Y-94542787D01*
X130792974Y-94611304D01*
X130792974Y-94811304D01*
X130799722Y-94879821D01*
X130819708Y-94945706D01*
X130838736Y-94981304D01*
X130793650Y-94981304D01*
X130611408Y-93815303D01*
X130610163Y-91429639D01*
X130840432Y-90567310D01*
X130841477Y-90572564D01*
X130875398Y-90654459D01*
X130924645Y-90728162D01*
X130987325Y-90790842D01*
X131061028Y-90840089D01*
X131142923Y-90874010D01*
X131229862Y-90891304D01*
X131318504Y-90891304D01*
X131405443Y-90874010D01*
X131487338Y-90840089D01*
X131561041Y-90790842D01*
X131623721Y-90728162D01*
X131672968Y-90654459D01*
X131706889Y-90572564D01*
X131724183Y-90485625D01*
X131724183Y-90396983D01*
X131706889Y-90310044D01*
X131672968Y-90228149D01*
X131623721Y-90154446D01*
X131561041Y-90091766D01*
X131487338Y-90042519D01*
X131405443Y-90008598D01*
X131318504Y-89991304D01*
X131229862Y-89991304D01*
X131142923Y-90008598D01*
X131061028Y-90042519D01*
X130987325Y-90091766D01*
X130960164Y-90118927D01*
X131006786Y-89944334D01*
X131043980Y-89942613D01*
X131059687Y-89940336D01*
X131075404Y-89938281D01*
X131077780Y-89937713D01*
X131153577Y-89919027D01*
X131168531Y-89913747D01*
X131183564Y-89908673D01*
X131185784Y-89907654D01*
X131256509Y-89874601D01*
X131270143Y-89866522D01*
X131283910Y-89858622D01*
X131285890Y-89857191D01*
X131348847Y-89811031D01*
X131360641Y-89800468D01*
X131372624Y-89790033D01*
X131374289Y-89788245D01*
X131427081Y-89730736D01*
X131436631Y-89718040D01*
X131446327Y-89705517D01*
X131447613Y-89703440D01*
X131488229Y-89636771D01*
X131495097Y-89622531D01*
X131502209Y-89608299D01*
X131503066Y-89606011D01*
X131529960Y-89532724D01*
X131533932Y-89517424D01*
X131538145Y-89502076D01*
X131538542Y-89499666D01*
X131550689Y-89422549D01*
X131551616Y-89406707D01*
X131552764Y-89390893D01*
X131552685Y-89388451D01*
X131549621Y-89310445D01*
X131547454Y-89294722D01*
X131545509Y-89278994D01*
X131544958Y-89276615D01*
X131526801Y-89200688D01*
X131521623Y-89185692D01*
X131516657Y-89170630D01*
X131515657Y-89168409D01*
X131515655Y-89168404D01*
X131515652Y-89168400D01*
X131483096Y-89097450D01*
X131475124Y-89083779D01*
X131467308Y-89069936D01*
X131465891Y-89067946D01*
X131420170Y-89004668D01*
X131409684Y-88992794D01*
X131399338Y-88980744D01*
X131397561Y-88979067D01*
X131340421Y-88925875D01*
X131327842Y-88916275D01*
X131315341Y-88906455D01*
X131313272Y-88905155D01*
X131288391Y-88889757D01*
X131404639Y-88454421D01*
X132208851Y-88560297D01*
G36*
X135608086Y-92931975D02*
G01*
X135609157Y-94981304D01*
X132349630Y-94981304D01*
X132368658Y-94945706D01*
X132383730Y-94896020D01*
X133187974Y-94091777D01*
X133187974Y-94511304D01*
X133192801Y-94560312D01*
X133207096Y-94607438D01*
X133230310Y-94650868D01*
X133261551Y-94688936D01*
X133299619Y-94720177D01*
X133343049Y-94743391D01*
X133390175Y-94757686D01*
X133439183Y-94762513D01*
X134239183Y-94762513D01*
X134288191Y-94757686D01*
X134335317Y-94743391D01*
X134378747Y-94720177D01*
X134416815Y-94688936D01*
X134448056Y-94650868D01*
X134470198Y-94609444D01*
X134531028Y-94650089D01*
X134612923Y-94684010D01*
X134699862Y-94701304D01*
X134788504Y-94701304D01*
X134875443Y-94684010D01*
X134957338Y-94650089D01*
X135031041Y-94600842D01*
X135093721Y-94538162D01*
X135142968Y-94464459D01*
X135176889Y-94382564D01*
X135194183Y-94295625D01*
X135194183Y-94206983D01*
X135176889Y-94120044D01*
X135142968Y-94038149D01*
X135093721Y-93964446D01*
X135031041Y-93901766D01*
X134957338Y-93852519D01*
X134875443Y-93818598D01*
X134788504Y-93801304D01*
X134699862Y-93801304D01*
X134612923Y-93818598D01*
X134531028Y-93852519D01*
X134470198Y-93893164D01*
X134448056Y-93851740D01*
X134416815Y-93813672D01*
X134378747Y-93782431D01*
X134335317Y-93759217D01*
X134288191Y-93744922D01*
X134239183Y-93740095D01*
X133539656Y-93740095D01*
X133618447Y-93661304D01*
X134188874Y-93661304D01*
X134211551Y-93688936D01*
X134249619Y-93720177D01*
X134293049Y-93743391D01*
X134340175Y-93757686D01*
X134389183Y-93762513D01*
X135239183Y-93762513D01*
X135288191Y-93757686D01*
X135335317Y-93743391D01*
X135378747Y-93720177D01*
X135416815Y-93688936D01*
X135448056Y-93650868D01*
X135471270Y-93607438D01*
X135485565Y-93560312D01*
X135490392Y-93511304D01*
X135490392Y-93211304D01*
X135485565Y-93162296D01*
X135471270Y-93115170D01*
X135469204Y-93111304D01*
X135471270Y-93107438D01*
X135485565Y-93060312D01*
X135490392Y-93011304D01*
X135490392Y-92711304D01*
X135485565Y-92662296D01*
X135471270Y-92615170D01*
X135469204Y-92611304D01*
X135471270Y-92607438D01*
X135485565Y-92560312D01*
X135490392Y-92511304D01*
X135490392Y-92327708D01*
X135608086Y-92931975D01*
X135608086Y-92931975D01*
G37*
X135608086Y-92931975D02*
X135609157Y-94981304D01*
X132349630Y-94981304D01*
X132368658Y-94945706D01*
X132383730Y-94896020D01*
X133187974Y-94091777D01*
X133187974Y-94511304D01*
X133192801Y-94560312D01*
X133207096Y-94607438D01*
X133230310Y-94650868D01*
X133261551Y-94688936D01*
X133299619Y-94720177D01*
X133343049Y-94743391D01*
X133390175Y-94757686D01*
X133439183Y-94762513D01*
X134239183Y-94762513D01*
X134288191Y-94757686D01*
X134335317Y-94743391D01*
X134378747Y-94720177D01*
X134416815Y-94688936D01*
X134448056Y-94650868D01*
X134470198Y-94609444D01*
X134531028Y-94650089D01*
X134612923Y-94684010D01*
X134699862Y-94701304D01*
X134788504Y-94701304D01*
X134875443Y-94684010D01*
X134957338Y-94650089D01*
X135031041Y-94600842D01*
X135093721Y-94538162D01*
X135142968Y-94464459D01*
X135176889Y-94382564D01*
X135194183Y-94295625D01*
X135194183Y-94206983D01*
X135176889Y-94120044D01*
X135142968Y-94038149D01*
X135093721Y-93964446D01*
X135031041Y-93901766D01*
X134957338Y-93852519D01*
X134875443Y-93818598D01*
X134788504Y-93801304D01*
X134699862Y-93801304D01*
X134612923Y-93818598D01*
X134531028Y-93852519D01*
X134470198Y-93893164D01*
X134448056Y-93851740D01*
X134416815Y-93813672D01*
X134378747Y-93782431D01*
X134335317Y-93759217D01*
X134288191Y-93744922D01*
X134239183Y-93740095D01*
X133539656Y-93740095D01*
X133618447Y-93661304D01*
X134188874Y-93661304D01*
X134211551Y-93688936D01*
X134249619Y-93720177D01*
X134293049Y-93743391D01*
X134340175Y-93757686D01*
X134389183Y-93762513D01*
X135239183Y-93762513D01*
X135288191Y-93757686D01*
X135335317Y-93743391D01*
X135378747Y-93720177D01*
X135416815Y-93688936D01*
X135448056Y-93650868D01*
X135471270Y-93607438D01*
X135485565Y-93560312D01*
X135490392Y-93511304D01*
X135490392Y-93211304D01*
X135485565Y-93162296D01*
X135471270Y-93115170D01*
X135469204Y-93111304D01*
X135471270Y-93107438D01*
X135485565Y-93060312D01*
X135490392Y-93011304D01*
X135490392Y-92711304D01*
X135485565Y-92662296D01*
X135471270Y-92615170D01*
X135469204Y-92611304D01*
X135471270Y-92607438D01*
X135485565Y-92560312D01*
X135490392Y-92511304D01*
X135490392Y-92327708D01*
X135608086Y-92931975D01*
G36*
X132324645Y-93818154D02*
G01*
X132387325Y-93880834D01*
X132461028Y-93930081D01*
X132489394Y-93941830D01*
X132152352Y-94278871D01*
X132112700Y-94266843D01*
X132044183Y-94260095D01*
X131784183Y-94260095D01*
X131715666Y-94266843D01*
X131649781Y-94286829D01*
X131594183Y-94316547D01*
X131574183Y-94305857D01*
X131574183Y-93867710D01*
X131623721Y-93818172D01*
X131624186Y-93817477D01*
X131624645Y-93818164D01*
X131687325Y-93880844D01*
X131761028Y-93930091D01*
X131842923Y-93964012D01*
X131929862Y-93981306D01*
X132018504Y-93981306D01*
X132105443Y-93964012D01*
X132187338Y-93930091D01*
X132261041Y-93880844D01*
X132323721Y-93818164D01*
X132324186Y-93817468D01*
X132324645Y-93818154D01*
X132324645Y-93818154D01*
G37*
X132324645Y-93818154D02*
X132387325Y-93880834D01*
X132461028Y-93930081D01*
X132489394Y-93941830D01*
X132152352Y-94278871D01*
X132112700Y-94266843D01*
X132044183Y-94260095D01*
X131784183Y-94260095D01*
X131715666Y-94266843D01*
X131649781Y-94286829D01*
X131594183Y-94316547D01*
X131574183Y-94305857D01*
X131574183Y-93867710D01*
X131623721Y-93818172D01*
X131624186Y-93817477D01*
X131624645Y-93818164D01*
X131687325Y-93880844D01*
X131761028Y-93930091D01*
X131842923Y-93964012D01*
X131929862Y-93981306D01*
X132018504Y-93981306D01*
X132105443Y-93964012D01*
X132187338Y-93930091D01*
X132261041Y-93880844D01*
X132323721Y-93818164D01*
X132324186Y-93817468D01*
X132324645Y-93818154D01*
G36*
X132699920Y-93081296D02*
G01*
X132629862Y-93081296D01*
X132549661Y-93097250D01*
X132975607Y-92671304D01*
X133109911Y-92671304D01*
X132699920Y-93081296D01*
X132699920Y-93081296D01*
G37*
X132699920Y-93081296D02*
X132629862Y-93081296D01*
X132549661Y-93097250D01*
X132975607Y-92671304D01*
X133109911Y-92671304D01*
X132699920Y-93081296D01*
G36*
X134823653Y-88904542D02*
G01*
X134925156Y-89425674D01*
X134892469Y-89443512D01*
X134879365Y-89452425D01*
X134866116Y-89461169D01*
X134864229Y-89462721D01*
X134804271Y-89512714D01*
X134793110Y-89524041D01*
X134781850Y-89535153D01*
X134780305Y-89537036D01*
X134780299Y-89537042D01*
X134780295Y-89537049D01*
X134731194Y-89597730D01*
X134722485Y-89610948D01*
X134713557Y-89624096D01*
X134712408Y-89626242D01*
X134712403Y-89626250D01*
X134712400Y-89626258D01*
X134676020Y-89695320D01*
X134670032Y-89710010D01*
X134663841Y-89724611D01*
X134663127Y-89726948D01*
X134640853Y-89801769D01*
X134637839Y-89817310D01*
X134637321Y-89819794D01*
X134634884Y-89818166D01*
X134552989Y-89784245D01*
X134466050Y-89766951D01*
X134395994Y-89766951D01*
X133959305Y-89330264D01*
X134017731Y-88886476D01*
X134019342Y-88837257D01*
X134012827Y-88797795D01*
X134823653Y-88904542D01*
X134823653Y-88904542D01*
G37*
X134823653Y-88904542D02*
X134925156Y-89425674D01*
X134892469Y-89443512D01*
X134879365Y-89452425D01*
X134866116Y-89461169D01*
X134864229Y-89462721D01*
X134804271Y-89512714D01*
X134793110Y-89524041D01*
X134781850Y-89535153D01*
X134780305Y-89537036D01*
X134780299Y-89537042D01*
X134780295Y-89537049D01*
X134731194Y-89597730D01*
X134722485Y-89610948D01*
X134713557Y-89624096D01*
X134712408Y-89626242D01*
X134712403Y-89626250D01*
X134712400Y-89626258D01*
X134676020Y-89695320D01*
X134670032Y-89710010D01*
X134663841Y-89724611D01*
X134663127Y-89726948D01*
X134640853Y-89801769D01*
X134637839Y-89817310D01*
X134637321Y-89819794D01*
X134634884Y-89818166D01*
X134552989Y-89784245D01*
X134466050Y-89766951D01*
X134395994Y-89766951D01*
X133959305Y-89330264D01*
X134017731Y-88886476D01*
X134019342Y-88837257D01*
X134012827Y-88797795D01*
X134823653Y-88904542D01*
G36*
X139208851Y-88560297D02*
G01*
X139192344Y-88596728D01*
X139181161Y-88644687D01*
X139050635Y-89636132D01*
X139049024Y-89685351D01*
X139057046Y-89733939D01*
X139074393Y-89780028D01*
X139100398Y-89821847D01*
X139134061Y-89857790D01*
X139174091Y-89886474D01*
X139218947Y-89906798D01*
X139266906Y-89917981D01*
X139516620Y-89950856D01*
X140038782Y-90473019D01*
X140048173Y-90484462D01*
X140059616Y-90493853D01*
X140093853Y-90521951D01*
X140145970Y-90549808D01*
X140159132Y-90553801D01*
X140202521Y-90566963D01*
X140231859Y-90569852D01*
X140230310Y-90571740D01*
X140207096Y-90615170D01*
X140192801Y-90662296D01*
X140187974Y-90711304D01*
X140187974Y-91231304D01*
X140192801Y-91280312D01*
X140207096Y-91327438D01*
X140230310Y-91370868D01*
X140261551Y-91408936D01*
X140299619Y-91440177D01*
X140343049Y-91463391D01*
X140390175Y-91477686D01*
X140439183Y-91482513D01*
X141239183Y-91482513D01*
X141288191Y-91477686D01*
X141335317Y-91463391D01*
X141378747Y-91440177D01*
X141416815Y-91408936D01*
X141448056Y-91370868D01*
X141471270Y-91327438D01*
X141485565Y-91280312D01*
X141490392Y-91231304D01*
X141490392Y-90711304D01*
X141485640Y-90663054D01*
X141552989Y-90649657D01*
X141634884Y-90615736D01*
X141708587Y-90566489D01*
X141771267Y-90503809D01*
X141820514Y-90430106D01*
X141843180Y-90375383D01*
X141867839Y-90395623D01*
X141881038Y-90404452D01*
X141894084Y-90413444D01*
X141896229Y-90414613D01*
X141965043Y-90451477D01*
X141979698Y-90457570D01*
X141994248Y-90463860D01*
X141996580Y-90464590D01*
X142071243Y-90487386D01*
X142086793Y-90490515D01*
X142102299Y-90493861D01*
X142104724Y-90494124D01*
X142104728Y-90494124D01*
X142133835Y-90497069D01*
X142324490Y-91475933D01*
X142288191Y-91464922D01*
X142239183Y-91460095D01*
X141389183Y-91460095D01*
X141340175Y-91464922D01*
X141293049Y-91479217D01*
X141249619Y-91502431D01*
X141211551Y-91533672D01*
X141180310Y-91571740D01*
X141157096Y-91615170D01*
X141142801Y-91662296D01*
X141137974Y-91711304D01*
X141137974Y-92011304D01*
X141142801Y-92060312D01*
X141146135Y-92071304D01*
X139866073Y-92071304D01*
X139851343Y-92069853D01*
X139836613Y-92071304D01*
X139836610Y-92071304D01*
X139792533Y-92075645D01*
X139735983Y-92092800D01*
X139683865Y-92120657D01*
X139649629Y-92148754D01*
X139638185Y-92158146D01*
X139628794Y-92169589D01*
X138772473Y-93025911D01*
X138761025Y-93035306D01*
X138740880Y-93059854D01*
X138723536Y-93080987D01*
X138714122Y-93098600D01*
X138695679Y-93133105D01*
X138678524Y-93189655D01*
X138678424Y-93190669D01*
X138624645Y-93244448D01*
X138624180Y-93245143D01*
X138623721Y-93244456D01*
X138561041Y-93181776D01*
X138487338Y-93132529D01*
X138405443Y-93098608D01*
X138318504Y-93081314D01*
X138229862Y-93081314D01*
X138142923Y-93098608D01*
X138061028Y-93132529D01*
X137987325Y-93181776D01*
X137924645Y-93244456D01*
X137875398Y-93318159D01*
X137841477Y-93400054D01*
X137824183Y-93486993D01*
X137824183Y-93575635D01*
X137841477Y-93662574D01*
X137875398Y-93744469D01*
X137924645Y-93818172D01*
X137974184Y-93867711D01*
X137974183Y-94305856D01*
X137949062Y-94319284D01*
X137895841Y-94362962D01*
X137852163Y-94416183D01*
X137819708Y-94476902D01*
X137799722Y-94542787D01*
X137792974Y-94611304D01*
X137792974Y-94811304D01*
X137799722Y-94879821D01*
X137819708Y-94945706D01*
X137838736Y-94981304D01*
X137793650Y-94981304D01*
X137611408Y-93815303D01*
X137610163Y-91429639D01*
X137840432Y-90567310D01*
X137841477Y-90572564D01*
X137875398Y-90654459D01*
X137924645Y-90728162D01*
X137987325Y-90790842D01*
X138061028Y-90840089D01*
X138142923Y-90874010D01*
X138229862Y-90891304D01*
X138318504Y-90891304D01*
X138405443Y-90874010D01*
X138487338Y-90840089D01*
X138561041Y-90790842D01*
X138623721Y-90728162D01*
X138672968Y-90654459D01*
X138706889Y-90572564D01*
X138724183Y-90485625D01*
X138724183Y-90396983D01*
X138706889Y-90310044D01*
X138672968Y-90228149D01*
X138623721Y-90154446D01*
X138561041Y-90091766D01*
X138487338Y-90042519D01*
X138405443Y-90008598D01*
X138318504Y-89991304D01*
X138229862Y-89991304D01*
X138142923Y-90008598D01*
X138061028Y-90042519D01*
X137987325Y-90091766D01*
X137960164Y-90118927D01*
X138006786Y-89944334D01*
X138043980Y-89942613D01*
X138059687Y-89940336D01*
X138075404Y-89938281D01*
X138077780Y-89937713D01*
X138153577Y-89919027D01*
X138168531Y-89913747D01*
X138183564Y-89908673D01*
X138185784Y-89907654D01*
X138256509Y-89874601D01*
X138270143Y-89866522D01*
X138283910Y-89858622D01*
X138285890Y-89857191D01*
X138348847Y-89811031D01*
X138360641Y-89800468D01*
X138372624Y-89790033D01*
X138374289Y-89788245D01*
X138427081Y-89730736D01*
X138436631Y-89718040D01*
X138446327Y-89705517D01*
X138447613Y-89703440D01*
X138488229Y-89636771D01*
X138495097Y-89622531D01*
X138502209Y-89608299D01*
X138503066Y-89606011D01*
X138529960Y-89532724D01*
X138533932Y-89517424D01*
X138538145Y-89502076D01*
X138538542Y-89499666D01*
X138550689Y-89422549D01*
X138551616Y-89406707D01*
X138552764Y-89390893D01*
X138552685Y-89388451D01*
X138549621Y-89310445D01*
X138547454Y-89294722D01*
X138545509Y-89278994D01*
X138544958Y-89276615D01*
X138526801Y-89200688D01*
X138521623Y-89185692D01*
X138516657Y-89170630D01*
X138515657Y-89168409D01*
X138515655Y-89168404D01*
X138515652Y-89168400D01*
X138483096Y-89097450D01*
X138475124Y-89083779D01*
X138467308Y-89069936D01*
X138465891Y-89067946D01*
X138420170Y-89004668D01*
X138409684Y-88992794D01*
X138399338Y-88980744D01*
X138397561Y-88979067D01*
X138340421Y-88925875D01*
X138327842Y-88916275D01*
X138315341Y-88906455D01*
X138313272Y-88905155D01*
X138288391Y-88889757D01*
X138404639Y-88454421D01*
X139208851Y-88560297D01*
X139208851Y-88560297D01*
G37*
X139208851Y-88560297D02*
X139192344Y-88596728D01*
X139181161Y-88644687D01*
X139050635Y-89636132D01*
X139049024Y-89685351D01*
X139057046Y-89733939D01*
X139074393Y-89780028D01*
X139100398Y-89821847D01*
X139134061Y-89857790D01*
X139174091Y-89886474D01*
X139218947Y-89906798D01*
X139266906Y-89917981D01*
X139516620Y-89950856D01*
X140038782Y-90473019D01*
X140048173Y-90484462D01*
X140059616Y-90493853D01*
X140093853Y-90521951D01*
X140145970Y-90549808D01*
X140159132Y-90553801D01*
X140202521Y-90566963D01*
X140231859Y-90569852D01*
X140230310Y-90571740D01*
X140207096Y-90615170D01*
X140192801Y-90662296D01*
X140187974Y-90711304D01*
X140187974Y-91231304D01*
X140192801Y-91280312D01*
X140207096Y-91327438D01*
X140230310Y-91370868D01*
X140261551Y-91408936D01*
X140299619Y-91440177D01*
X140343049Y-91463391D01*
X140390175Y-91477686D01*
X140439183Y-91482513D01*
X141239183Y-91482513D01*
X141288191Y-91477686D01*
X141335317Y-91463391D01*
X141378747Y-91440177D01*
X141416815Y-91408936D01*
X141448056Y-91370868D01*
X141471270Y-91327438D01*
X141485565Y-91280312D01*
X141490392Y-91231304D01*
X141490392Y-90711304D01*
X141485640Y-90663054D01*
X141552989Y-90649657D01*
X141634884Y-90615736D01*
X141708587Y-90566489D01*
X141771267Y-90503809D01*
X141820514Y-90430106D01*
X141843180Y-90375383D01*
X141867839Y-90395623D01*
X141881038Y-90404452D01*
X141894084Y-90413444D01*
X141896229Y-90414613D01*
X141965043Y-90451477D01*
X141979698Y-90457570D01*
X141994248Y-90463860D01*
X141996580Y-90464590D01*
X142071243Y-90487386D01*
X142086793Y-90490515D01*
X142102299Y-90493861D01*
X142104724Y-90494124D01*
X142104728Y-90494124D01*
X142133835Y-90497069D01*
X142324490Y-91475933D01*
X142288191Y-91464922D01*
X142239183Y-91460095D01*
X141389183Y-91460095D01*
X141340175Y-91464922D01*
X141293049Y-91479217D01*
X141249619Y-91502431D01*
X141211551Y-91533672D01*
X141180310Y-91571740D01*
X141157096Y-91615170D01*
X141142801Y-91662296D01*
X141137974Y-91711304D01*
X141137974Y-92011304D01*
X141142801Y-92060312D01*
X141146135Y-92071304D01*
X139866073Y-92071304D01*
X139851343Y-92069853D01*
X139836613Y-92071304D01*
X139836610Y-92071304D01*
X139792533Y-92075645D01*
X139735983Y-92092800D01*
X139683865Y-92120657D01*
X139649629Y-92148754D01*
X139638185Y-92158146D01*
X139628794Y-92169589D01*
X138772473Y-93025911D01*
X138761025Y-93035306D01*
X138740880Y-93059854D01*
X138723536Y-93080987D01*
X138714122Y-93098600D01*
X138695679Y-93133105D01*
X138678524Y-93189655D01*
X138678424Y-93190669D01*
X138624645Y-93244448D01*
X138624180Y-93245143D01*
X138623721Y-93244456D01*
X138561041Y-93181776D01*
X138487338Y-93132529D01*
X138405443Y-93098608D01*
X138318504Y-93081314D01*
X138229862Y-93081314D01*
X138142923Y-93098608D01*
X138061028Y-93132529D01*
X137987325Y-93181776D01*
X137924645Y-93244456D01*
X137875398Y-93318159D01*
X137841477Y-93400054D01*
X137824183Y-93486993D01*
X137824183Y-93575635D01*
X137841477Y-93662574D01*
X137875398Y-93744469D01*
X137924645Y-93818172D01*
X137974184Y-93867711D01*
X137974183Y-94305856D01*
X137949062Y-94319284D01*
X137895841Y-94362962D01*
X137852163Y-94416183D01*
X137819708Y-94476902D01*
X137799722Y-94542787D01*
X137792974Y-94611304D01*
X137792974Y-94811304D01*
X137799722Y-94879821D01*
X137819708Y-94945706D01*
X137838736Y-94981304D01*
X137793650Y-94981304D01*
X137611408Y-93815303D01*
X137610163Y-91429639D01*
X137840432Y-90567310D01*
X137841477Y-90572564D01*
X137875398Y-90654459D01*
X137924645Y-90728162D01*
X137987325Y-90790842D01*
X138061028Y-90840089D01*
X138142923Y-90874010D01*
X138229862Y-90891304D01*
X138318504Y-90891304D01*
X138405443Y-90874010D01*
X138487338Y-90840089D01*
X138561041Y-90790842D01*
X138623721Y-90728162D01*
X138672968Y-90654459D01*
X138706889Y-90572564D01*
X138724183Y-90485625D01*
X138724183Y-90396983D01*
X138706889Y-90310044D01*
X138672968Y-90228149D01*
X138623721Y-90154446D01*
X138561041Y-90091766D01*
X138487338Y-90042519D01*
X138405443Y-90008598D01*
X138318504Y-89991304D01*
X138229862Y-89991304D01*
X138142923Y-90008598D01*
X138061028Y-90042519D01*
X137987325Y-90091766D01*
X137960164Y-90118927D01*
X138006786Y-89944334D01*
X138043980Y-89942613D01*
X138059687Y-89940336D01*
X138075404Y-89938281D01*
X138077780Y-89937713D01*
X138153577Y-89919027D01*
X138168531Y-89913747D01*
X138183564Y-89908673D01*
X138185784Y-89907654D01*
X138256509Y-89874601D01*
X138270143Y-89866522D01*
X138283910Y-89858622D01*
X138285890Y-89857191D01*
X138348847Y-89811031D01*
X138360641Y-89800468D01*
X138372624Y-89790033D01*
X138374289Y-89788245D01*
X138427081Y-89730736D01*
X138436631Y-89718040D01*
X138446327Y-89705517D01*
X138447613Y-89703440D01*
X138488229Y-89636771D01*
X138495097Y-89622531D01*
X138502209Y-89608299D01*
X138503066Y-89606011D01*
X138529960Y-89532724D01*
X138533932Y-89517424D01*
X138538145Y-89502076D01*
X138538542Y-89499666D01*
X138550689Y-89422549D01*
X138551616Y-89406707D01*
X138552764Y-89390893D01*
X138552685Y-89388451D01*
X138549621Y-89310445D01*
X138547454Y-89294722D01*
X138545509Y-89278994D01*
X138544958Y-89276615D01*
X138526801Y-89200688D01*
X138521623Y-89185692D01*
X138516657Y-89170630D01*
X138515657Y-89168409D01*
X138515655Y-89168404D01*
X138515652Y-89168400D01*
X138483096Y-89097450D01*
X138475124Y-89083779D01*
X138467308Y-89069936D01*
X138465891Y-89067946D01*
X138420170Y-89004668D01*
X138409684Y-88992794D01*
X138399338Y-88980744D01*
X138397561Y-88979067D01*
X138340421Y-88925875D01*
X138327842Y-88916275D01*
X138315341Y-88906455D01*
X138313272Y-88905155D01*
X138288391Y-88889757D01*
X138404639Y-88454421D01*
X139208851Y-88560297D01*
G36*
X142608086Y-92931975D02*
G01*
X142609157Y-94981304D01*
X139349630Y-94981304D01*
X139368658Y-94945706D01*
X139383730Y-94896020D01*
X140187974Y-94091777D01*
X140187974Y-94511304D01*
X140192801Y-94560312D01*
X140207096Y-94607438D01*
X140230310Y-94650868D01*
X140261551Y-94688936D01*
X140299619Y-94720177D01*
X140343049Y-94743391D01*
X140390175Y-94757686D01*
X140439183Y-94762513D01*
X141239183Y-94762513D01*
X141288191Y-94757686D01*
X141335317Y-94743391D01*
X141378747Y-94720177D01*
X141416815Y-94688936D01*
X141448056Y-94650868D01*
X141470198Y-94609444D01*
X141531028Y-94650089D01*
X141612923Y-94684010D01*
X141699862Y-94701304D01*
X141788504Y-94701304D01*
X141875443Y-94684010D01*
X141957338Y-94650089D01*
X142031041Y-94600842D01*
X142093721Y-94538162D01*
X142142968Y-94464459D01*
X142176889Y-94382564D01*
X142194183Y-94295625D01*
X142194183Y-94206983D01*
X142176889Y-94120044D01*
X142142968Y-94038149D01*
X142093721Y-93964446D01*
X142031041Y-93901766D01*
X141957338Y-93852519D01*
X141875443Y-93818598D01*
X141788504Y-93801304D01*
X141699862Y-93801304D01*
X141612923Y-93818598D01*
X141531028Y-93852519D01*
X141470198Y-93893164D01*
X141448056Y-93851740D01*
X141416815Y-93813672D01*
X141378747Y-93782431D01*
X141335317Y-93759217D01*
X141288191Y-93744922D01*
X141239183Y-93740095D01*
X140539656Y-93740095D01*
X140618447Y-93661304D01*
X141188874Y-93661304D01*
X141211551Y-93688936D01*
X141249619Y-93720177D01*
X141293049Y-93743391D01*
X141340175Y-93757686D01*
X141389183Y-93762513D01*
X142239183Y-93762513D01*
X142288191Y-93757686D01*
X142335317Y-93743391D01*
X142378747Y-93720177D01*
X142416815Y-93688936D01*
X142448056Y-93650868D01*
X142471270Y-93607438D01*
X142485565Y-93560312D01*
X142490392Y-93511304D01*
X142490392Y-93211304D01*
X142485565Y-93162296D01*
X142471270Y-93115170D01*
X142469204Y-93111304D01*
X142471270Y-93107438D01*
X142485565Y-93060312D01*
X142490392Y-93011304D01*
X142490392Y-92711304D01*
X142485565Y-92662296D01*
X142471270Y-92615170D01*
X142469204Y-92611304D01*
X142471270Y-92607438D01*
X142485565Y-92560312D01*
X142490392Y-92511304D01*
X142490392Y-92327708D01*
X142608086Y-92931975D01*
X142608086Y-92931975D01*
G37*
X142608086Y-92931975D02*
X142609157Y-94981304D01*
X139349630Y-94981304D01*
X139368658Y-94945706D01*
X139383730Y-94896020D01*
X140187974Y-94091777D01*
X140187974Y-94511304D01*
X140192801Y-94560312D01*
X140207096Y-94607438D01*
X140230310Y-94650868D01*
X140261551Y-94688936D01*
X140299619Y-94720177D01*
X140343049Y-94743391D01*
X140390175Y-94757686D01*
X140439183Y-94762513D01*
X141239183Y-94762513D01*
X141288191Y-94757686D01*
X141335317Y-94743391D01*
X141378747Y-94720177D01*
X141416815Y-94688936D01*
X141448056Y-94650868D01*
X141470198Y-94609444D01*
X141531028Y-94650089D01*
X141612923Y-94684010D01*
X141699862Y-94701304D01*
X141788504Y-94701304D01*
X141875443Y-94684010D01*
X141957338Y-94650089D01*
X142031041Y-94600842D01*
X142093721Y-94538162D01*
X142142968Y-94464459D01*
X142176889Y-94382564D01*
X142194183Y-94295625D01*
X142194183Y-94206983D01*
X142176889Y-94120044D01*
X142142968Y-94038149D01*
X142093721Y-93964446D01*
X142031041Y-93901766D01*
X141957338Y-93852519D01*
X141875443Y-93818598D01*
X141788504Y-93801304D01*
X141699862Y-93801304D01*
X141612923Y-93818598D01*
X141531028Y-93852519D01*
X141470198Y-93893164D01*
X141448056Y-93851740D01*
X141416815Y-93813672D01*
X141378747Y-93782431D01*
X141335317Y-93759217D01*
X141288191Y-93744922D01*
X141239183Y-93740095D01*
X140539656Y-93740095D01*
X140618447Y-93661304D01*
X141188874Y-93661304D01*
X141211551Y-93688936D01*
X141249619Y-93720177D01*
X141293049Y-93743391D01*
X141340175Y-93757686D01*
X141389183Y-93762513D01*
X142239183Y-93762513D01*
X142288191Y-93757686D01*
X142335317Y-93743391D01*
X142378747Y-93720177D01*
X142416815Y-93688936D01*
X142448056Y-93650868D01*
X142471270Y-93607438D01*
X142485565Y-93560312D01*
X142490392Y-93511304D01*
X142490392Y-93211304D01*
X142485565Y-93162296D01*
X142471270Y-93115170D01*
X142469204Y-93111304D01*
X142471270Y-93107438D01*
X142485565Y-93060312D01*
X142490392Y-93011304D01*
X142490392Y-92711304D01*
X142485565Y-92662296D01*
X142471270Y-92615170D01*
X142469204Y-92611304D01*
X142471270Y-92607438D01*
X142485565Y-92560312D01*
X142490392Y-92511304D01*
X142490392Y-92327708D01*
X142608086Y-92931975D01*
G36*
X139324645Y-93818154D02*
G01*
X139387325Y-93880834D01*
X139461028Y-93930081D01*
X139489394Y-93941830D01*
X139152352Y-94278871D01*
X139112700Y-94266843D01*
X139044183Y-94260095D01*
X138784183Y-94260095D01*
X138715666Y-94266843D01*
X138649781Y-94286829D01*
X138594183Y-94316547D01*
X138574183Y-94305857D01*
X138574183Y-93867710D01*
X138623721Y-93818172D01*
X138624186Y-93817477D01*
X138624645Y-93818164D01*
X138687325Y-93880844D01*
X138761028Y-93930091D01*
X138842923Y-93964012D01*
X138929862Y-93981306D01*
X139018504Y-93981306D01*
X139105443Y-93964012D01*
X139187338Y-93930091D01*
X139261041Y-93880844D01*
X139323721Y-93818164D01*
X139324186Y-93817468D01*
X139324645Y-93818154D01*
X139324645Y-93818154D01*
G37*
X139324645Y-93818154D02*
X139387325Y-93880834D01*
X139461028Y-93930081D01*
X139489394Y-93941830D01*
X139152352Y-94278871D01*
X139112700Y-94266843D01*
X139044183Y-94260095D01*
X138784183Y-94260095D01*
X138715666Y-94266843D01*
X138649781Y-94286829D01*
X138594183Y-94316547D01*
X138574183Y-94305857D01*
X138574183Y-93867710D01*
X138623721Y-93818172D01*
X138624186Y-93817477D01*
X138624645Y-93818164D01*
X138687325Y-93880844D01*
X138761028Y-93930091D01*
X138842923Y-93964012D01*
X138929862Y-93981306D01*
X139018504Y-93981306D01*
X139105443Y-93964012D01*
X139187338Y-93930091D01*
X139261041Y-93880844D01*
X139323721Y-93818164D01*
X139324186Y-93817468D01*
X139324645Y-93818154D01*
G36*
X139699920Y-93081296D02*
G01*
X139629862Y-93081296D01*
X139549661Y-93097250D01*
X139975607Y-92671304D01*
X140109911Y-92671304D01*
X139699920Y-93081296D01*
X139699920Y-93081296D01*
G37*
X139699920Y-93081296D02*
X139629862Y-93081296D01*
X139549661Y-93097250D01*
X139975607Y-92671304D01*
X140109911Y-92671304D01*
X139699920Y-93081296D01*
G36*
X141823653Y-88904542D02*
G01*
X141925156Y-89425674D01*
X141892469Y-89443512D01*
X141879365Y-89452425D01*
X141866116Y-89461169D01*
X141864229Y-89462721D01*
X141804271Y-89512714D01*
X141793110Y-89524041D01*
X141781850Y-89535153D01*
X141780305Y-89537036D01*
X141780299Y-89537042D01*
X141780295Y-89537049D01*
X141731194Y-89597730D01*
X141722485Y-89610948D01*
X141713557Y-89624096D01*
X141712408Y-89626242D01*
X141712403Y-89626250D01*
X141712400Y-89626258D01*
X141676020Y-89695320D01*
X141670032Y-89710010D01*
X141663841Y-89724611D01*
X141663127Y-89726948D01*
X141640853Y-89801769D01*
X141637839Y-89817310D01*
X141637321Y-89819794D01*
X141634884Y-89818166D01*
X141552989Y-89784245D01*
X141466050Y-89766951D01*
X141395994Y-89766951D01*
X140959305Y-89330264D01*
X141017731Y-88886476D01*
X141019342Y-88837257D01*
X141012827Y-88797795D01*
X141823653Y-88904542D01*
X141823653Y-88904542D01*
G37*
X141823653Y-88904542D02*
X141925156Y-89425674D01*
X141892469Y-89443512D01*
X141879365Y-89452425D01*
X141866116Y-89461169D01*
X141864229Y-89462721D01*
X141804271Y-89512714D01*
X141793110Y-89524041D01*
X141781850Y-89535153D01*
X141780305Y-89537036D01*
X141780299Y-89537042D01*
X141780295Y-89537049D01*
X141731194Y-89597730D01*
X141722485Y-89610948D01*
X141713557Y-89624096D01*
X141712408Y-89626242D01*
X141712403Y-89626250D01*
X141712400Y-89626258D01*
X141676020Y-89695320D01*
X141670032Y-89710010D01*
X141663841Y-89724611D01*
X141663127Y-89726948D01*
X141640853Y-89801769D01*
X141637839Y-89817310D01*
X141637321Y-89819794D01*
X141634884Y-89818166D01*
X141552989Y-89784245D01*
X141466050Y-89766951D01*
X141395994Y-89766951D01*
X140959305Y-89330264D01*
X141017731Y-88886476D01*
X141019342Y-88837257D01*
X141012827Y-88797795D01*
X141823653Y-88904542D01*
G36*
X146208851Y-88560297D02*
G01*
X146192344Y-88596728D01*
X146181161Y-88644687D01*
X146050635Y-89636132D01*
X146049024Y-89685351D01*
X146057046Y-89733939D01*
X146074393Y-89780028D01*
X146100398Y-89821847D01*
X146134061Y-89857790D01*
X146174091Y-89886474D01*
X146218947Y-89906798D01*
X146266906Y-89917981D01*
X146516620Y-89950856D01*
X147038782Y-90473019D01*
X147048173Y-90484462D01*
X147059616Y-90493853D01*
X147093853Y-90521951D01*
X147145970Y-90549808D01*
X147159132Y-90553801D01*
X147202521Y-90566963D01*
X147231859Y-90569852D01*
X147230310Y-90571740D01*
X147207096Y-90615170D01*
X147192801Y-90662296D01*
X147187974Y-90711304D01*
X147187974Y-91231304D01*
X147192801Y-91280312D01*
X147207096Y-91327438D01*
X147230310Y-91370868D01*
X147261551Y-91408936D01*
X147299619Y-91440177D01*
X147343049Y-91463391D01*
X147390175Y-91477686D01*
X147439183Y-91482513D01*
X148239183Y-91482513D01*
X148288191Y-91477686D01*
X148335317Y-91463391D01*
X148378747Y-91440177D01*
X148416815Y-91408936D01*
X148448056Y-91370868D01*
X148471270Y-91327438D01*
X148485565Y-91280312D01*
X148490392Y-91231304D01*
X148490392Y-90711304D01*
X148485640Y-90663054D01*
X148552989Y-90649657D01*
X148634884Y-90615736D01*
X148708587Y-90566489D01*
X148771267Y-90503809D01*
X148820514Y-90430106D01*
X148843180Y-90375383D01*
X148867839Y-90395623D01*
X148881038Y-90404452D01*
X148894084Y-90413444D01*
X148896229Y-90414613D01*
X148965043Y-90451477D01*
X148979698Y-90457570D01*
X148994248Y-90463860D01*
X148996580Y-90464590D01*
X149071243Y-90487386D01*
X149086793Y-90490515D01*
X149102299Y-90493861D01*
X149104724Y-90494124D01*
X149104728Y-90494124D01*
X149133835Y-90497069D01*
X149324490Y-91475933D01*
X149288191Y-91464922D01*
X149239183Y-91460095D01*
X148389183Y-91460095D01*
X148340175Y-91464922D01*
X148293049Y-91479217D01*
X148249619Y-91502431D01*
X148211551Y-91533672D01*
X148180310Y-91571740D01*
X148157096Y-91615170D01*
X148142801Y-91662296D01*
X148137974Y-91711304D01*
X148137974Y-92011304D01*
X148142801Y-92060312D01*
X148146135Y-92071304D01*
X146866073Y-92071304D01*
X146851343Y-92069853D01*
X146836613Y-92071304D01*
X146836610Y-92071304D01*
X146792533Y-92075645D01*
X146735983Y-92092800D01*
X146683865Y-92120657D01*
X146649629Y-92148754D01*
X146638185Y-92158146D01*
X146628794Y-92169589D01*
X145772473Y-93025911D01*
X145761025Y-93035306D01*
X145740880Y-93059854D01*
X145723536Y-93080987D01*
X145714122Y-93098600D01*
X145695679Y-93133105D01*
X145678524Y-93189655D01*
X145678424Y-93190669D01*
X145624645Y-93244448D01*
X145624180Y-93245143D01*
X145623721Y-93244456D01*
X145561041Y-93181776D01*
X145487338Y-93132529D01*
X145405443Y-93098608D01*
X145318504Y-93081314D01*
X145229862Y-93081314D01*
X145142923Y-93098608D01*
X145061028Y-93132529D01*
X144987325Y-93181776D01*
X144924645Y-93244456D01*
X144875398Y-93318159D01*
X144841477Y-93400054D01*
X144824183Y-93486993D01*
X144824183Y-93575635D01*
X144841477Y-93662574D01*
X144875398Y-93744469D01*
X144924645Y-93818172D01*
X144974184Y-93867711D01*
X144974183Y-94305856D01*
X144949062Y-94319284D01*
X144895841Y-94362962D01*
X144852163Y-94416183D01*
X144819708Y-94476902D01*
X144799722Y-94542787D01*
X144792974Y-94611304D01*
X144792974Y-94811304D01*
X144799722Y-94879821D01*
X144819708Y-94945706D01*
X144838736Y-94981304D01*
X144793650Y-94981304D01*
X144611408Y-93815303D01*
X144610163Y-91429639D01*
X144840432Y-90567310D01*
X144841477Y-90572564D01*
X144875398Y-90654459D01*
X144924645Y-90728162D01*
X144987325Y-90790842D01*
X145061028Y-90840089D01*
X145142923Y-90874010D01*
X145229862Y-90891304D01*
X145318504Y-90891304D01*
X145405443Y-90874010D01*
X145487338Y-90840089D01*
X145561041Y-90790842D01*
X145623721Y-90728162D01*
X145672968Y-90654459D01*
X145706889Y-90572564D01*
X145724183Y-90485625D01*
X145724183Y-90396983D01*
X145706889Y-90310044D01*
X145672968Y-90228149D01*
X145623721Y-90154446D01*
X145561041Y-90091766D01*
X145487338Y-90042519D01*
X145405443Y-90008598D01*
X145318504Y-89991304D01*
X145229862Y-89991304D01*
X145142923Y-90008598D01*
X145061028Y-90042519D01*
X144987325Y-90091766D01*
X144960164Y-90118927D01*
X145006786Y-89944334D01*
X145043980Y-89942613D01*
X145059687Y-89940336D01*
X145075404Y-89938281D01*
X145077780Y-89937713D01*
X145153577Y-89919027D01*
X145168531Y-89913747D01*
X145183564Y-89908673D01*
X145185784Y-89907654D01*
X145256509Y-89874601D01*
X145270143Y-89866522D01*
X145283910Y-89858622D01*
X145285890Y-89857191D01*
X145348847Y-89811031D01*
X145360641Y-89800468D01*
X145372624Y-89790033D01*
X145374289Y-89788245D01*
X145427081Y-89730736D01*
X145436631Y-89718040D01*
X145446327Y-89705517D01*
X145447613Y-89703440D01*
X145488229Y-89636771D01*
X145495097Y-89622531D01*
X145502209Y-89608299D01*
X145503066Y-89606011D01*
X145529960Y-89532724D01*
X145533932Y-89517424D01*
X145538145Y-89502076D01*
X145538542Y-89499666D01*
X145550689Y-89422549D01*
X145551616Y-89406707D01*
X145552764Y-89390893D01*
X145552685Y-89388451D01*
X145549621Y-89310445D01*
X145547454Y-89294722D01*
X145545509Y-89278994D01*
X145544958Y-89276615D01*
X145526801Y-89200688D01*
X145521623Y-89185692D01*
X145516657Y-89170630D01*
X145515657Y-89168409D01*
X145515655Y-89168404D01*
X145515652Y-89168400D01*
X145483096Y-89097450D01*
X145475124Y-89083779D01*
X145467308Y-89069936D01*
X145465891Y-89067946D01*
X145420170Y-89004668D01*
X145409684Y-88992794D01*
X145399338Y-88980744D01*
X145397561Y-88979067D01*
X145340421Y-88925875D01*
X145327842Y-88916275D01*
X145315341Y-88906455D01*
X145313272Y-88905155D01*
X145288391Y-88889757D01*
X145404639Y-88454421D01*
X146208851Y-88560297D01*
X146208851Y-88560297D01*
G37*
X146208851Y-88560297D02*
X146192344Y-88596728D01*
X146181161Y-88644687D01*
X146050635Y-89636132D01*
X146049024Y-89685351D01*
X146057046Y-89733939D01*
X146074393Y-89780028D01*
X146100398Y-89821847D01*
X146134061Y-89857790D01*
X146174091Y-89886474D01*
X146218947Y-89906798D01*
X146266906Y-89917981D01*
X146516620Y-89950856D01*
X147038782Y-90473019D01*
X147048173Y-90484462D01*
X147059616Y-90493853D01*
X147093853Y-90521951D01*
X147145970Y-90549808D01*
X147159132Y-90553801D01*
X147202521Y-90566963D01*
X147231859Y-90569852D01*
X147230310Y-90571740D01*
X147207096Y-90615170D01*
X147192801Y-90662296D01*
X147187974Y-90711304D01*
X147187974Y-91231304D01*
X147192801Y-91280312D01*
X147207096Y-91327438D01*
X147230310Y-91370868D01*
X147261551Y-91408936D01*
X147299619Y-91440177D01*
X147343049Y-91463391D01*
X147390175Y-91477686D01*
X147439183Y-91482513D01*
X148239183Y-91482513D01*
X148288191Y-91477686D01*
X148335317Y-91463391D01*
X148378747Y-91440177D01*
X148416815Y-91408936D01*
X148448056Y-91370868D01*
X148471270Y-91327438D01*
X148485565Y-91280312D01*
X148490392Y-91231304D01*
X148490392Y-90711304D01*
X148485640Y-90663054D01*
X148552989Y-90649657D01*
X148634884Y-90615736D01*
X148708587Y-90566489D01*
X148771267Y-90503809D01*
X148820514Y-90430106D01*
X148843180Y-90375383D01*
X148867839Y-90395623D01*
X148881038Y-90404452D01*
X148894084Y-90413444D01*
X148896229Y-90414613D01*
X148965043Y-90451477D01*
X148979698Y-90457570D01*
X148994248Y-90463860D01*
X148996580Y-90464590D01*
X149071243Y-90487386D01*
X149086793Y-90490515D01*
X149102299Y-90493861D01*
X149104724Y-90494124D01*
X149104728Y-90494124D01*
X149133835Y-90497069D01*
X149324490Y-91475933D01*
X149288191Y-91464922D01*
X149239183Y-91460095D01*
X148389183Y-91460095D01*
X148340175Y-91464922D01*
X148293049Y-91479217D01*
X148249619Y-91502431D01*
X148211551Y-91533672D01*
X148180310Y-91571740D01*
X148157096Y-91615170D01*
X148142801Y-91662296D01*
X148137974Y-91711304D01*
X148137974Y-92011304D01*
X148142801Y-92060312D01*
X148146135Y-92071304D01*
X146866073Y-92071304D01*
X146851343Y-92069853D01*
X146836613Y-92071304D01*
X146836610Y-92071304D01*
X146792533Y-92075645D01*
X146735983Y-92092800D01*
X146683865Y-92120657D01*
X146649629Y-92148754D01*
X146638185Y-92158146D01*
X146628794Y-92169589D01*
X145772473Y-93025911D01*
X145761025Y-93035306D01*
X145740880Y-93059854D01*
X145723536Y-93080987D01*
X145714122Y-93098600D01*
X145695679Y-93133105D01*
X145678524Y-93189655D01*
X145678424Y-93190669D01*
X145624645Y-93244448D01*
X145624180Y-93245143D01*
X145623721Y-93244456D01*
X145561041Y-93181776D01*
X145487338Y-93132529D01*
X145405443Y-93098608D01*
X145318504Y-93081314D01*
X145229862Y-93081314D01*
X145142923Y-93098608D01*
X145061028Y-93132529D01*
X144987325Y-93181776D01*
X144924645Y-93244456D01*
X144875398Y-93318159D01*
X144841477Y-93400054D01*
X144824183Y-93486993D01*
X144824183Y-93575635D01*
X144841477Y-93662574D01*
X144875398Y-93744469D01*
X144924645Y-93818172D01*
X144974184Y-93867711D01*
X144974183Y-94305856D01*
X144949062Y-94319284D01*
X144895841Y-94362962D01*
X144852163Y-94416183D01*
X144819708Y-94476902D01*
X144799722Y-94542787D01*
X144792974Y-94611304D01*
X144792974Y-94811304D01*
X144799722Y-94879821D01*
X144819708Y-94945706D01*
X144838736Y-94981304D01*
X144793650Y-94981304D01*
X144611408Y-93815303D01*
X144610163Y-91429639D01*
X144840432Y-90567310D01*
X144841477Y-90572564D01*
X144875398Y-90654459D01*
X144924645Y-90728162D01*
X144987325Y-90790842D01*
X145061028Y-90840089D01*
X145142923Y-90874010D01*
X145229862Y-90891304D01*
X145318504Y-90891304D01*
X145405443Y-90874010D01*
X145487338Y-90840089D01*
X145561041Y-90790842D01*
X145623721Y-90728162D01*
X145672968Y-90654459D01*
X145706889Y-90572564D01*
X145724183Y-90485625D01*
X145724183Y-90396983D01*
X145706889Y-90310044D01*
X145672968Y-90228149D01*
X145623721Y-90154446D01*
X145561041Y-90091766D01*
X145487338Y-90042519D01*
X145405443Y-90008598D01*
X145318504Y-89991304D01*
X145229862Y-89991304D01*
X145142923Y-90008598D01*
X145061028Y-90042519D01*
X144987325Y-90091766D01*
X144960164Y-90118927D01*
X145006786Y-89944334D01*
X145043980Y-89942613D01*
X145059687Y-89940336D01*
X145075404Y-89938281D01*
X145077780Y-89937713D01*
X145153577Y-89919027D01*
X145168531Y-89913747D01*
X145183564Y-89908673D01*
X145185784Y-89907654D01*
X145256509Y-89874601D01*
X145270143Y-89866522D01*
X145283910Y-89858622D01*
X145285890Y-89857191D01*
X145348847Y-89811031D01*
X145360641Y-89800468D01*
X145372624Y-89790033D01*
X145374289Y-89788245D01*
X145427081Y-89730736D01*
X145436631Y-89718040D01*
X145446327Y-89705517D01*
X145447613Y-89703440D01*
X145488229Y-89636771D01*
X145495097Y-89622531D01*
X145502209Y-89608299D01*
X145503066Y-89606011D01*
X145529960Y-89532724D01*
X145533932Y-89517424D01*
X145538145Y-89502076D01*
X145538542Y-89499666D01*
X145550689Y-89422549D01*
X145551616Y-89406707D01*
X145552764Y-89390893D01*
X145552685Y-89388451D01*
X145549621Y-89310445D01*
X145547454Y-89294722D01*
X145545509Y-89278994D01*
X145544958Y-89276615D01*
X145526801Y-89200688D01*
X145521623Y-89185692D01*
X145516657Y-89170630D01*
X145515657Y-89168409D01*
X145515655Y-89168404D01*
X145515652Y-89168400D01*
X145483096Y-89097450D01*
X145475124Y-89083779D01*
X145467308Y-89069936D01*
X145465891Y-89067946D01*
X145420170Y-89004668D01*
X145409684Y-88992794D01*
X145399338Y-88980744D01*
X145397561Y-88979067D01*
X145340421Y-88925875D01*
X145327842Y-88916275D01*
X145315341Y-88906455D01*
X145313272Y-88905155D01*
X145288391Y-88889757D01*
X145404639Y-88454421D01*
X146208851Y-88560297D01*
G36*
X149608086Y-92931975D02*
G01*
X149609157Y-94981304D01*
X146349630Y-94981304D01*
X146368658Y-94945706D01*
X146383730Y-94896020D01*
X147187974Y-94091777D01*
X147187974Y-94511304D01*
X147192801Y-94560312D01*
X147207096Y-94607438D01*
X147230310Y-94650868D01*
X147261551Y-94688936D01*
X147299619Y-94720177D01*
X147343049Y-94743391D01*
X147390175Y-94757686D01*
X147439183Y-94762513D01*
X148239183Y-94762513D01*
X148288191Y-94757686D01*
X148335317Y-94743391D01*
X148378747Y-94720177D01*
X148416815Y-94688936D01*
X148448056Y-94650868D01*
X148470198Y-94609444D01*
X148531028Y-94650089D01*
X148612923Y-94684010D01*
X148699862Y-94701304D01*
X148788504Y-94701304D01*
X148875443Y-94684010D01*
X148957338Y-94650089D01*
X149031041Y-94600842D01*
X149093721Y-94538162D01*
X149142968Y-94464459D01*
X149176889Y-94382564D01*
X149194183Y-94295625D01*
X149194183Y-94206983D01*
X149176889Y-94120044D01*
X149142968Y-94038149D01*
X149093721Y-93964446D01*
X149031041Y-93901766D01*
X148957338Y-93852519D01*
X148875443Y-93818598D01*
X148788504Y-93801304D01*
X148699862Y-93801304D01*
X148612923Y-93818598D01*
X148531028Y-93852519D01*
X148470198Y-93893164D01*
X148448056Y-93851740D01*
X148416815Y-93813672D01*
X148378747Y-93782431D01*
X148335317Y-93759217D01*
X148288191Y-93744922D01*
X148239183Y-93740095D01*
X147539656Y-93740095D01*
X147618447Y-93661304D01*
X148188874Y-93661304D01*
X148211551Y-93688936D01*
X148249619Y-93720177D01*
X148293049Y-93743391D01*
X148340175Y-93757686D01*
X148389183Y-93762513D01*
X149239183Y-93762513D01*
X149288191Y-93757686D01*
X149335317Y-93743391D01*
X149378747Y-93720177D01*
X149416815Y-93688936D01*
X149448056Y-93650868D01*
X149471270Y-93607438D01*
X149485565Y-93560312D01*
X149490392Y-93511304D01*
X149490392Y-93211304D01*
X149485565Y-93162296D01*
X149471270Y-93115170D01*
X149469204Y-93111304D01*
X149471270Y-93107438D01*
X149485565Y-93060312D01*
X149490392Y-93011304D01*
X149490392Y-92711304D01*
X149485565Y-92662296D01*
X149471270Y-92615170D01*
X149469204Y-92611304D01*
X149471270Y-92607438D01*
X149485565Y-92560312D01*
X149490392Y-92511304D01*
X149490392Y-92327708D01*
X149608086Y-92931975D01*
X149608086Y-92931975D01*
G37*
X149608086Y-92931975D02*
X149609157Y-94981304D01*
X146349630Y-94981304D01*
X146368658Y-94945706D01*
X146383730Y-94896020D01*
X147187974Y-94091777D01*
X147187974Y-94511304D01*
X147192801Y-94560312D01*
X147207096Y-94607438D01*
X147230310Y-94650868D01*
X147261551Y-94688936D01*
X147299619Y-94720177D01*
X147343049Y-94743391D01*
X147390175Y-94757686D01*
X147439183Y-94762513D01*
X148239183Y-94762513D01*
X148288191Y-94757686D01*
X148335317Y-94743391D01*
X148378747Y-94720177D01*
X148416815Y-94688936D01*
X148448056Y-94650868D01*
X148470198Y-94609444D01*
X148531028Y-94650089D01*
X148612923Y-94684010D01*
X148699862Y-94701304D01*
X148788504Y-94701304D01*
X148875443Y-94684010D01*
X148957338Y-94650089D01*
X149031041Y-94600842D01*
X149093721Y-94538162D01*
X149142968Y-94464459D01*
X149176889Y-94382564D01*
X149194183Y-94295625D01*
X149194183Y-94206983D01*
X149176889Y-94120044D01*
X149142968Y-94038149D01*
X149093721Y-93964446D01*
X149031041Y-93901766D01*
X148957338Y-93852519D01*
X148875443Y-93818598D01*
X148788504Y-93801304D01*
X148699862Y-93801304D01*
X148612923Y-93818598D01*
X148531028Y-93852519D01*
X148470198Y-93893164D01*
X148448056Y-93851740D01*
X148416815Y-93813672D01*
X148378747Y-93782431D01*
X148335317Y-93759217D01*
X148288191Y-93744922D01*
X148239183Y-93740095D01*
X147539656Y-93740095D01*
X147618447Y-93661304D01*
X148188874Y-93661304D01*
X148211551Y-93688936D01*
X148249619Y-93720177D01*
X148293049Y-93743391D01*
X148340175Y-93757686D01*
X148389183Y-93762513D01*
X149239183Y-93762513D01*
X149288191Y-93757686D01*
X149335317Y-93743391D01*
X149378747Y-93720177D01*
X149416815Y-93688936D01*
X149448056Y-93650868D01*
X149471270Y-93607438D01*
X149485565Y-93560312D01*
X149490392Y-93511304D01*
X149490392Y-93211304D01*
X149485565Y-93162296D01*
X149471270Y-93115170D01*
X149469204Y-93111304D01*
X149471270Y-93107438D01*
X149485565Y-93060312D01*
X149490392Y-93011304D01*
X149490392Y-92711304D01*
X149485565Y-92662296D01*
X149471270Y-92615170D01*
X149469204Y-92611304D01*
X149471270Y-92607438D01*
X149485565Y-92560312D01*
X149490392Y-92511304D01*
X149490392Y-92327708D01*
X149608086Y-92931975D01*
G36*
X146324645Y-93818154D02*
G01*
X146387325Y-93880834D01*
X146461028Y-93930081D01*
X146489394Y-93941830D01*
X146152352Y-94278871D01*
X146112700Y-94266843D01*
X146044183Y-94260095D01*
X145784183Y-94260095D01*
X145715666Y-94266843D01*
X145649781Y-94286829D01*
X145594183Y-94316547D01*
X145574183Y-94305857D01*
X145574183Y-93867710D01*
X145623721Y-93818172D01*
X145624186Y-93817477D01*
X145624645Y-93818164D01*
X145687325Y-93880844D01*
X145761028Y-93930091D01*
X145842923Y-93964012D01*
X145929862Y-93981306D01*
X146018504Y-93981306D01*
X146105443Y-93964012D01*
X146187338Y-93930091D01*
X146261041Y-93880844D01*
X146323721Y-93818164D01*
X146324186Y-93817468D01*
X146324645Y-93818154D01*
X146324645Y-93818154D01*
G37*
X146324645Y-93818154D02*
X146387325Y-93880834D01*
X146461028Y-93930081D01*
X146489394Y-93941830D01*
X146152352Y-94278871D01*
X146112700Y-94266843D01*
X146044183Y-94260095D01*
X145784183Y-94260095D01*
X145715666Y-94266843D01*
X145649781Y-94286829D01*
X145594183Y-94316547D01*
X145574183Y-94305857D01*
X145574183Y-93867710D01*
X145623721Y-93818172D01*
X145624186Y-93817477D01*
X145624645Y-93818164D01*
X145687325Y-93880844D01*
X145761028Y-93930091D01*
X145842923Y-93964012D01*
X145929862Y-93981306D01*
X146018504Y-93981306D01*
X146105443Y-93964012D01*
X146187338Y-93930091D01*
X146261041Y-93880844D01*
X146323721Y-93818164D01*
X146324186Y-93817468D01*
X146324645Y-93818154D01*
G36*
X146699920Y-93081296D02*
G01*
X146629862Y-93081296D01*
X146549661Y-93097250D01*
X146975607Y-92671304D01*
X147109911Y-92671304D01*
X146699920Y-93081296D01*
X146699920Y-93081296D01*
G37*
X146699920Y-93081296D02*
X146629862Y-93081296D01*
X146549661Y-93097250D01*
X146975607Y-92671304D01*
X147109911Y-92671304D01*
X146699920Y-93081296D01*
G36*
X148823653Y-88904542D02*
G01*
X148925156Y-89425674D01*
X148892469Y-89443512D01*
X148879365Y-89452425D01*
X148866116Y-89461169D01*
X148864229Y-89462721D01*
X148804271Y-89512714D01*
X148793110Y-89524041D01*
X148781850Y-89535153D01*
X148780305Y-89537036D01*
X148780299Y-89537042D01*
X148780295Y-89537049D01*
X148731194Y-89597730D01*
X148722485Y-89610948D01*
X148713557Y-89624096D01*
X148712408Y-89626242D01*
X148712403Y-89626250D01*
X148712400Y-89626258D01*
X148676020Y-89695320D01*
X148670032Y-89710010D01*
X148663841Y-89724611D01*
X148663127Y-89726948D01*
X148640853Y-89801769D01*
X148637839Y-89817310D01*
X148637321Y-89819794D01*
X148634884Y-89818166D01*
X148552989Y-89784245D01*
X148466050Y-89766951D01*
X148395994Y-89766951D01*
X147959305Y-89330264D01*
X148017731Y-88886476D01*
X148019342Y-88837257D01*
X148012827Y-88797795D01*
X148823653Y-88904542D01*
X148823653Y-88904542D01*
G37*
X148823653Y-88904542D02*
X148925156Y-89425674D01*
X148892469Y-89443512D01*
X148879365Y-89452425D01*
X148866116Y-89461169D01*
X148864229Y-89462721D01*
X148804271Y-89512714D01*
X148793110Y-89524041D01*
X148781850Y-89535153D01*
X148780305Y-89537036D01*
X148780299Y-89537042D01*
X148780295Y-89537049D01*
X148731194Y-89597730D01*
X148722485Y-89610948D01*
X148713557Y-89624096D01*
X148712408Y-89626242D01*
X148712403Y-89626250D01*
X148712400Y-89626258D01*
X148676020Y-89695320D01*
X148670032Y-89710010D01*
X148663841Y-89724611D01*
X148663127Y-89726948D01*
X148640853Y-89801769D01*
X148637839Y-89817310D01*
X148637321Y-89819794D01*
X148634884Y-89818166D01*
X148552989Y-89784245D01*
X148466050Y-89766951D01*
X148395994Y-89766951D01*
X147959305Y-89330264D01*
X148017731Y-88886476D01*
X148019342Y-88837257D01*
X148012827Y-88797795D01*
X148823653Y-88904542D01*
G36*
X153208851Y-88560297D02*
G01*
X153192344Y-88596728D01*
X153181161Y-88644687D01*
X153050635Y-89636132D01*
X153049024Y-89685351D01*
X153057046Y-89733939D01*
X153074393Y-89780028D01*
X153100398Y-89821847D01*
X153134061Y-89857790D01*
X153174091Y-89886474D01*
X153218947Y-89906798D01*
X153266906Y-89917981D01*
X153516620Y-89950856D01*
X154038782Y-90473019D01*
X154048173Y-90484462D01*
X154059616Y-90493853D01*
X154093853Y-90521951D01*
X154145970Y-90549808D01*
X154159132Y-90553801D01*
X154202521Y-90566963D01*
X154231859Y-90569852D01*
X154230310Y-90571740D01*
X154207096Y-90615170D01*
X154192801Y-90662296D01*
X154187974Y-90711304D01*
X154187974Y-91231304D01*
X154192801Y-91280312D01*
X154207096Y-91327438D01*
X154230310Y-91370868D01*
X154261551Y-91408936D01*
X154299619Y-91440177D01*
X154343049Y-91463391D01*
X154390175Y-91477686D01*
X154439183Y-91482513D01*
X155239183Y-91482513D01*
X155288191Y-91477686D01*
X155335317Y-91463391D01*
X155378747Y-91440177D01*
X155416815Y-91408936D01*
X155448056Y-91370868D01*
X155471270Y-91327438D01*
X155485565Y-91280312D01*
X155490392Y-91231304D01*
X155490392Y-90711304D01*
X155485640Y-90663054D01*
X155552989Y-90649657D01*
X155634884Y-90615736D01*
X155708587Y-90566489D01*
X155771267Y-90503809D01*
X155820514Y-90430106D01*
X155843180Y-90375383D01*
X155867839Y-90395623D01*
X155881038Y-90404452D01*
X155894084Y-90413444D01*
X155896229Y-90414613D01*
X155965043Y-90451477D01*
X155979698Y-90457570D01*
X155994248Y-90463860D01*
X155996580Y-90464590D01*
X156071243Y-90487386D01*
X156086793Y-90490515D01*
X156102299Y-90493861D01*
X156104724Y-90494124D01*
X156104728Y-90494124D01*
X156133835Y-90497069D01*
X156324490Y-91475933D01*
X156288191Y-91464922D01*
X156239183Y-91460095D01*
X155389183Y-91460095D01*
X155340175Y-91464922D01*
X155293049Y-91479217D01*
X155249619Y-91502431D01*
X155211551Y-91533672D01*
X155180310Y-91571740D01*
X155157096Y-91615170D01*
X155142801Y-91662296D01*
X155137974Y-91711304D01*
X155137974Y-92011304D01*
X155142801Y-92060312D01*
X155146135Y-92071304D01*
X153866073Y-92071304D01*
X153851343Y-92069853D01*
X153836613Y-92071304D01*
X153836610Y-92071304D01*
X153792533Y-92075645D01*
X153735983Y-92092800D01*
X153683865Y-92120657D01*
X153649629Y-92148754D01*
X153638185Y-92158146D01*
X153628794Y-92169589D01*
X152772473Y-93025911D01*
X152761025Y-93035306D01*
X152740880Y-93059854D01*
X152723536Y-93080987D01*
X152714122Y-93098600D01*
X152695679Y-93133105D01*
X152678524Y-93189655D01*
X152678424Y-93190669D01*
X152624645Y-93244448D01*
X152624180Y-93245143D01*
X152623721Y-93244456D01*
X152561041Y-93181776D01*
X152487338Y-93132529D01*
X152405443Y-93098608D01*
X152318504Y-93081314D01*
X152229862Y-93081314D01*
X152142923Y-93098608D01*
X152061028Y-93132529D01*
X151987325Y-93181776D01*
X151924645Y-93244456D01*
X151875398Y-93318159D01*
X151841477Y-93400054D01*
X151824183Y-93486993D01*
X151824183Y-93575635D01*
X151841477Y-93662574D01*
X151875398Y-93744469D01*
X151924645Y-93818172D01*
X151974184Y-93867711D01*
X151974183Y-94305856D01*
X151949062Y-94319284D01*
X151895841Y-94362962D01*
X151852163Y-94416183D01*
X151819708Y-94476902D01*
X151799722Y-94542787D01*
X151792974Y-94611304D01*
X151792974Y-94811304D01*
X151799722Y-94879821D01*
X151819708Y-94945706D01*
X151838736Y-94981304D01*
X151793650Y-94981304D01*
X151611408Y-93815303D01*
X151610163Y-91429639D01*
X151840432Y-90567310D01*
X151841477Y-90572564D01*
X151875398Y-90654459D01*
X151924645Y-90728162D01*
X151987325Y-90790842D01*
X152061028Y-90840089D01*
X152142923Y-90874010D01*
X152229862Y-90891304D01*
X152318504Y-90891304D01*
X152405443Y-90874010D01*
X152487338Y-90840089D01*
X152561041Y-90790842D01*
X152623721Y-90728162D01*
X152672968Y-90654459D01*
X152706889Y-90572564D01*
X152724183Y-90485625D01*
X152724183Y-90396983D01*
X152706889Y-90310044D01*
X152672968Y-90228149D01*
X152623721Y-90154446D01*
X152561041Y-90091766D01*
X152487338Y-90042519D01*
X152405443Y-90008598D01*
X152318504Y-89991304D01*
X152229862Y-89991304D01*
X152142923Y-90008598D01*
X152061028Y-90042519D01*
X151987325Y-90091766D01*
X151960164Y-90118927D01*
X152006786Y-89944334D01*
X152043980Y-89942613D01*
X152059687Y-89940336D01*
X152075404Y-89938281D01*
X152077780Y-89937713D01*
X152153577Y-89919027D01*
X152168531Y-89913747D01*
X152183564Y-89908673D01*
X152185784Y-89907654D01*
X152256509Y-89874601D01*
X152270143Y-89866522D01*
X152283910Y-89858622D01*
X152285890Y-89857191D01*
X152348847Y-89811031D01*
X152360641Y-89800468D01*
X152372624Y-89790033D01*
X152374289Y-89788245D01*
X152427081Y-89730736D01*
X152436631Y-89718040D01*
X152446327Y-89705517D01*
X152447613Y-89703440D01*
X152488229Y-89636771D01*
X152495097Y-89622531D01*
X152502209Y-89608299D01*
X152503066Y-89606011D01*
X152529960Y-89532724D01*
X152533932Y-89517424D01*
X152538145Y-89502076D01*
X152538542Y-89499666D01*
X152550689Y-89422549D01*
X152551616Y-89406707D01*
X152552764Y-89390893D01*
X152552685Y-89388451D01*
X152549621Y-89310445D01*
X152547454Y-89294722D01*
X152545509Y-89278994D01*
X152544958Y-89276615D01*
X152526801Y-89200688D01*
X152521623Y-89185692D01*
X152516657Y-89170630D01*
X152515657Y-89168409D01*
X152515655Y-89168404D01*
X152515652Y-89168400D01*
X152483096Y-89097450D01*
X152475124Y-89083779D01*
X152467308Y-89069936D01*
X152465891Y-89067946D01*
X152420170Y-89004668D01*
X152409684Y-88992794D01*
X152399338Y-88980744D01*
X152397561Y-88979067D01*
X152340421Y-88925875D01*
X152327842Y-88916275D01*
X152315341Y-88906455D01*
X152313272Y-88905155D01*
X152288391Y-88889757D01*
X152404639Y-88454421D01*
X153208851Y-88560297D01*
X153208851Y-88560297D01*
G37*
X153208851Y-88560297D02*
X153192344Y-88596728D01*
X153181161Y-88644687D01*
X153050635Y-89636132D01*
X153049024Y-89685351D01*
X153057046Y-89733939D01*
X153074393Y-89780028D01*
X153100398Y-89821847D01*
X153134061Y-89857790D01*
X153174091Y-89886474D01*
X153218947Y-89906798D01*
X153266906Y-89917981D01*
X153516620Y-89950856D01*
X154038782Y-90473019D01*
X154048173Y-90484462D01*
X154059616Y-90493853D01*
X154093853Y-90521951D01*
X154145970Y-90549808D01*
X154159132Y-90553801D01*
X154202521Y-90566963D01*
X154231859Y-90569852D01*
X154230310Y-90571740D01*
X154207096Y-90615170D01*
X154192801Y-90662296D01*
X154187974Y-90711304D01*
X154187974Y-91231304D01*
X154192801Y-91280312D01*
X154207096Y-91327438D01*
X154230310Y-91370868D01*
X154261551Y-91408936D01*
X154299619Y-91440177D01*
X154343049Y-91463391D01*
X154390175Y-91477686D01*
X154439183Y-91482513D01*
X155239183Y-91482513D01*
X155288191Y-91477686D01*
X155335317Y-91463391D01*
X155378747Y-91440177D01*
X155416815Y-91408936D01*
X155448056Y-91370868D01*
X155471270Y-91327438D01*
X155485565Y-91280312D01*
X155490392Y-91231304D01*
X155490392Y-90711304D01*
X155485640Y-90663054D01*
X155552989Y-90649657D01*
X155634884Y-90615736D01*
X155708587Y-90566489D01*
X155771267Y-90503809D01*
X155820514Y-90430106D01*
X155843180Y-90375383D01*
X155867839Y-90395623D01*
X155881038Y-90404452D01*
X155894084Y-90413444D01*
X155896229Y-90414613D01*
X155965043Y-90451477D01*
X155979698Y-90457570D01*
X155994248Y-90463860D01*
X155996580Y-90464590D01*
X156071243Y-90487386D01*
X156086793Y-90490515D01*
X156102299Y-90493861D01*
X156104724Y-90494124D01*
X156104728Y-90494124D01*
X156133835Y-90497069D01*
X156324490Y-91475933D01*
X156288191Y-91464922D01*
X156239183Y-91460095D01*
X155389183Y-91460095D01*
X155340175Y-91464922D01*
X155293049Y-91479217D01*
X155249619Y-91502431D01*
X155211551Y-91533672D01*
X155180310Y-91571740D01*
X155157096Y-91615170D01*
X155142801Y-91662296D01*
X155137974Y-91711304D01*
X155137974Y-92011304D01*
X155142801Y-92060312D01*
X155146135Y-92071304D01*
X153866073Y-92071304D01*
X153851343Y-92069853D01*
X153836613Y-92071304D01*
X153836610Y-92071304D01*
X153792533Y-92075645D01*
X153735983Y-92092800D01*
X153683865Y-92120657D01*
X153649629Y-92148754D01*
X153638185Y-92158146D01*
X153628794Y-92169589D01*
X152772473Y-93025911D01*
X152761025Y-93035306D01*
X152740880Y-93059854D01*
X152723536Y-93080987D01*
X152714122Y-93098600D01*
X152695679Y-93133105D01*
X152678524Y-93189655D01*
X152678424Y-93190669D01*
X152624645Y-93244448D01*
X152624180Y-93245143D01*
X152623721Y-93244456D01*
X152561041Y-93181776D01*
X152487338Y-93132529D01*
X152405443Y-93098608D01*
X152318504Y-93081314D01*
X152229862Y-93081314D01*
X152142923Y-93098608D01*
X152061028Y-93132529D01*
X151987325Y-93181776D01*
X151924645Y-93244456D01*
X151875398Y-93318159D01*
X151841477Y-93400054D01*
X151824183Y-93486993D01*
X151824183Y-93575635D01*
X151841477Y-93662574D01*
X151875398Y-93744469D01*
X151924645Y-93818172D01*
X151974184Y-93867711D01*
X151974183Y-94305856D01*
X151949062Y-94319284D01*
X151895841Y-94362962D01*
X151852163Y-94416183D01*
X151819708Y-94476902D01*
X151799722Y-94542787D01*
X151792974Y-94611304D01*
X151792974Y-94811304D01*
X151799722Y-94879821D01*
X151819708Y-94945706D01*
X151838736Y-94981304D01*
X151793650Y-94981304D01*
X151611408Y-93815303D01*
X151610163Y-91429639D01*
X151840432Y-90567310D01*
X151841477Y-90572564D01*
X151875398Y-90654459D01*
X151924645Y-90728162D01*
X151987325Y-90790842D01*
X152061028Y-90840089D01*
X152142923Y-90874010D01*
X152229862Y-90891304D01*
X152318504Y-90891304D01*
X152405443Y-90874010D01*
X152487338Y-90840089D01*
X152561041Y-90790842D01*
X152623721Y-90728162D01*
X152672968Y-90654459D01*
X152706889Y-90572564D01*
X152724183Y-90485625D01*
X152724183Y-90396983D01*
X152706889Y-90310044D01*
X152672968Y-90228149D01*
X152623721Y-90154446D01*
X152561041Y-90091766D01*
X152487338Y-90042519D01*
X152405443Y-90008598D01*
X152318504Y-89991304D01*
X152229862Y-89991304D01*
X152142923Y-90008598D01*
X152061028Y-90042519D01*
X151987325Y-90091766D01*
X151960164Y-90118927D01*
X152006786Y-89944334D01*
X152043980Y-89942613D01*
X152059687Y-89940336D01*
X152075404Y-89938281D01*
X152077780Y-89937713D01*
X152153577Y-89919027D01*
X152168531Y-89913747D01*
X152183564Y-89908673D01*
X152185784Y-89907654D01*
X152256509Y-89874601D01*
X152270143Y-89866522D01*
X152283910Y-89858622D01*
X152285890Y-89857191D01*
X152348847Y-89811031D01*
X152360641Y-89800468D01*
X152372624Y-89790033D01*
X152374289Y-89788245D01*
X152427081Y-89730736D01*
X152436631Y-89718040D01*
X152446327Y-89705517D01*
X152447613Y-89703440D01*
X152488229Y-89636771D01*
X152495097Y-89622531D01*
X152502209Y-89608299D01*
X152503066Y-89606011D01*
X152529960Y-89532724D01*
X152533932Y-89517424D01*
X152538145Y-89502076D01*
X152538542Y-89499666D01*
X152550689Y-89422549D01*
X152551616Y-89406707D01*
X152552764Y-89390893D01*
X152552685Y-89388451D01*
X152549621Y-89310445D01*
X152547454Y-89294722D01*
X152545509Y-89278994D01*
X152544958Y-89276615D01*
X152526801Y-89200688D01*
X152521623Y-89185692D01*
X152516657Y-89170630D01*
X152515657Y-89168409D01*
X152515655Y-89168404D01*
X152515652Y-89168400D01*
X152483096Y-89097450D01*
X152475124Y-89083779D01*
X152467308Y-89069936D01*
X152465891Y-89067946D01*
X152420170Y-89004668D01*
X152409684Y-88992794D01*
X152399338Y-88980744D01*
X152397561Y-88979067D01*
X152340421Y-88925875D01*
X152327842Y-88916275D01*
X152315341Y-88906455D01*
X152313272Y-88905155D01*
X152288391Y-88889757D01*
X152404639Y-88454421D01*
X153208851Y-88560297D01*
G36*
X156608086Y-92931975D02*
G01*
X156609157Y-94981304D01*
X153349630Y-94981304D01*
X153368658Y-94945706D01*
X153383730Y-94896020D01*
X154187974Y-94091777D01*
X154187974Y-94511304D01*
X154192801Y-94560312D01*
X154207096Y-94607438D01*
X154230310Y-94650868D01*
X154261551Y-94688936D01*
X154299619Y-94720177D01*
X154343049Y-94743391D01*
X154390175Y-94757686D01*
X154439183Y-94762513D01*
X155239183Y-94762513D01*
X155288191Y-94757686D01*
X155335317Y-94743391D01*
X155378747Y-94720177D01*
X155416815Y-94688936D01*
X155448056Y-94650868D01*
X155470198Y-94609444D01*
X155531028Y-94650089D01*
X155612923Y-94684010D01*
X155699862Y-94701304D01*
X155788504Y-94701304D01*
X155875443Y-94684010D01*
X155957338Y-94650089D01*
X156031041Y-94600842D01*
X156093721Y-94538162D01*
X156142968Y-94464459D01*
X156176889Y-94382564D01*
X156194183Y-94295625D01*
X156194183Y-94206983D01*
X156176889Y-94120044D01*
X156142968Y-94038149D01*
X156093721Y-93964446D01*
X156031041Y-93901766D01*
X155957338Y-93852519D01*
X155875443Y-93818598D01*
X155788504Y-93801304D01*
X155699862Y-93801304D01*
X155612923Y-93818598D01*
X155531028Y-93852519D01*
X155470198Y-93893164D01*
X155448056Y-93851740D01*
X155416815Y-93813672D01*
X155378747Y-93782431D01*
X155335317Y-93759217D01*
X155288191Y-93744922D01*
X155239183Y-93740095D01*
X154539656Y-93740095D01*
X154618447Y-93661304D01*
X155188874Y-93661304D01*
X155211551Y-93688936D01*
X155249619Y-93720177D01*
X155293049Y-93743391D01*
X155340175Y-93757686D01*
X155389183Y-93762513D01*
X156239183Y-93762513D01*
X156288191Y-93757686D01*
X156335317Y-93743391D01*
X156378747Y-93720177D01*
X156416815Y-93688936D01*
X156448056Y-93650868D01*
X156471270Y-93607438D01*
X156485565Y-93560312D01*
X156490392Y-93511304D01*
X156490392Y-93211304D01*
X156485565Y-93162296D01*
X156471270Y-93115170D01*
X156469204Y-93111304D01*
X156471270Y-93107438D01*
X156485565Y-93060312D01*
X156490392Y-93011304D01*
X156490392Y-92711304D01*
X156485565Y-92662296D01*
X156471270Y-92615170D01*
X156469204Y-92611304D01*
X156471270Y-92607438D01*
X156485565Y-92560312D01*
X156490392Y-92511304D01*
X156490392Y-92327708D01*
X156608086Y-92931975D01*
X156608086Y-92931975D01*
G37*
X156608086Y-92931975D02*
X156609157Y-94981304D01*
X153349630Y-94981304D01*
X153368658Y-94945706D01*
X153383730Y-94896020D01*
X154187974Y-94091777D01*
X154187974Y-94511304D01*
X154192801Y-94560312D01*
X154207096Y-94607438D01*
X154230310Y-94650868D01*
X154261551Y-94688936D01*
X154299619Y-94720177D01*
X154343049Y-94743391D01*
X154390175Y-94757686D01*
X154439183Y-94762513D01*
X155239183Y-94762513D01*
X155288191Y-94757686D01*
X155335317Y-94743391D01*
X155378747Y-94720177D01*
X155416815Y-94688936D01*
X155448056Y-94650868D01*
X155470198Y-94609444D01*
X155531028Y-94650089D01*
X155612923Y-94684010D01*
X155699862Y-94701304D01*
X155788504Y-94701304D01*
X155875443Y-94684010D01*
X155957338Y-94650089D01*
X156031041Y-94600842D01*
X156093721Y-94538162D01*
X156142968Y-94464459D01*
X156176889Y-94382564D01*
X156194183Y-94295625D01*
X156194183Y-94206983D01*
X156176889Y-94120044D01*
X156142968Y-94038149D01*
X156093721Y-93964446D01*
X156031041Y-93901766D01*
X155957338Y-93852519D01*
X155875443Y-93818598D01*
X155788504Y-93801304D01*
X155699862Y-93801304D01*
X155612923Y-93818598D01*
X155531028Y-93852519D01*
X155470198Y-93893164D01*
X155448056Y-93851740D01*
X155416815Y-93813672D01*
X155378747Y-93782431D01*
X155335317Y-93759217D01*
X155288191Y-93744922D01*
X155239183Y-93740095D01*
X154539656Y-93740095D01*
X154618447Y-93661304D01*
X155188874Y-93661304D01*
X155211551Y-93688936D01*
X155249619Y-93720177D01*
X155293049Y-93743391D01*
X155340175Y-93757686D01*
X155389183Y-93762513D01*
X156239183Y-93762513D01*
X156288191Y-93757686D01*
X156335317Y-93743391D01*
X156378747Y-93720177D01*
X156416815Y-93688936D01*
X156448056Y-93650868D01*
X156471270Y-93607438D01*
X156485565Y-93560312D01*
X156490392Y-93511304D01*
X156490392Y-93211304D01*
X156485565Y-93162296D01*
X156471270Y-93115170D01*
X156469204Y-93111304D01*
X156471270Y-93107438D01*
X156485565Y-93060312D01*
X156490392Y-93011304D01*
X156490392Y-92711304D01*
X156485565Y-92662296D01*
X156471270Y-92615170D01*
X156469204Y-92611304D01*
X156471270Y-92607438D01*
X156485565Y-92560312D01*
X156490392Y-92511304D01*
X156490392Y-92327708D01*
X156608086Y-92931975D01*
G36*
X153324645Y-93818154D02*
G01*
X153387325Y-93880834D01*
X153461028Y-93930081D01*
X153489394Y-93941830D01*
X153152352Y-94278871D01*
X153112700Y-94266843D01*
X153044183Y-94260095D01*
X152784183Y-94260095D01*
X152715666Y-94266843D01*
X152649781Y-94286829D01*
X152594183Y-94316547D01*
X152574183Y-94305857D01*
X152574183Y-93867710D01*
X152623721Y-93818172D01*
X152624186Y-93817477D01*
X152624645Y-93818164D01*
X152687325Y-93880844D01*
X152761028Y-93930091D01*
X152842923Y-93964012D01*
X152929862Y-93981306D01*
X153018504Y-93981306D01*
X153105443Y-93964012D01*
X153187338Y-93930091D01*
X153261041Y-93880844D01*
X153323721Y-93818164D01*
X153324186Y-93817468D01*
X153324645Y-93818154D01*
X153324645Y-93818154D01*
G37*
X153324645Y-93818154D02*
X153387325Y-93880834D01*
X153461028Y-93930081D01*
X153489394Y-93941830D01*
X153152352Y-94278871D01*
X153112700Y-94266843D01*
X153044183Y-94260095D01*
X152784183Y-94260095D01*
X152715666Y-94266843D01*
X152649781Y-94286829D01*
X152594183Y-94316547D01*
X152574183Y-94305857D01*
X152574183Y-93867710D01*
X152623721Y-93818172D01*
X152624186Y-93817477D01*
X152624645Y-93818164D01*
X152687325Y-93880844D01*
X152761028Y-93930091D01*
X152842923Y-93964012D01*
X152929862Y-93981306D01*
X153018504Y-93981306D01*
X153105443Y-93964012D01*
X153187338Y-93930091D01*
X153261041Y-93880844D01*
X153323721Y-93818164D01*
X153324186Y-93817468D01*
X153324645Y-93818154D01*
G36*
X153699920Y-93081296D02*
G01*
X153629862Y-93081296D01*
X153549661Y-93097250D01*
X153975607Y-92671304D01*
X154109911Y-92671304D01*
X153699920Y-93081296D01*
X153699920Y-93081296D01*
G37*
X153699920Y-93081296D02*
X153629862Y-93081296D01*
X153549661Y-93097250D01*
X153975607Y-92671304D01*
X154109911Y-92671304D01*
X153699920Y-93081296D01*
G36*
X155823653Y-88904542D02*
G01*
X155925156Y-89425674D01*
X155892469Y-89443512D01*
X155879365Y-89452425D01*
X155866116Y-89461169D01*
X155864229Y-89462721D01*
X155804271Y-89512714D01*
X155793110Y-89524041D01*
X155781850Y-89535153D01*
X155780305Y-89537036D01*
X155780299Y-89537042D01*
X155780295Y-89537049D01*
X155731194Y-89597730D01*
X155722485Y-89610948D01*
X155713557Y-89624096D01*
X155712408Y-89626242D01*
X155712403Y-89626250D01*
X155712400Y-89626258D01*
X155676020Y-89695320D01*
X155670032Y-89710010D01*
X155663841Y-89724611D01*
X155663127Y-89726948D01*
X155640853Y-89801769D01*
X155637839Y-89817310D01*
X155637321Y-89819794D01*
X155634884Y-89818166D01*
X155552989Y-89784245D01*
X155466050Y-89766951D01*
X155395994Y-89766951D01*
X154959305Y-89330264D01*
X155017731Y-88886476D01*
X155019342Y-88837257D01*
X155012827Y-88797795D01*
X155823653Y-88904542D01*
X155823653Y-88904542D01*
G37*
X155823653Y-88904542D02*
X155925156Y-89425674D01*
X155892469Y-89443512D01*
X155879365Y-89452425D01*
X155866116Y-89461169D01*
X155864229Y-89462721D01*
X155804271Y-89512714D01*
X155793110Y-89524041D01*
X155781850Y-89535153D01*
X155780305Y-89537036D01*
X155780299Y-89537042D01*
X155780295Y-89537049D01*
X155731194Y-89597730D01*
X155722485Y-89610948D01*
X155713557Y-89624096D01*
X155712408Y-89626242D01*
X155712403Y-89626250D01*
X155712400Y-89626258D01*
X155676020Y-89695320D01*
X155670032Y-89710010D01*
X155663841Y-89724611D01*
X155663127Y-89726948D01*
X155640853Y-89801769D01*
X155637839Y-89817310D01*
X155637321Y-89819794D01*
X155634884Y-89818166D01*
X155552989Y-89784245D01*
X155466050Y-89766951D01*
X155395994Y-89766951D01*
X154959305Y-89330264D01*
X155017731Y-88886476D01*
X155019342Y-88837257D01*
X155012827Y-88797795D01*
X155823653Y-88904542D01*
M02*
