G04 #@! TF.GenerationSoftware,KiCad,Pcbnew,(5.1.4-0-10_14)*
G04 #@! TF.CreationDate,2019-09-19T16:43:00-04:00*
G04 #@! TF.ProjectId,Tympan_BTE_RIGID_Array,54796d70-616e-45f4-9254-455f52494749,V1*
G04 #@! TF.SameCoordinates,Original*
G04 #@! TF.FileFunction,Legend,Bot*
G04 #@! TF.FilePolarity,Positive*
%FSLAX46Y46*%
G04 Gerber Fmt 4.6, Leading zero omitted, Abs format (unit mm)*
G04 Created by KiCad (PCBNEW (5.1.4-0-10_14)) date 2019-09-19 16:43:00*
%MOMM*%
%LPD*%
G04 APERTURE LIST*
%ADD10C,0.120000*%
%ADD11C,0.100000*%
G04 APERTURE END LIST*
D10*
X154314183Y-90861304D02*
X152814183Y-90861304D01*
X154314183Y-94361304D02*
X152814183Y-94361304D01*
X152814183Y-90861304D02*
X152814183Y-94361304D01*
X147314183Y-90861304D02*
X145814183Y-90861304D01*
X147314183Y-94361304D02*
X145814183Y-94361304D01*
X145814183Y-90861304D02*
X145814183Y-94361304D01*
X140314183Y-90861304D02*
X138814183Y-90861304D01*
X140314183Y-94361304D02*
X138814183Y-94361304D01*
X138814183Y-90861304D02*
X138814183Y-94361304D01*
X133314183Y-90861304D02*
X131814183Y-90861304D01*
X133314183Y-94361304D02*
X131814183Y-94361304D01*
X131814183Y-90861304D02*
X131814183Y-94361304D01*
X124814183Y-90861304D02*
X124814183Y-94361304D01*
X126314183Y-94361304D02*
X124814183Y-94361304D01*
X126314183Y-90861304D02*
X124814183Y-90861304D01*
D11*
X155620373Y-90814637D02*
X155977516Y-90814637D01*
X156048944Y-90790827D01*
X156096563Y-90743208D01*
X156120373Y-90671780D01*
X156120373Y-90624161D01*
X155667992Y-91028923D02*
X155644183Y-91052732D01*
X155620373Y-91100351D01*
X155620373Y-91219399D01*
X155644183Y-91267018D01*
X155667992Y-91290827D01*
X155715611Y-91314637D01*
X155763230Y-91314637D01*
X155834659Y-91290827D01*
X156120373Y-91005113D01*
X156120373Y-91314637D01*
X153847516Y-94947494D02*
X154014183Y-94709399D01*
X154133230Y-94947494D02*
X154133230Y-94447494D01*
X153942754Y-94447494D01*
X153895135Y-94471304D01*
X153871325Y-94495113D01*
X153847516Y-94542732D01*
X153847516Y-94614161D01*
X153871325Y-94661780D01*
X153895135Y-94685589D01*
X153942754Y-94709399D01*
X154133230Y-94709399D01*
X153371325Y-94947494D02*
X153657040Y-94947494D01*
X153514183Y-94947494D02*
X153514183Y-94447494D01*
X153561802Y-94518923D01*
X153609421Y-94566542D01*
X153657040Y-94590351D01*
X148620373Y-90814637D02*
X148977516Y-90814637D01*
X149048944Y-90790827D01*
X149096563Y-90743208D01*
X149120373Y-90671780D01*
X149120373Y-90624161D01*
X148667992Y-91028923D02*
X148644183Y-91052732D01*
X148620373Y-91100351D01*
X148620373Y-91219399D01*
X148644183Y-91267018D01*
X148667992Y-91290827D01*
X148715611Y-91314637D01*
X148763230Y-91314637D01*
X148834659Y-91290827D01*
X149120373Y-91005113D01*
X149120373Y-91314637D01*
X146847516Y-94947494D02*
X147014183Y-94709399D01*
X147133230Y-94947494D02*
X147133230Y-94447494D01*
X146942754Y-94447494D01*
X146895135Y-94471304D01*
X146871325Y-94495113D01*
X146847516Y-94542732D01*
X146847516Y-94614161D01*
X146871325Y-94661780D01*
X146895135Y-94685589D01*
X146942754Y-94709399D01*
X147133230Y-94709399D01*
X146371325Y-94947494D02*
X146657040Y-94947494D01*
X146514183Y-94947494D02*
X146514183Y-94447494D01*
X146561802Y-94518923D01*
X146609421Y-94566542D01*
X146657040Y-94590351D01*
X141620373Y-90814637D02*
X141977516Y-90814637D01*
X142048944Y-90790827D01*
X142096563Y-90743208D01*
X142120373Y-90671780D01*
X142120373Y-90624161D01*
X141667992Y-91028923D02*
X141644183Y-91052732D01*
X141620373Y-91100351D01*
X141620373Y-91219399D01*
X141644183Y-91267018D01*
X141667992Y-91290827D01*
X141715611Y-91314637D01*
X141763230Y-91314637D01*
X141834659Y-91290827D01*
X142120373Y-91005113D01*
X142120373Y-91314637D01*
X139847516Y-94947494D02*
X140014183Y-94709399D01*
X140133230Y-94947494D02*
X140133230Y-94447494D01*
X139942754Y-94447494D01*
X139895135Y-94471304D01*
X139871325Y-94495113D01*
X139847516Y-94542732D01*
X139847516Y-94614161D01*
X139871325Y-94661780D01*
X139895135Y-94685589D01*
X139942754Y-94709399D01*
X140133230Y-94709399D01*
X139371325Y-94947494D02*
X139657040Y-94947494D01*
X139514183Y-94947494D02*
X139514183Y-94447494D01*
X139561802Y-94518923D01*
X139609421Y-94566542D01*
X139657040Y-94590351D01*
X134620373Y-90814637D02*
X134977516Y-90814637D01*
X135048944Y-90790827D01*
X135096563Y-90743208D01*
X135120373Y-90671780D01*
X135120373Y-90624161D01*
X134667992Y-91028923D02*
X134644183Y-91052732D01*
X134620373Y-91100351D01*
X134620373Y-91219399D01*
X134644183Y-91267018D01*
X134667992Y-91290827D01*
X134715611Y-91314637D01*
X134763230Y-91314637D01*
X134834659Y-91290827D01*
X135120373Y-91005113D01*
X135120373Y-91314637D01*
X132847516Y-94947494D02*
X133014183Y-94709399D01*
X133133230Y-94947494D02*
X133133230Y-94447494D01*
X132942754Y-94447494D01*
X132895135Y-94471304D01*
X132871325Y-94495113D01*
X132847516Y-94542732D01*
X132847516Y-94614161D01*
X132871325Y-94661780D01*
X132895135Y-94685589D01*
X132942754Y-94709399D01*
X133133230Y-94709399D01*
X132371325Y-94947494D02*
X132657040Y-94947494D01*
X132514183Y-94947494D02*
X132514183Y-94447494D01*
X132561802Y-94518923D01*
X132609421Y-94566542D01*
X132657040Y-94590351D01*
X127620373Y-90814637D02*
X127977516Y-90814637D01*
X128048944Y-90790827D01*
X128096563Y-90743208D01*
X128120373Y-90671780D01*
X128120373Y-90624161D01*
X127667992Y-91028923D02*
X127644183Y-91052732D01*
X127620373Y-91100351D01*
X127620373Y-91219399D01*
X127644183Y-91267018D01*
X127667992Y-91290827D01*
X127715611Y-91314637D01*
X127763230Y-91314637D01*
X127834659Y-91290827D01*
X128120373Y-91005113D01*
X128120373Y-91314637D01*
X125847516Y-94947494D02*
X126014183Y-94709399D01*
X126133230Y-94947494D02*
X126133230Y-94447494D01*
X125942754Y-94447494D01*
X125895135Y-94471304D01*
X125871325Y-94495113D01*
X125847516Y-94542732D01*
X125847516Y-94614161D01*
X125871325Y-94661780D01*
X125895135Y-94685589D01*
X125942754Y-94709399D01*
X126133230Y-94709399D01*
X125371325Y-94947494D02*
X125657040Y-94947494D01*
X125514183Y-94947494D02*
X125514183Y-94447494D01*
X125561802Y-94518923D01*
X125609421Y-94566542D01*
X125657040Y-94590351D01*
M02*
