G04 #@! TF.GenerationSoftware,KiCad,Pcbnew,(5.1.4-0-10_14)*
G04 #@! TF.CreationDate,2019-09-19T16:43:00-04:00*
G04 #@! TF.ProjectId,Tympan_BTE_RIGID_Array,54796d70-616e-45f4-9254-455f52494749,V1*
G04 #@! TF.SameCoordinates,Original*
G04 #@! TF.FileFunction,Legend,Top*
G04 #@! TF.FilePolarity,Positive*
%FSLAX46Y46*%
G04 Gerber Fmt 4.6, Leading zero omitted, Abs format (unit mm)*
G04 Created by KiCad (PCBNEW (5.1.4-0-10_14)) date 2019-09-19 16:43:00*
%MOMM*%
%LPD*%
G04 APERTURE LIST*
%ADD10C,0.150000*%
%ADD11C,0.100000*%
G04 APERTURE END LIST*
D10*
X127760373Y-98483684D02*
X128331802Y-98483684D01*
X128046087Y-99483684D02*
X128046087Y-98483684D01*
X128665135Y-99483684D02*
X128665135Y-98483684D01*
X129093706Y-99483684D02*
X129093706Y-98959875D01*
X129046087Y-98864637D01*
X128950849Y-98817018D01*
X128807992Y-98817018D01*
X128712754Y-98864637D01*
X128665135Y-98912256D01*
X129569897Y-99483684D02*
X129569897Y-98817018D01*
X129569897Y-98483684D02*
X129522278Y-98531304D01*
X129569897Y-98578923D01*
X129617516Y-98531304D01*
X129569897Y-98483684D01*
X129569897Y-98578923D01*
X130474659Y-99436065D02*
X130379421Y-99483684D01*
X130188944Y-99483684D01*
X130093706Y-99436065D01*
X130046087Y-99388446D01*
X129998468Y-99293208D01*
X129998468Y-99007494D01*
X130046087Y-98912256D01*
X130093706Y-98864637D01*
X130188944Y-98817018D01*
X130379421Y-98817018D01*
X130474659Y-98864637D01*
X130903230Y-99483684D02*
X130903230Y-98483684D01*
X130998468Y-99102732D02*
X131284183Y-99483684D01*
X131284183Y-98817018D02*
X130903230Y-99197970D01*
X131712754Y-98817018D02*
X131712754Y-99483684D01*
X131712754Y-98912256D02*
X131760373Y-98864637D01*
X131855611Y-98817018D01*
X131998468Y-98817018D01*
X132093706Y-98864637D01*
X132141325Y-98959875D01*
X132141325Y-99483684D01*
X132998468Y-99436065D02*
X132903230Y-99483684D01*
X132712754Y-99483684D01*
X132617516Y-99436065D01*
X132569897Y-99340827D01*
X132569897Y-98959875D01*
X132617516Y-98864637D01*
X132712754Y-98817018D01*
X132903230Y-98817018D01*
X132998468Y-98864637D01*
X133046087Y-98959875D01*
X133046087Y-99055113D01*
X132569897Y-99150351D01*
X133427040Y-99436065D02*
X133522278Y-99483684D01*
X133712754Y-99483684D01*
X133807992Y-99436065D01*
X133855611Y-99340827D01*
X133855611Y-99293208D01*
X133807992Y-99197970D01*
X133712754Y-99150351D01*
X133569897Y-99150351D01*
X133474659Y-99102732D01*
X133427040Y-99007494D01*
X133427040Y-98959875D01*
X133474659Y-98864637D01*
X133569897Y-98817018D01*
X133712754Y-98817018D01*
X133807992Y-98864637D01*
X134236563Y-99436065D02*
X134331802Y-99483684D01*
X134522278Y-99483684D01*
X134617516Y-99436065D01*
X134665135Y-99340827D01*
X134665135Y-99293208D01*
X134617516Y-99197970D01*
X134522278Y-99150351D01*
X134379421Y-99150351D01*
X134284183Y-99102732D01*
X134236563Y-99007494D01*
X134236563Y-98959875D01*
X134284183Y-98864637D01*
X134379421Y-98817018D01*
X134522278Y-98817018D01*
X134617516Y-98864637D01*
X135855611Y-98817018D02*
X135855611Y-99483684D01*
X135855611Y-98912256D02*
X135903230Y-98864637D01*
X135998468Y-98817018D01*
X136141325Y-98817018D01*
X136236563Y-98864637D01*
X136284183Y-98959875D01*
X136284183Y-99483684D01*
X136903230Y-99483684D02*
X136807992Y-99436065D01*
X136760373Y-99388446D01*
X136712754Y-99293208D01*
X136712754Y-99007494D01*
X136760373Y-98912256D01*
X136807992Y-98864637D01*
X136903230Y-98817018D01*
X137046087Y-98817018D01*
X137141325Y-98864637D01*
X137188944Y-98912256D01*
X137236563Y-99007494D01*
X137236563Y-99293208D01*
X137188944Y-99388446D01*
X137141325Y-99436065D01*
X137046087Y-99483684D01*
X136903230Y-99483684D01*
X137522278Y-98817018D02*
X137903230Y-98817018D01*
X137665135Y-98483684D02*
X137665135Y-99340827D01*
X137712754Y-99436065D01*
X137807992Y-99483684D01*
X137903230Y-99483684D01*
X138855611Y-98817018D02*
X139236563Y-98817018D01*
X138998468Y-98483684D02*
X138998468Y-99340827D01*
X139046087Y-99436065D01*
X139141325Y-99483684D01*
X139236563Y-99483684D01*
X139712754Y-99483684D02*
X139617516Y-99436065D01*
X139569897Y-99388446D01*
X139522278Y-99293208D01*
X139522278Y-99007494D01*
X139569897Y-98912256D01*
X139617516Y-98864637D01*
X139712754Y-98817018D01*
X139855611Y-98817018D01*
X139950849Y-98864637D01*
X139998468Y-98912256D01*
X140046087Y-99007494D01*
X140046087Y-99293208D01*
X139998468Y-99388446D01*
X139950849Y-99436065D01*
X139855611Y-99483684D01*
X139712754Y-99483684D01*
X141617516Y-99436065D02*
X141522278Y-99483684D01*
X141331802Y-99483684D01*
X141236563Y-99436065D01*
X141188944Y-99340827D01*
X141188944Y-98959875D01*
X141236563Y-98864637D01*
X141331802Y-98817018D01*
X141522278Y-98817018D01*
X141617516Y-98864637D01*
X141665135Y-98959875D01*
X141665135Y-99055113D01*
X141188944Y-99150351D01*
X141998468Y-99483684D02*
X142522278Y-98817018D01*
X141998468Y-98817018D02*
X142522278Y-99483684D01*
X143331802Y-99436065D02*
X143236563Y-99483684D01*
X143046087Y-99483684D01*
X142950849Y-99436065D01*
X142903230Y-99388446D01*
X142855611Y-99293208D01*
X142855611Y-99007494D01*
X142903230Y-98912256D01*
X142950849Y-98864637D01*
X143046087Y-98817018D01*
X143236563Y-98817018D01*
X143331802Y-98864637D01*
X144141325Y-99436065D02*
X144046087Y-99483684D01*
X143855611Y-99483684D01*
X143760373Y-99436065D01*
X143712754Y-99340827D01*
X143712754Y-98959875D01*
X143760373Y-98864637D01*
X143855611Y-98817018D01*
X144046087Y-98817018D01*
X144141325Y-98864637D01*
X144188944Y-98959875D01*
X144188944Y-99055113D01*
X143712754Y-99150351D01*
X144998468Y-99436065D02*
X144903230Y-99483684D01*
X144712754Y-99483684D01*
X144617516Y-99436065D01*
X144569897Y-99340827D01*
X144569897Y-98959875D01*
X144617516Y-98864637D01*
X144712754Y-98817018D01*
X144903230Y-98817018D01*
X144998468Y-98864637D01*
X145046087Y-98959875D01*
X145046087Y-99055113D01*
X144569897Y-99150351D01*
X145903230Y-99483684D02*
X145903230Y-98483684D01*
X145903230Y-99436065D02*
X145807992Y-99483684D01*
X145617516Y-99483684D01*
X145522278Y-99436065D01*
X145474659Y-99388446D01*
X145427040Y-99293208D01*
X145427040Y-99007494D01*
X145474659Y-98912256D01*
X145522278Y-98864637D01*
X145617516Y-98817018D01*
X145807992Y-98817018D01*
X145903230Y-98864637D01*
X147331802Y-98483684D02*
X147427040Y-98483684D01*
X147522278Y-98531304D01*
X147569897Y-98578923D01*
X147617516Y-98674161D01*
X147665135Y-98864637D01*
X147665135Y-99102732D01*
X147617516Y-99293208D01*
X147569897Y-99388446D01*
X147522278Y-99436065D01*
X147427040Y-99483684D01*
X147331802Y-99483684D01*
X147236563Y-99436065D01*
X147188944Y-99388446D01*
X147141325Y-99293208D01*
X147093706Y-99102732D01*
X147093706Y-98864637D01*
X147141325Y-98674161D01*
X147188944Y-98578923D01*
X147236563Y-98531304D01*
X147331802Y-98483684D01*
X148093706Y-99388446D02*
X148141325Y-99436065D01*
X148093706Y-99483684D01*
X148046087Y-99436065D01*
X148093706Y-99388446D01*
X148093706Y-99483684D01*
X148998468Y-98483684D02*
X148807992Y-98483684D01*
X148712754Y-98531304D01*
X148665135Y-98578923D01*
X148569897Y-98721780D01*
X148522278Y-98912256D01*
X148522278Y-99293208D01*
X148569897Y-99388446D01*
X148617516Y-99436065D01*
X148712754Y-99483684D01*
X148903230Y-99483684D01*
X148998468Y-99436065D01*
X149046087Y-99388446D01*
X149093706Y-99293208D01*
X149093706Y-99055113D01*
X149046087Y-98959875D01*
X148998468Y-98912256D01*
X148903230Y-98864637D01*
X148712754Y-98864637D01*
X148617516Y-98912256D01*
X148569897Y-98959875D01*
X148522278Y-99055113D01*
X149998468Y-98483684D02*
X149522278Y-98483684D01*
X149474659Y-98959875D01*
X149522278Y-98912256D01*
X149617516Y-98864637D01*
X149855611Y-98864637D01*
X149950849Y-98912256D01*
X149998468Y-98959875D01*
X150046087Y-99055113D01*
X150046087Y-99293208D01*
X149998468Y-99388446D01*
X149950849Y-99436065D01*
X149855611Y-99483684D01*
X149617516Y-99483684D01*
X149522278Y-99436065D01*
X149474659Y-99388446D01*
X150474659Y-99483684D02*
X150474659Y-98817018D01*
X150474659Y-98912256D02*
X150522278Y-98864637D01*
X150617516Y-98817018D01*
X150760373Y-98817018D01*
X150855611Y-98864637D01*
X150903230Y-98959875D01*
X150903230Y-99483684D01*
X150903230Y-98959875D02*
X150950849Y-98864637D01*
X151046087Y-98817018D01*
X151188944Y-98817018D01*
X151284183Y-98864637D01*
X151331802Y-98959875D01*
X151331802Y-99483684D01*
X151807992Y-99483684D02*
X151807992Y-98817018D01*
X151807992Y-98912256D02*
X151855611Y-98864637D01*
X151950849Y-98817018D01*
X152093706Y-98817018D01*
X152188944Y-98864637D01*
X152236563Y-98959875D01*
X152236563Y-99483684D01*
X152236563Y-98959875D02*
X152284183Y-98864637D01*
X152379421Y-98817018D01*
X152522278Y-98817018D01*
X152617516Y-98864637D01*
X152665135Y-98959875D01*
X152665135Y-99483684D01*
X128807992Y-96483684D02*
X129379421Y-96483684D01*
X129093706Y-97483684D02*
X129093706Y-96483684D01*
X129617516Y-96817018D02*
X129855611Y-97483684D01*
X130093706Y-96817018D02*
X129855611Y-97483684D01*
X129760373Y-97721780D01*
X129712754Y-97769399D01*
X129617516Y-97817018D01*
X130474659Y-97483684D02*
X130474659Y-96817018D01*
X130474659Y-96912256D02*
X130522278Y-96864637D01*
X130617516Y-96817018D01*
X130760373Y-96817018D01*
X130855611Y-96864637D01*
X130903230Y-96959875D01*
X130903230Y-97483684D01*
X130903230Y-96959875D02*
X130950849Y-96864637D01*
X131046087Y-96817018D01*
X131188944Y-96817018D01*
X131284182Y-96864637D01*
X131331802Y-96959875D01*
X131331802Y-97483684D01*
X131807992Y-96817018D02*
X131807992Y-97817018D01*
X131807992Y-96864637D02*
X131903230Y-96817018D01*
X132093706Y-96817018D01*
X132188944Y-96864637D01*
X132236563Y-96912256D01*
X132284182Y-97007494D01*
X132284182Y-97293208D01*
X132236563Y-97388446D01*
X132188944Y-97436065D01*
X132093706Y-97483684D01*
X131903230Y-97483684D01*
X131807992Y-97436065D01*
X133141325Y-97483684D02*
X133141325Y-96959875D01*
X133093706Y-96864637D01*
X132998468Y-96817018D01*
X132807992Y-96817018D01*
X132712754Y-96864637D01*
X133141325Y-97436065D02*
X133046087Y-97483684D01*
X132807992Y-97483684D01*
X132712754Y-97436065D01*
X132665135Y-97340827D01*
X132665135Y-97245589D01*
X132712754Y-97150351D01*
X132807992Y-97102732D01*
X133046087Y-97102732D01*
X133141325Y-97055113D01*
X133617516Y-96817018D02*
X133617516Y-97483684D01*
X133617516Y-96912256D02*
X133665135Y-96864637D01*
X133760373Y-96817018D01*
X133903230Y-96817018D01*
X133998468Y-96864637D01*
X134046087Y-96959875D01*
X134046087Y-97483684D01*
X135617516Y-96959875D02*
X135760373Y-97007494D01*
X135807992Y-97055113D01*
X135855611Y-97150351D01*
X135855611Y-97293208D01*
X135807992Y-97388446D01*
X135760373Y-97436065D01*
X135665135Y-97483684D01*
X135284183Y-97483684D01*
X135284183Y-96483684D01*
X135617516Y-96483684D01*
X135712754Y-96531304D01*
X135760373Y-96578923D01*
X135807992Y-96674161D01*
X135807992Y-96769399D01*
X135760373Y-96864637D01*
X135712754Y-96912256D01*
X135617516Y-96959875D01*
X135284183Y-96959875D01*
X136141325Y-96483684D02*
X136712754Y-96483684D01*
X136427040Y-97483684D02*
X136427040Y-96483684D01*
X137046087Y-96959875D02*
X137379421Y-96959875D01*
X137522278Y-97483684D02*
X137046087Y-97483684D01*
X137046087Y-96483684D01*
X137522278Y-96483684D01*
X139284183Y-97483684D02*
X138950849Y-97007494D01*
X138712754Y-97483684D02*
X138712754Y-96483684D01*
X139093706Y-96483684D01*
X139188944Y-96531304D01*
X139236563Y-96578923D01*
X139284183Y-96674161D01*
X139284183Y-96817018D01*
X139236563Y-96912256D01*
X139188944Y-96959875D01*
X139093706Y-97007494D01*
X138712754Y-97007494D01*
X139712754Y-97483684D02*
X139712754Y-96817018D01*
X139712754Y-96483684D02*
X139665135Y-96531304D01*
X139712754Y-96578923D01*
X139760373Y-96531304D01*
X139712754Y-96483684D01*
X139712754Y-96578923D01*
X140617516Y-96817018D02*
X140617516Y-97626542D01*
X140569897Y-97721780D01*
X140522278Y-97769399D01*
X140427040Y-97817018D01*
X140284183Y-97817018D01*
X140188944Y-97769399D01*
X140617516Y-97436065D02*
X140522278Y-97483684D01*
X140331802Y-97483684D01*
X140236563Y-97436065D01*
X140188944Y-97388446D01*
X140141325Y-97293208D01*
X140141325Y-97007494D01*
X140188944Y-96912256D01*
X140236563Y-96864637D01*
X140331802Y-96817018D01*
X140522278Y-96817018D01*
X140617516Y-96864637D01*
X141093706Y-97483684D02*
X141093706Y-96817018D01*
X141093706Y-96483684D02*
X141046087Y-96531304D01*
X141093706Y-96578923D01*
X141141325Y-96531304D01*
X141093706Y-96483684D01*
X141093706Y-96578923D01*
X141998468Y-97483684D02*
X141998468Y-96483684D01*
X141998468Y-97436065D02*
X141903230Y-97483684D01*
X141712754Y-97483684D01*
X141617516Y-97436065D01*
X141569897Y-97388446D01*
X141522278Y-97293208D01*
X141522278Y-97007494D01*
X141569897Y-96912256D01*
X141617516Y-96864637D01*
X141712754Y-96817018D01*
X141903230Y-96817018D01*
X141998468Y-96864637D01*
X143569897Y-96959875D02*
X143712754Y-97007494D01*
X143760373Y-97055113D01*
X143807992Y-97150351D01*
X143807992Y-97293208D01*
X143760373Y-97388446D01*
X143712754Y-97436065D01*
X143617516Y-97483684D01*
X143236563Y-97483684D01*
X143236563Y-96483684D01*
X143569897Y-96483684D01*
X143665135Y-96531304D01*
X143712754Y-96578923D01*
X143760373Y-96674161D01*
X143760373Y-96769399D01*
X143712754Y-96864637D01*
X143665135Y-96912256D01*
X143569897Y-96959875D01*
X143236563Y-96959875D01*
X144379421Y-97483684D02*
X144284183Y-97436065D01*
X144236563Y-97388446D01*
X144188944Y-97293208D01*
X144188944Y-97007494D01*
X144236563Y-96912256D01*
X144284183Y-96864637D01*
X144379421Y-96817018D01*
X144522278Y-96817018D01*
X144617516Y-96864637D01*
X144665135Y-96912256D01*
X144712754Y-97007494D01*
X144712754Y-97293208D01*
X144665135Y-97388446D01*
X144617516Y-97436065D01*
X144522278Y-97483684D01*
X144379421Y-97483684D01*
X145569897Y-97483684D02*
X145569897Y-96959875D01*
X145522278Y-96864637D01*
X145427040Y-96817018D01*
X145236563Y-96817018D01*
X145141325Y-96864637D01*
X145569897Y-97436065D02*
X145474659Y-97483684D01*
X145236563Y-97483684D01*
X145141325Y-97436065D01*
X145093706Y-97340827D01*
X145093706Y-97245589D01*
X145141325Y-97150351D01*
X145236563Y-97102732D01*
X145474659Y-97102732D01*
X145569897Y-97055113D01*
X146046087Y-97483684D02*
X146046087Y-96817018D01*
X146046087Y-97007494D02*
X146093706Y-96912256D01*
X146141325Y-96864637D01*
X146236563Y-96817018D01*
X146331802Y-96817018D01*
X147093706Y-97483684D02*
X147093706Y-96483684D01*
X147093706Y-97436065D02*
X146998468Y-97483684D01*
X146807992Y-97483684D01*
X146712754Y-97436065D01*
X146665135Y-97388446D01*
X146617516Y-97293208D01*
X146617516Y-97007494D01*
X146665135Y-96912256D01*
X146712754Y-96864637D01*
X146807992Y-96817018D01*
X146998468Y-96817018D01*
X147093706Y-96864637D01*
X148284183Y-97197970D02*
X148760373Y-97197970D01*
X148188944Y-97483684D02*
X148522278Y-96483684D01*
X148855611Y-97483684D01*
X149188944Y-97483684D02*
X149188944Y-96817018D01*
X149188944Y-97007494D02*
X149236563Y-96912256D01*
X149284183Y-96864637D01*
X149379421Y-96817018D01*
X149474659Y-96817018D01*
X149807992Y-97483684D02*
X149807992Y-96817018D01*
X149807992Y-97007494D02*
X149855611Y-96912256D01*
X149903230Y-96864637D01*
X149998468Y-96817018D01*
X150093706Y-96817018D01*
X150855611Y-97483684D02*
X150855611Y-96959875D01*
X150807992Y-96864637D01*
X150712754Y-96817018D01*
X150522278Y-96817018D01*
X150427040Y-96864637D01*
X150855611Y-97436065D02*
X150760373Y-97483684D01*
X150522278Y-97483684D01*
X150427040Y-97436065D01*
X150379421Y-97340827D01*
X150379421Y-97245589D01*
X150427040Y-97150351D01*
X150522278Y-97102732D01*
X150760373Y-97102732D01*
X150855611Y-97055113D01*
X151236563Y-96817018D02*
X151474659Y-97483684D01*
X151712754Y-96817018D02*
X151474659Y-97483684D01*
X151379421Y-97721780D01*
X151331802Y-97769399D01*
X151236563Y-97817018D01*
D11*
X152624681Y-88478082D02*
X152578065Y-88832170D01*
X152545135Y-88899879D01*
X152491708Y-88940875D01*
X152417783Y-88955158D01*
X152370571Y-88948942D01*
X152813528Y-88502944D02*
X153120403Y-88543345D01*
X152930300Y-88710437D01*
X153001118Y-88719761D01*
X153045222Y-88749582D01*
X153065720Y-88776296D01*
X153083110Y-88826615D01*
X153067571Y-88944644D01*
X153037750Y-88988748D01*
X153011036Y-89009246D01*
X152960717Y-89026637D01*
X152819082Y-89007990D01*
X152774978Y-88978169D01*
X152754480Y-88951455D01*
X145624681Y-88478082D02*
X145578065Y-88832170D01*
X145545135Y-88899879D01*
X145491708Y-88940875D01*
X145417783Y-88955158D01*
X145370571Y-88948942D01*
X145813528Y-88502944D02*
X146120403Y-88543345D01*
X145930300Y-88710437D01*
X146001118Y-88719761D01*
X146045222Y-88749582D01*
X146065720Y-88776296D01*
X146083110Y-88826615D01*
X146067571Y-88944644D01*
X146037750Y-88988748D01*
X146011036Y-89009246D01*
X145960717Y-89026637D01*
X145819082Y-89007990D01*
X145774978Y-88978169D01*
X145754480Y-88951455D01*
X138624681Y-88478082D02*
X138578065Y-88832170D01*
X138545135Y-88899879D01*
X138491708Y-88940875D01*
X138417783Y-88955158D01*
X138370571Y-88948942D01*
X138813528Y-88502944D02*
X139120403Y-88543345D01*
X138930300Y-88710437D01*
X139001118Y-88719761D01*
X139045222Y-88749582D01*
X139065720Y-88776296D01*
X139083110Y-88826615D01*
X139067571Y-88944644D01*
X139037750Y-88988748D01*
X139011036Y-89009246D01*
X138960717Y-89026637D01*
X138819082Y-89007990D01*
X138774978Y-88978169D01*
X138754480Y-88951455D01*
X131624681Y-88478082D02*
X131578065Y-88832170D01*
X131545135Y-88899879D01*
X131491708Y-88940875D01*
X131417783Y-88955158D01*
X131370571Y-88948942D01*
X131813528Y-88502944D02*
X132120403Y-88543345D01*
X131930300Y-88710437D01*
X132001118Y-88719761D01*
X132045222Y-88749582D01*
X132065720Y-88776296D01*
X132083110Y-88826615D01*
X132067571Y-88944644D01*
X132037750Y-88988748D01*
X132011036Y-89009246D01*
X131960717Y-89026637D01*
X131819082Y-89007990D01*
X131774978Y-88978169D01*
X131754480Y-88951455D01*
X124624681Y-88478082D02*
X124578065Y-88832170D01*
X124545135Y-88899879D01*
X124491708Y-88940875D01*
X124417783Y-88955158D01*
X124370571Y-88948942D01*
X124813528Y-88502944D02*
X125120403Y-88543345D01*
X124930300Y-88710437D01*
X125001118Y-88719761D01*
X125045222Y-88749582D01*
X125065720Y-88776296D01*
X125083110Y-88826615D01*
X125067571Y-88944644D01*
X125037750Y-88988748D01*
X125011036Y-89009246D01*
X124960717Y-89026637D01*
X124819082Y-89007990D01*
X124774978Y-88978169D01*
X124754480Y-88951455D01*
X151570373Y-93737970D02*
X151927516Y-93737970D01*
X151998944Y-93761780D01*
X152046563Y-93809399D01*
X152070373Y-93880827D01*
X152070373Y-93928446D01*
X152070373Y-93237970D02*
X152070373Y-93523684D01*
X152070373Y-93380827D02*
X151570373Y-93380827D01*
X151641802Y-93428446D01*
X151689421Y-93476065D01*
X151713230Y-93523684D01*
X144570373Y-93737970D02*
X144927516Y-93737970D01*
X144998944Y-93761780D01*
X145046563Y-93809399D01*
X145070373Y-93880827D01*
X145070373Y-93928446D01*
X145070373Y-93237970D02*
X145070373Y-93523684D01*
X145070373Y-93380827D02*
X144570373Y-93380827D01*
X144641802Y-93428446D01*
X144689421Y-93476065D01*
X144713230Y-93523684D01*
X137570373Y-93737970D02*
X137927516Y-93737970D01*
X137998944Y-93761780D01*
X138046563Y-93809399D01*
X138070373Y-93880827D01*
X138070373Y-93928446D01*
X138070373Y-93237970D02*
X138070373Y-93523684D01*
X138070373Y-93380827D02*
X137570373Y-93380827D01*
X137641802Y-93428446D01*
X137689421Y-93476065D01*
X137713230Y-93523684D01*
X130570373Y-93737970D02*
X130927516Y-93737970D01*
X130998944Y-93761780D01*
X131046563Y-93809399D01*
X131070373Y-93880827D01*
X131070373Y-93928446D01*
X131070373Y-93237970D02*
X131070373Y-93523684D01*
X131070373Y-93380827D02*
X130570373Y-93380827D01*
X130641802Y-93428446D01*
X130689421Y-93476065D01*
X130713230Y-93523684D01*
X123570373Y-93737970D02*
X123927516Y-93737970D01*
X123998944Y-93761780D01*
X124046563Y-93809399D01*
X124070373Y-93880827D01*
X124070373Y-93928446D01*
X124070373Y-93237970D02*
X124070373Y-93523684D01*
X124070373Y-93380827D02*
X123570373Y-93380827D01*
X123641802Y-93428446D01*
X123689421Y-93476065D01*
X123713230Y-93523684D01*
X154540849Y-90639875D02*
X154517040Y-90663684D01*
X154445611Y-90687494D01*
X154397992Y-90687494D01*
X154326563Y-90663684D01*
X154278944Y-90616065D01*
X154255135Y-90568446D01*
X154231325Y-90473208D01*
X154231325Y-90401780D01*
X154255135Y-90306542D01*
X154278944Y-90258923D01*
X154326563Y-90211304D01*
X154397992Y-90187494D01*
X154445611Y-90187494D01*
X154517040Y-90211304D01*
X154540849Y-90235113D01*
X155017040Y-90687494D02*
X154731325Y-90687494D01*
X154874183Y-90687494D02*
X154874183Y-90187494D01*
X154826563Y-90258923D01*
X154778944Y-90306542D01*
X154731325Y-90330351D01*
X147540849Y-90639875D02*
X147517040Y-90663684D01*
X147445611Y-90687494D01*
X147397992Y-90687494D01*
X147326563Y-90663684D01*
X147278944Y-90616065D01*
X147255135Y-90568446D01*
X147231325Y-90473208D01*
X147231325Y-90401780D01*
X147255135Y-90306542D01*
X147278944Y-90258923D01*
X147326563Y-90211304D01*
X147397992Y-90187494D01*
X147445611Y-90187494D01*
X147517040Y-90211304D01*
X147540849Y-90235113D01*
X148017040Y-90687494D02*
X147731325Y-90687494D01*
X147874183Y-90687494D02*
X147874183Y-90187494D01*
X147826563Y-90258923D01*
X147778944Y-90306542D01*
X147731325Y-90330351D01*
X140540849Y-90639875D02*
X140517040Y-90663684D01*
X140445611Y-90687494D01*
X140397992Y-90687494D01*
X140326563Y-90663684D01*
X140278944Y-90616065D01*
X140255135Y-90568446D01*
X140231325Y-90473208D01*
X140231325Y-90401780D01*
X140255135Y-90306542D01*
X140278944Y-90258923D01*
X140326563Y-90211304D01*
X140397992Y-90187494D01*
X140445611Y-90187494D01*
X140517040Y-90211304D01*
X140540849Y-90235113D01*
X141017040Y-90687494D02*
X140731325Y-90687494D01*
X140874183Y-90687494D02*
X140874183Y-90187494D01*
X140826563Y-90258923D01*
X140778944Y-90306542D01*
X140731325Y-90330351D01*
X133540849Y-90639875D02*
X133517040Y-90663684D01*
X133445611Y-90687494D01*
X133397992Y-90687494D01*
X133326563Y-90663684D01*
X133278944Y-90616065D01*
X133255135Y-90568446D01*
X133231325Y-90473208D01*
X133231325Y-90401780D01*
X133255135Y-90306542D01*
X133278944Y-90258923D01*
X133326563Y-90211304D01*
X133397992Y-90187494D01*
X133445611Y-90187494D01*
X133517040Y-90211304D01*
X133540849Y-90235113D01*
X134017040Y-90687494D02*
X133731325Y-90687494D01*
X133874183Y-90687494D02*
X133874183Y-90187494D01*
X133826563Y-90258923D01*
X133778944Y-90306542D01*
X133731325Y-90330351D01*
X126540849Y-90639875D02*
X126517040Y-90663684D01*
X126445611Y-90687494D01*
X126397992Y-90687494D01*
X126326563Y-90663684D01*
X126278944Y-90616065D01*
X126255135Y-90568446D01*
X126231325Y-90473208D01*
X126231325Y-90401780D01*
X126255135Y-90306542D01*
X126278944Y-90258923D01*
X126326563Y-90211304D01*
X126397992Y-90187494D01*
X126445611Y-90187494D01*
X126517040Y-90211304D01*
X126540849Y-90235113D01*
X127017040Y-90687494D02*
X126731325Y-90687494D01*
X126874183Y-90687494D02*
X126874183Y-90187494D01*
X126826563Y-90258923D01*
X126778944Y-90306542D01*
X126731325Y-90330351D01*
M02*
