M48
; DRILL file {KiCad (5.1.4-0-10_14)} date Thursday, September 19, 2019 at 04:43:03 PM
; FORMAT={-:-/ absolute / inch / decimal}
; #@! TF.CreationDate,2019-09-19T16:43:03-04:00
; #@! TF.GenerationSoftware,Kicad,Pcbnew,(5.1.4-0-10_14)
; #@! TF.FileFunction,Plated,1,2,PTH
FMAT,2
INCH
T1C0.0039
%
G90
G05
T1
X4.8927Y-3.5607
X4.8927Y-3.6823
X4.9202Y-3.6823
X4.9478Y-3.6823
X4.9911Y-3.554
X5.0166Y-3.5518
X5.0293Y-3.7107
X5.1683Y-3.5607
X5.1683Y-3.6823
X5.1958Y-3.6823
X5.2234Y-3.6823
X5.2667Y-3.554
X5.2922Y-3.5518
X5.3049Y-3.7107
X5.4439Y-3.5607
X5.4439Y-3.6823
X5.4714Y-3.6823
X5.499Y-3.6823
X5.5423Y-3.554
X5.5678Y-3.5518
X5.5805Y-3.7107
X5.7195Y-3.5607
X5.7195Y-3.6823
X5.747Y-3.6823
X5.7746Y-3.6823
X5.8179Y-3.554
X5.8434Y-3.5518
X5.8561Y-3.7107
X5.995Y-3.5607
X5.995Y-3.6823
X6.0226Y-3.6823
X6.0502Y-3.6823
X6.0935Y-3.554
X6.119Y-3.5518
X6.1317Y-3.7107
T0
M30
