G04 #@! TF.GenerationSoftware,KiCad,Pcbnew,(5.1.4-0-10_14)*
G04 #@! TF.CreationDate,2019-09-18T10:30:13-04:00*
G04 #@! TF.ProjectId,Tympan_BTE_Flex,54796d70-616e-45f4-9254-455f466c6578,rev?*
G04 #@! TF.SameCoordinates,Original*
G04 #@! TF.FileFunction,Soldermask,Bot*
G04 #@! TF.FilePolarity,Negative*
%FSLAX46Y46*%
G04 Gerber Fmt 4.6, Leading zero omitted, Abs format (unit mm)*
G04 Created by KiCad (PCBNEW (5.1.4-0-10_14)) date 2019-09-18 10:30:13*
%MOMM*%
%LPD*%
G04 APERTURE LIST*
%ADD10C,0.150000*%
%ADD11C,0.100000*%
G04 APERTURE END LIST*
D10*
G36*
X118558547Y-113817462D02*
G01*
X116458547Y-113817462D01*
X116458547Y-111217462D01*
X118558547Y-111217462D01*
X118558547Y-113817462D01*
G37*
X118558547Y-113817462D02*
X116458547Y-113817462D01*
X116458547Y-111217462D01*
X118558547Y-111217462D01*
X118558547Y-113817462D01*
D11*
G36*
X122736000Y-116414037D02*
G01*
X122738402Y-116438423D01*
X122745515Y-116461872D01*
X122757066Y-116483483D01*
X122772611Y-116502425D01*
X122791553Y-116517970D01*
X122813164Y-116529521D01*
X122836613Y-116536634D01*
X122860999Y-116539036D01*
X122885385Y-116536634D01*
X123042903Y-116505302D01*
X123065182Y-116503108D01*
X123254818Y-116503108D01*
X123277097Y-116505302D01*
X123434615Y-116536634D01*
X123459001Y-116539036D01*
X123483387Y-116536634D01*
X123506836Y-116529521D01*
X123528447Y-116517970D01*
X123547389Y-116502424D01*
X123562934Y-116483482D01*
X123574485Y-116461872D01*
X123581598Y-116438423D01*
X123584000Y-116414037D01*
X123584000Y-115124000D01*
X124436000Y-115124000D01*
X124436000Y-116376000D01*
X123695755Y-116376000D01*
X123671369Y-116378402D01*
X123647920Y-116385515D01*
X123626309Y-116397066D01*
X123607367Y-116412611D01*
X123591822Y-116431553D01*
X123580271Y-116453164D01*
X123573158Y-116476613D01*
X123570756Y-116500999D01*
X123573158Y-116525385D01*
X123580271Y-116548834D01*
X123591822Y-116570445D01*
X123607367Y-116589387D01*
X123626309Y-116604932D01*
X123647920Y-116616483D01*
X123659706Y-116621365D01*
X123679451Y-116631919D01*
X123837127Y-116737275D01*
X123854432Y-116751476D01*
X123988524Y-116885568D01*
X124002725Y-116902873D01*
X124108081Y-117060549D01*
X124118635Y-117080294D01*
X124191203Y-117255487D01*
X124197704Y-117276920D01*
X124234698Y-117462903D01*
X124236892Y-117485182D01*
X124236892Y-117674818D01*
X124234698Y-117697097D01*
X124197704Y-117883080D01*
X124191203Y-117904513D01*
X124118635Y-118079706D01*
X124108081Y-118099451D01*
X124002725Y-118257127D01*
X123988524Y-118274432D01*
X123854432Y-118408524D01*
X123837127Y-118422725D01*
X123679451Y-118528081D01*
X123659706Y-118538635D01*
X123484513Y-118611203D01*
X123463080Y-118617704D01*
X123277097Y-118654698D01*
X123254818Y-118656892D01*
X123065182Y-118656892D01*
X123042903Y-118654698D01*
X122856920Y-118617704D01*
X122835487Y-118611203D01*
X122660294Y-118538635D01*
X122640549Y-118528081D01*
X122482873Y-118422725D01*
X122465568Y-118408524D01*
X122331476Y-118274432D01*
X122317275Y-118257127D01*
X122211919Y-118099451D01*
X122201365Y-118079706D01*
X122128797Y-117904513D01*
X122122296Y-117883080D01*
X122085302Y-117697097D01*
X122083108Y-117674818D01*
X122083108Y-117485182D01*
X122085302Y-117462903D01*
X122122296Y-117276920D01*
X122128797Y-117255487D01*
X122201365Y-117080294D01*
X122211919Y-117060549D01*
X122317275Y-116902873D01*
X122331476Y-116885568D01*
X122465568Y-116751476D01*
X122482873Y-116737275D01*
X122640549Y-116631919D01*
X122660294Y-116621365D01*
X122672080Y-116616483D01*
X122693691Y-116604932D01*
X122712633Y-116589387D01*
X122728178Y-116570445D01*
X122739729Y-116548834D01*
X122746842Y-116525385D01*
X122749244Y-116500999D01*
X122746842Y-116476613D01*
X122739729Y-116453164D01*
X122728178Y-116431553D01*
X122712633Y-116412611D01*
X122693691Y-116397066D01*
X122672080Y-116385515D01*
X122648631Y-116378402D01*
X122624245Y-116376000D01*
X121884000Y-116376000D01*
X121884000Y-115124000D01*
X122736000Y-115124000D01*
X122736000Y-116414037D01*
X122736000Y-116414037D01*
G37*
G36*
X118659547Y-113468462D02*
G01*
X116357547Y-113468462D01*
X116357547Y-111566462D01*
X118659547Y-111566462D01*
X118659547Y-113468462D01*
X118659547Y-113468462D01*
G37*
G36*
X123277097Y-107005302D02*
G01*
X123463080Y-107042296D01*
X123484513Y-107048797D01*
X123659706Y-107121365D01*
X123679451Y-107131919D01*
X123837127Y-107237275D01*
X123854432Y-107251476D01*
X123988524Y-107385568D01*
X124002725Y-107402873D01*
X124108081Y-107560549D01*
X124118635Y-107580294D01*
X124191203Y-107755487D01*
X124197704Y-107776920D01*
X124234698Y-107962903D01*
X124236892Y-107985182D01*
X124236892Y-108174818D01*
X124234698Y-108197097D01*
X124197704Y-108383080D01*
X124191203Y-108404513D01*
X124118635Y-108579706D01*
X124108081Y-108599451D01*
X124002725Y-108757127D01*
X123988524Y-108774432D01*
X123854432Y-108908524D01*
X123837127Y-108922725D01*
X123679451Y-109028081D01*
X123659706Y-109038635D01*
X123647920Y-109043517D01*
X123626309Y-109055068D01*
X123607367Y-109070613D01*
X123591822Y-109089555D01*
X123580271Y-109111166D01*
X123573158Y-109134615D01*
X123570756Y-109159001D01*
X123573158Y-109183387D01*
X123580271Y-109206836D01*
X123591822Y-109228447D01*
X123607367Y-109247389D01*
X123626309Y-109262934D01*
X123647920Y-109274485D01*
X123671369Y-109281598D01*
X123695755Y-109284000D01*
X124436000Y-109284000D01*
X124436000Y-110536000D01*
X123584000Y-110536000D01*
X123584000Y-109245963D01*
X123581598Y-109221577D01*
X123574485Y-109198128D01*
X123562934Y-109176517D01*
X123547389Y-109157575D01*
X123528447Y-109142030D01*
X123506836Y-109130479D01*
X123483387Y-109123366D01*
X123459001Y-109120964D01*
X123434615Y-109123366D01*
X123277097Y-109154698D01*
X123254818Y-109156892D01*
X123065182Y-109156892D01*
X123042903Y-109154698D01*
X122885385Y-109123366D01*
X122860999Y-109120964D01*
X122836613Y-109123366D01*
X122813164Y-109130479D01*
X122791553Y-109142030D01*
X122772611Y-109157576D01*
X122757066Y-109176518D01*
X122745515Y-109198128D01*
X122738402Y-109221577D01*
X122736000Y-109245963D01*
X122736000Y-110536000D01*
X121884000Y-110536000D01*
X121884000Y-109284000D01*
X122624245Y-109284000D01*
X122648631Y-109281598D01*
X122672080Y-109274485D01*
X122693691Y-109262934D01*
X122712633Y-109247389D01*
X122728178Y-109228447D01*
X122739729Y-109206836D01*
X122746842Y-109183387D01*
X122749244Y-109159001D01*
X122746842Y-109134615D01*
X122739729Y-109111166D01*
X122728178Y-109089555D01*
X122712633Y-109070613D01*
X122693691Y-109055068D01*
X122672080Y-109043517D01*
X122660294Y-109038635D01*
X122640549Y-109028081D01*
X122482873Y-108922725D01*
X122465568Y-108908524D01*
X122331476Y-108774432D01*
X122317275Y-108757127D01*
X122211919Y-108599451D01*
X122201365Y-108579706D01*
X122128797Y-108404513D01*
X122122296Y-108383080D01*
X122085302Y-108197097D01*
X122083108Y-108174818D01*
X122083108Y-107985182D01*
X122085302Y-107962903D01*
X122122296Y-107776920D01*
X122128797Y-107755487D01*
X122201365Y-107580294D01*
X122211919Y-107560549D01*
X122317275Y-107402873D01*
X122331476Y-107385568D01*
X122465568Y-107251476D01*
X122482873Y-107237275D01*
X122640549Y-107131919D01*
X122660294Y-107121365D01*
X122835487Y-107048797D01*
X122856920Y-107042296D01*
X123042903Y-107005302D01*
X123065182Y-107003108D01*
X123254818Y-107003108D01*
X123277097Y-107005302D01*
X123277097Y-107005302D01*
G37*
M02*
