G04 #@! TF.GenerationSoftware,KiCad,Pcbnew,(5.1.4-0-10_14)*
G04 #@! TF.CreationDate,2019-09-18T10:30:13-04:00*
G04 #@! TF.ProjectId,Tympan_BTE_Flex,54796d70-616e-45f4-9254-455f466c6578,rev?*
G04 #@! TF.SameCoordinates,Original*
G04 #@! TF.FileFunction,Copper,L1,Top*
G04 #@! TF.FilePolarity,Positive*
%FSLAX46Y46*%
G04 Gerber Fmt 4.6, Leading zero omitted, Abs format (unit mm)*
G04 Created by KiCad (PCBNEW (5.1.4-0-10_14)) date 2019-09-18 10:30:13*
%MOMM*%
%LPD*%
G04 APERTURE LIST*
%ADD10C,0.450000*%
%ADD11C,0.300000*%
%ADD12C,0.130000*%
G04 APERTURE END LIST*
D10*
X123208547Y-116067462D03*
D11*
X124008543Y-112917462D03*
D10*
X123170004Y-109550004D03*
X122040000Y-118620000D03*
X122100000Y-106940000D03*
D11*
X123658547Y-111917468D03*
X124108547Y-112417458D03*
X124358549Y-113617462D03*
D12*
X124008543Y-113129594D02*
X124008543Y-112917462D01*
X124008543Y-115458875D02*
X124008543Y-113129594D01*
X123399956Y-116067462D02*
X124008543Y-115458875D01*
X123187462Y-109567462D02*
X123170004Y-109550004D01*
X123458547Y-109567462D02*
X123187462Y-109567462D01*
X124208547Y-110317462D02*
X123458547Y-109567462D01*
X124208547Y-111836484D02*
X124208547Y-110317462D01*
X123817346Y-112227685D02*
X124208547Y-111836484D01*
X123817346Y-112726265D02*
X123817346Y-112227685D01*
X124008543Y-112917462D02*
X123817346Y-112726265D01*
X122040000Y-118301802D02*
X122040000Y-118620000D01*
X122040000Y-116636009D02*
X122040000Y-118301802D01*
X123658547Y-115017462D02*
X122040000Y-116636009D01*
X123658547Y-113267462D02*
X123658547Y-115017462D01*
X123458547Y-113067462D02*
X123658547Y-113267462D01*
X123458547Y-112117468D02*
X123458547Y-113067462D01*
X123658547Y-111917468D02*
X123458547Y-112117468D01*
X123758547Y-111817468D02*
X123658547Y-111917468D01*
X123758547Y-110767462D02*
X123758547Y-111817468D01*
X122100000Y-109108915D02*
X123758547Y-110767462D01*
X122100000Y-106940000D02*
X122100000Y-109108915D01*
X124108547Y-112417458D02*
X124358549Y-112667460D01*
X124358549Y-113405330D02*
X124358549Y-113617462D01*
X124358549Y-112667460D02*
X124358549Y-113405330D01*
M02*
