G04 #@! TF.GenerationSoftware,KiCad,Pcbnew,(5.1.4-0-10_14)*
G04 #@! TF.CreationDate,2019-09-18T10:30:13-04:00*
G04 #@! TF.ProjectId,Tympan_BTE_Flex,54796d70-616e-45f4-9254-455f466c6578,rev?*
G04 #@! TF.SameCoordinates,Original*
G04 #@! TF.FileFunction,Copper,L2,Bot*
G04 #@! TF.FilePolarity,Positive*
%FSLAX46Y46*%
G04 Gerber Fmt 4.6, Leading zero omitted, Abs format (unit mm)*
G04 Created by KiCad (PCBNEW (5.1.4-0-10_14)) date 2019-09-18 10:30:13*
%MOMM*%
%LPD*%
G04 APERTURE LIST*
%ADD10R,2.200000X0.300000*%
%ADD11C,0.400000*%
%ADD12C,0.100000*%
%ADD13R,0.750000X0.450000*%
%ADD14C,0.450000*%
%ADD15C,0.300000*%
%ADD16C,0.130000*%
G04 APERTURE END LIST*
D10*
X117508547Y-113267462D03*
X117508547Y-112767462D03*
X117508547Y-112267462D03*
X117508547Y-111767462D03*
D11*
X123160000Y-118385000D03*
D12*
G36*
X124178852Y-117731132D02*
G01*
X124159132Y-117830270D01*
X124129790Y-117926997D01*
X124091109Y-118020382D01*
X124043460Y-118109526D01*
X123987304Y-118193570D01*
X123923180Y-118271706D01*
X123851706Y-118343180D01*
X123773570Y-118407304D01*
X123689526Y-118463460D01*
X123600382Y-118511109D01*
X123506997Y-118549790D01*
X123410270Y-118579132D01*
X123311132Y-118598852D01*
X123210540Y-118608759D01*
X123109460Y-118608759D01*
X123008868Y-118598852D01*
X122909730Y-118579132D01*
X122813003Y-118549790D01*
X122719618Y-118511109D01*
X122630474Y-118463460D01*
X122546430Y-118407304D01*
X122468294Y-118343180D01*
X122396820Y-118271706D01*
X122332696Y-118193570D01*
X122276540Y-118109526D01*
X122228891Y-118020382D01*
X122190210Y-117926997D01*
X122160868Y-117830270D01*
X122141148Y-117731132D01*
X122131241Y-117630540D01*
X122131241Y-117529460D01*
X122141148Y-117428868D01*
X122160868Y-117329730D01*
X122190210Y-117233003D01*
X122228891Y-117139618D01*
X122276540Y-117050474D01*
X122332696Y-116966430D01*
X122396820Y-116888294D01*
X122468294Y-116816820D01*
X122546430Y-116752696D01*
X122630474Y-116696540D01*
X122719618Y-116648891D01*
X122813003Y-116610210D01*
X122909730Y-116580868D01*
X123008868Y-116561148D01*
X123109460Y-116551241D01*
X123188459Y-116551241D01*
X123188459Y-117000699D01*
X123131541Y-117000699D01*
X123074896Y-117006278D01*
X123019071Y-117017382D01*
X122964604Y-117033904D01*
X122912018Y-117055686D01*
X122861820Y-117082517D01*
X122814494Y-117114140D01*
X122770496Y-117150248D01*
X122730248Y-117190496D01*
X122694140Y-117234494D01*
X122662517Y-117281820D01*
X122635686Y-117332018D01*
X122613904Y-117384604D01*
X122597382Y-117439071D01*
X122586278Y-117494896D01*
X122580699Y-117551541D01*
X122580699Y-117608459D01*
X122586278Y-117665104D01*
X122597382Y-117720929D01*
X122613904Y-117775396D01*
X122635686Y-117827982D01*
X122662517Y-117878180D01*
X122694140Y-117925506D01*
X122730248Y-117969504D01*
X122770496Y-118009752D01*
X122814494Y-118045860D01*
X122861820Y-118077483D01*
X122912018Y-118104314D01*
X122964604Y-118126096D01*
X123019071Y-118142618D01*
X123074896Y-118153722D01*
X123131541Y-118159301D01*
X123188459Y-118159301D01*
X123245104Y-118153722D01*
X123300929Y-118142618D01*
X123355396Y-118126096D01*
X123407982Y-118104314D01*
X123458180Y-118077483D01*
X123505506Y-118045860D01*
X123549504Y-118009752D01*
X123589752Y-117969504D01*
X123625860Y-117925506D01*
X123657483Y-117878180D01*
X123684314Y-117827982D01*
X123706096Y-117775396D01*
X123722618Y-117720929D01*
X123733722Y-117665104D01*
X123739301Y-117608459D01*
X123739301Y-117551541D01*
X123733722Y-117494896D01*
X123722618Y-117439071D01*
X123706096Y-117384604D01*
X123684314Y-117332018D01*
X123657483Y-117281820D01*
X123625860Y-117234494D01*
X123589752Y-117190496D01*
X123549504Y-117150248D01*
X123505506Y-117114140D01*
X123458180Y-117082517D01*
X123407982Y-117055686D01*
X123355396Y-117033904D01*
X123300929Y-117017382D01*
X123245104Y-117006278D01*
X123188459Y-117000699D01*
X123188459Y-116551241D01*
X123210540Y-116551241D01*
X123311132Y-116561148D01*
X123410270Y-116580868D01*
X123506997Y-116610210D01*
X123600382Y-116648891D01*
X123689526Y-116696540D01*
X123773570Y-116752696D01*
X123851706Y-116816820D01*
X123923180Y-116888294D01*
X123987304Y-116966430D01*
X124043460Y-117050474D01*
X124091109Y-117139618D01*
X124129790Y-117233003D01*
X124159132Y-117329730D01*
X124178852Y-117428868D01*
X124188759Y-117529460D01*
X124188759Y-117630540D01*
X124178852Y-117731132D01*
X124178852Y-117731132D01*
G37*
D13*
X124010000Y-116100000D03*
X124010000Y-115400000D03*
X122310000Y-116100000D03*
X122310000Y-115400000D03*
D11*
X123160000Y-107275000D03*
D12*
G36*
X122141148Y-107928868D02*
G01*
X122160868Y-107829730D01*
X122190210Y-107733003D01*
X122228891Y-107639618D01*
X122276540Y-107550474D01*
X122332696Y-107466430D01*
X122396820Y-107388294D01*
X122468294Y-107316820D01*
X122546430Y-107252696D01*
X122630474Y-107196540D01*
X122719618Y-107148891D01*
X122813003Y-107110210D01*
X122909730Y-107080868D01*
X123008868Y-107061148D01*
X123109460Y-107051241D01*
X123210540Y-107051241D01*
X123311132Y-107061148D01*
X123410270Y-107080868D01*
X123506997Y-107110210D01*
X123600382Y-107148891D01*
X123689526Y-107196540D01*
X123773570Y-107252696D01*
X123851706Y-107316820D01*
X123923180Y-107388294D01*
X123987304Y-107466430D01*
X124043460Y-107550474D01*
X124091109Y-107639618D01*
X124129790Y-107733003D01*
X124159132Y-107829730D01*
X124178852Y-107928868D01*
X124188759Y-108029460D01*
X124188759Y-108130540D01*
X124178852Y-108231132D01*
X124159132Y-108330270D01*
X124129790Y-108426997D01*
X124091109Y-108520382D01*
X124043460Y-108609526D01*
X123987304Y-108693570D01*
X123923180Y-108771706D01*
X123851706Y-108843180D01*
X123773570Y-108907304D01*
X123689526Y-108963460D01*
X123600382Y-109011109D01*
X123506997Y-109049790D01*
X123410270Y-109079132D01*
X123311132Y-109098852D01*
X123210540Y-109108759D01*
X123131541Y-109108759D01*
X123131541Y-108659301D01*
X123188459Y-108659301D01*
X123245104Y-108653722D01*
X123300929Y-108642618D01*
X123355396Y-108626096D01*
X123407982Y-108604314D01*
X123458180Y-108577483D01*
X123505506Y-108545860D01*
X123549504Y-108509752D01*
X123589752Y-108469504D01*
X123625860Y-108425506D01*
X123657483Y-108378180D01*
X123684314Y-108327982D01*
X123706096Y-108275396D01*
X123722618Y-108220929D01*
X123733722Y-108165104D01*
X123739301Y-108108459D01*
X123739301Y-108051541D01*
X123733722Y-107994896D01*
X123722618Y-107939071D01*
X123706096Y-107884604D01*
X123684314Y-107832018D01*
X123657483Y-107781820D01*
X123625860Y-107734494D01*
X123589752Y-107690496D01*
X123549504Y-107650248D01*
X123505506Y-107614140D01*
X123458180Y-107582517D01*
X123407982Y-107555686D01*
X123355396Y-107533904D01*
X123300929Y-107517382D01*
X123245104Y-107506278D01*
X123188459Y-107500699D01*
X123131541Y-107500699D01*
X123074896Y-107506278D01*
X123019071Y-107517382D01*
X122964604Y-107533904D01*
X122912018Y-107555686D01*
X122861820Y-107582517D01*
X122814494Y-107614140D01*
X122770496Y-107650248D01*
X122730248Y-107690496D01*
X122694140Y-107734494D01*
X122662517Y-107781820D01*
X122635686Y-107832018D01*
X122613904Y-107884604D01*
X122597382Y-107939071D01*
X122586278Y-107994896D01*
X122580699Y-108051541D01*
X122580699Y-108108459D01*
X122586278Y-108165104D01*
X122597382Y-108220929D01*
X122613904Y-108275396D01*
X122635686Y-108327982D01*
X122662517Y-108378180D01*
X122694140Y-108425506D01*
X122730248Y-108469504D01*
X122770496Y-108509752D01*
X122814494Y-108545860D01*
X122861820Y-108577483D01*
X122912018Y-108604314D01*
X122964604Y-108626096D01*
X123019071Y-108642618D01*
X123074896Y-108653722D01*
X123131541Y-108659301D01*
X123131541Y-109108759D01*
X123109460Y-109108759D01*
X123008868Y-109098852D01*
X122909730Y-109079132D01*
X122813003Y-109049790D01*
X122719618Y-109011109D01*
X122630474Y-108963460D01*
X122546430Y-108907304D01*
X122468294Y-108843180D01*
X122396820Y-108771706D01*
X122332696Y-108693570D01*
X122276540Y-108609526D01*
X122228891Y-108520382D01*
X122190210Y-108426997D01*
X122160868Y-108330270D01*
X122141148Y-108231132D01*
X122131241Y-108130540D01*
X122131241Y-108029460D01*
X122141148Y-107928868D01*
X122141148Y-107928868D01*
G37*
D13*
X122310000Y-109560000D03*
X122310000Y-110260000D03*
X124010000Y-109560000D03*
X124010000Y-110260000D03*
D14*
X123208547Y-116067462D03*
D15*
X124008543Y-112917462D03*
D14*
X123170004Y-109550004D03*
X122040000Y-118620000D03*
X122100000Y-106940000D03*
D15*
X123658547Y-111917468D03*
X124108547Y-112417458D03*
X124358549Y-113617462D03*
D16*
X122310000Y-116100000D02*
X123226011Y-116100000D01*
X123226011Y-116100000D02*
X123258547Y-116067464D01*
X123183546Y-115913546D02*
X123183546Y-115992463D01*
X123183546Y-115992463D02*
X123258547Y-116067464D01*
X123908543Y-113017462D02*
X124008543Y-112917462D01*
X118908547Y-113017462D02*
X123908543Y-113017462D01*
X118658547Y-112767462D02*
X118908547Y-113017462D01*
X117508547Y-112767462D02*
X118658547Y-112767462D01*
X123160008Y-109560000D02*
X123170004Y-109550004D01*
X124010000Y-109560000D02*
X123180000Y-109560000D01*
X123180000Y-109560000D02*
X123170004Y-109550004D01*
X122310000Y-109560000D02*
X123160008Y-109560000D01*
X123445000Y-118385000D02*
X123160000Y-118385000D01*
X124010000Y-117820000D02*
X123445000Y-118385000D01*
X123770000Y-116100000D02*
X124010000Y-116100000D01*
X122895000Y-118385000D02*
X123160000Y-118385000D01*
X122680000Y-118170000D02*
X122895000Y-118385000D01*
X122490000Y-118170000D02*
X122680000Y-118170000D01*
X122040000Y-118620000D02*
X122490000Y-118170000D01*
X123830000Y-117910000D02*
X123355000Y-118385000D01*
X123830000Y-116910000D02*
X123830000Y-117910000D01*
X124010000Y-116730000D02*
X123830000Y-116910000D01*
X123355000Y-118385000D02*
X123160000Y-118385000D01*
X124010000Y-116100000D02*
X124010000Y-116730000D01*
X122665000Y-107275000D02*
X123160000Y-107275000D01*
X122330000Y-106940000D02*
X122665000Y-107275000D01*
X122100000Y-106940000D02*
X122330000Y-106940000D01*
X123458553Y-112117462D02*
X123658547Y-111917468D01*
X119008547Y-112117462D02*
X123458553Y-112117462D01*
X118658547Y-111767462D02*
X119008547Y-112117462D01*
X117508547Y-111767462D02*
X118658547Y-111767462D01*
X123858547Y-114117462D02*
X123858547Y-113536482D01*
X124010000Y-110615000D02*
X124010000Y-110260000D01*
X124408547Y-111013547D02*
X124010000Y-110615000D01*
X123858547Y-113536482D02*
X124408547Y-112986482D01*
X124408547Y-112986482D02*
X124408547Y-111013547D01*
X122470000Y-115240000D02*
X122310000Y-115400000D01*
X123858547Y-114579457D02*
X123198004Y-115240000D01*
X123198004Y-115240000D02*
X122470000Y-115240000D01*
X118833547Y-113467462D02*
X123658547Y-113467462D01*
X123658547Y-113467462D02*
X123858547Y-113667462D01*
X123858547Y-113667462D02*
X123858547Y-114579457D01*
X118633547Y-113267462D02*
X118833547Y-113467462D01*
X117508547Y-113267462D02*
X118633547Y-113267462D01*
X124358549Y-114696451D02*
X124358549Y-113617462D01*
X124010000Y-115400000D02*
X124010000Y-115045000D01*
X124010000Y-115045000D02*
X124358549Y-114696451D01*
X123958548Y-112567457D02*
X124108547Y-112417458D01*
X123958540Y-112567465D02*
X123958548Y-112567457D01*
X118973550Y-112567465D02*
X123958540Y-112567465D01*
X118673547Y-112267462D02*
X118973550Y-112567465D01*
X117508547Y-112267462D02*
X118673547Y-112267462D01*
X123958547Y-112055326D02*
X124108547Y-112205326D01*
X123040000Y-110260000D02*
X123958547Y-111178547D01*
X124108547Y-112205326D02*
X124108547Y-112417458D01*
X123958547Y-111178547D02*
X123958547Y-112055326D01*
X122310000Y-110260000D02*
X123040000Y-110260000D01*
M02*
