G04 #@! TF.GenerationSoftware,KiCad,Pcbnew,(5.1.4-0-10_14)*
G04 #@! TF.CreationDate,2019-09-18T10:30:13-04:00*
G04 #@! TF.ProjectId,Tympan_BTE_Flex,54796d70-616e-45f4-9254-455f466c6578,rev?*
G04 #@! TF.SameCoordinates,Original*
G04 #@! TF.FileFunction,Legend,Top*
G04 #@! TF.FilePolarity,Positive*
%FSLAX46Y46*%
G04 Gerber Fmt 4.6, Leading zero omitted, Abs format (unit mm)*
G04 Created by KiCad (PCBNEW (5.1.4-0-10_14)) date 2019-09-18 10:30:13*
%MOMM*%
%LPD*%
G04 APERTURE LIST*
%ADD10C,0.125000*%
%ADD11C,0.100000*%
G04 APERTURE END LIST*
D10*
X120113308Y-112106152D02*
X120399023Y-112106152D01*
X120256166Y-112606152D02*
X120256166Y-112106152D01*
X120518070Y-112272819D02*
X120637118Y-112606152D01*
X120756166Y-112272819D02*
X120637118Y-112606152D01*
X120589499Y-112725200D01*
X120565689Y-112749009D01*
X120518070Y-112772819D01*
X120946642Y-112606152D02*
X120946642Y-112272819D01*
X120946642Y-112320438D02*
X120970451Y-112296628D01*
X121018070Y-112272819D01*
X121089499Y-112272819D01*
X121137118Y-112296628D01*
X121160927Y-112344247D01*
X121160927Y-112606152D01*
X121160927Y-112344247D02*
X121184737Y-112296628D01*
X121232356Y-112272819D01*
X121303785Y-112272819D01*
X121351404Y-112296628D01*
X121375213Y-112344247D01*
X121375213Y-112606152D01*
X121613308Y-112272819D02*
X121613308Y-112772819D01*
X121613308Y-112296628D02*
X121660927Y-112272819D01*
X121756166Y-112272819D01*
X121803785Y-112296628D01*
X121827594Y-112320438D01*
X121851404Y-112368057D01*
X121851404Y-112510914D01*
X121827594Y-112558533D01*
X121803785Y-112582342D01*
X121756166Y-112606152D01*
X121660927Y-112606152D01*
X121613308Y-112582342D01*
X122279975Y-112606152D02*
X122279975Y-112344247D01*
X122256166Y-112296628D01*
X122208547Y-112272819D01*
X122113308Y-112272819D01*
X122065689Y-112296628D01*
X122279975Y-112582342D02*
X122232356Y-112606152D01*
X122113308Y-112606152D01*
X122065689Y-112582342D01*
X122041880Y-112534723D01*
X122041880Y-112487104D01*
X122065689Y-112439485D01*
X122113308Y-112415676D01*
X122232356Y-112415676D01*
X122279975Y-112391866D01*
X122518070Y-112272819D02*
X122518070Y-112606152D01*
X122518070Y-112320438D02*
X122541880Y-112296628D01*
X122589499Y-112272819D01*
X122660927Y-112272819D01*
X122708547Y-112296628D01*
X122732356Y-112344247D01*
X122732356Y-112606152D01*
X121077594Y-113219247D02*
X121149023Y-113243057D01*
X121172832Y-113266866D01*
X121196642Y-113314485D01*
X121196642Y-113385914D01*
X121172832Y-113433533D01*
X121149023Y-113457342D01*
X121101404Y-113481152D01*
X120910927Y-113481152D01*
X120910927Y-112981152D01*
X121077594Y-112981152D01*
X121125213Y-113004962D01*
X121149023Y-113028771D01*
X121172832Y-113076390D01*
X121172832Y-113124009D01*
X121149023Y-113171628D01*
X121125213Y-113195438D01*
X121077594Y-113219247D01*
X120910927Y-113219247D01*
X121339499Y-112981152D02*
X121625213Y-112981152D01*
X121482356Y-113481152D02*
X121482356Y-112981152D01*
X121791880Y-113219247D02*
X121958547Y-113219247D01*
X122029975Y-113481152D02*
X121791880Y-113481152D01*
X121791880Y-112981152D01*
X122029975Y-112981152D01*
D11*
X122539499Y-118848414D02*
X122539499Y-118448414D01*
X122672832Y-118734128D01*
X122806166Y-118448414D01*
X122806166Y-118848414D01*
X122996642Y-118848414D02*
X122996642Y-118448414D01*
X123415689Y-118810319D02*
X123396642Y-118829366D01*
X123339499Y-118848414D01*
X123301404Y-118848414D01*
X123244261Y-118829366D01*
X123206166Y-118791271D01*
X123187118Y-118753176D01*
X123168070Y-118676985D01*
X123168070Y-118619842D01*
X123187118Y-118543652D01*
X123206166Y-118505557D01*
X123244261Y-118467462D01*
X123301404Y-118448414D01*
X123339499Y-118448414D01*
X123396642Y-118467462D01*
X123415689Y-118486509D01*
X123796642Y-118848414D02*
X123568070Y-118848414D01*
X123682356Y-118848414D02*
X123682356Y-118448414D01*
X123644261Y-118505557D01*
X123606166Y-118543652D01*
X123568070Y-118562700D01*
X122539499Y-107148414D02*
X122539499Y-106748414D01*
X122672832Y-107034128D01*
X122806166Y-106748414D01*
X122806166Y-107148414D01*
X122996642Y-107148414D02*
X122996642Y-106748414D01*
X123415689Y-107110319D02*
X123396642Y-107129366D01*
X123339499Y-107148414D01*
X123301404Y-107148414D01*
X123244261Y-107129366D01*
X123206166Y-107091271D01*
X123187118Y-107053176D01*
X123168070Y-106976985D01*
X123168070Y-106919842D01*
X123187118Y-106843652D01*
X123206166Y-106805557D01*
X123244261Y-106767462D01*
X123301404Y-106748414D01*
X123339499Y-106748414D01*
X123396642Y-106767462D01*
X123415689Y-106786509D01*
X123568070Y-106786509D02*
X123587118Y-106767462D01*
X123625213Y-106748414D01*
X123720451Y-106748414D01*
X123758547Y-106767462D01*
X123777594Y-106786509D01*
X123796642Y-106824604D01*
X123796642Y-106862700D01*
X123777594Y-106919842D01*
X123549023Y-107148414D01*
X123796642Y-107148414D01*
M02*
