G04 #@! TF.GenerationSoftware,KiCad,Pcbnew,(5.1.4-0-10_14)*
G04 #@! TF.CreationDate,2019-09-18T10:30:13-04:00*
G04 #@! TF.ProjectId,Tympan_BTE_Flex,54796d70-616e-45f4-9254-455f466c6578,rev?*
G04 #@! TF.SameCoordinates,Original*
G04 #@! TF.FileFunction,Legend,Bot*
G04 #@! TF.FilePolarity,Positive*
%FSLAX46Y46*%
G04 Gerber Fmt 4.6, Leading zero omitted, Abs format (unit mm)*
G04 Created by KiCad (PCBNEW (5.1.4-0-10_14)) date 2019-09-18 10:30:13*
%MOMM*%
%LPD*%
G04 APERTURE LIST*
%ADD10C,0.100000*%
G04 APERTURE END LIST*
D10*
X123827594Y-112386509D02*
X124227594Y-112386509D01*
X123941880Y-112253176D01*
X124227594Y-112119842D01*
X123827594Y-112119842D01*
X123827594Y-111929366D02*
X124227594Y-111929366D01*
X123865689Y-111510319D02*
X123846642Y-111529366D01*
X123827594Y-111586509D01*
X123827594Y-111624604D01*
X123846642Y-111681747D01*
X123884737Y-111719842D01*
X123922832Y-111738890D01*
X123999023Y-111757938D01*
X124056166Y-111757938D01*
X124132356Y-111738890D01*
X124170451Y-111719842D01*
X124208547Y-111681747D01*
X124227594Y-111624604D01*
X124227594Y-111586509D01*
X124208547Y-111529366D01*
X124189499Y-111510319D01*
X124189499Y-111357938D02*
X124208547Y-111338890D01*
X124227594Y-111300795D01*
X124227594Y-111205557D01*
X124208547Y-111167462D01*
X124189499Y-111148414D01*
X124151404Y-111129366D01*
X124113308Y-111129366D01*
X124056166Y-111148414D01*
X123827594Y-111376985D01*
X123827594Y-111129366D01*
X123827594Y-114486509D02*
X124227594Y-114486509D01*
X123941880Y-114353176D01*
X124227594Y-114219842D01*
X123827594Y-114219842D01*
X123827594Y-114029366D02*
X124227594Y-114029366D01*
X123865689Y-113610319D02*
X123846642Y-113629366D01*
X123827594Y-113686509D01*
X123827594Y-113724604D01*
X123846642Y-113781747D01*
X123884737Y-113819842D01*
X123922832Y-113838890D01*
X123999023Y-113857938D01*
X124056166Y-113857938D01*
X124132356Y-113838890D01*
X124170451Y-113819842D01*
X124208547Y-113781747D01*
X124227594Y-113724604D01*
X124227594Y-113686509D01*
X124208547Y-113629366D01*
X124189499Y-113610319D01*
X123827594Y-113229366D02*
X123827594Y-113457938D01*
X123827594Y-113343652D02*
X124227594Y-113343652D01*
X124170451Y-113381747D01*
X124132356Y-113419842D01*
X124113308Y-113457938D01*
X124660000Y-114900000D02*
X121660000Y-114900000D01*
X124660000Y-118900000D02*
X124660000Y-114900000D01*
X121660000Y-118900000D02*
X124660000Y-118900000D01*
X121660000Y-114900000D02*
X121660000Y-118900000D01*
X121660000Y-110760000D02*
X124660000Y-110760000D01*
X121660000Y-106760000D02*
X121660000Y-110760000D01*
X124660000Y-106760000D02*
X121660000Y-106760000D01*
X124660000Y-110760000D02*
X124660000Y-106760000D01*
M02*
