G04 #@! TF.GenerationSoftware,KiCad,Pcbnew,(5.1.4-0-10_14)*
G04 #@! TF.CreationDate,2019-09-19T16:40:19-04:00*
G04 #@! TF.ProjectId,Tympan_BTE_RIGID,54796d70-616e-45f4-9254-455f52494749,V1*
G04 #@! TF.SameCoordinates,Original*
G04 #@! TF.FileFunction,Paste,Top*
G04 #@! TF.FilePolarity,Positive*
%FSLAX46Y46*%
G04 Gerber Fmt 4.6, Leading zero omitted, Abs format (unit mm)*
G04 Created by KiCad (PCBNEW (5.1.4-0-10_14)) date 2019-09-19 16:40:19*
%MOMM*%
%LPD*%
G04 APERTURE LIST*
%ADD10C,0.100000*%
%ADD11C,0.318000*%
G04 APERTURE END LIST*
D10*
G36*
X125786475Y-90261687D02*
G01*
X125794193Y-90262832D01*
X125801761Y-90264727D01*
X125809106Y-90267356D01*
X125816159Y-90270691D01*
X125822851Y-90274702D01*
X125829117Y-90279350D01*
X125834898Y-90284589D01*
X125840137Y-90290370D01*
X125844785Y-90296636D01*
X125848796Y-90303328D01*
X125852131Y-90310381D01*
X125854760Y-90317726D01*
X125856655Y-90325294D01*
X125857800Y-90333012D01*
X125858183Y-90340804D01*
X125858183Y-90541804D01*
X125857800Y-90549596D01*
X125856655Y-90557314D01*
X125854760Y-90564882D01*
X125852131Y-90572227D01*
X125848796Y-90579280D01*
X125844785Y-90585972D01*
X125840137Y-90592238D01*
X125834898Y-90598019D01*
X125829117Y-90603258D01*
X125822851Y-90607906D01*
X125816159Y-90611917D01*
X125809106Y-90615252D01*
X125801761Y-90617881D01*
X125794193Y-90619776D01*
X125786475Y-90620921D01*
X125778683Y-90621304D01*
X125619683Y-90621304D01*
X125611891Y-90620921D01*
X125604173Y-90619776D01*
X125596605Y-90617881D01*
X125589260Y-90615252D01*
X125582207Y-90611917D01*
X125575515Y-90607906D01*
X125569249Y-90603258D01*
X125563468Y-90598019D01*
X125558229Y-90592238D01*
X125553581Y-90585972D01*
X125549570Y-90579280D01*
X125546235Y-90572227D01*
X125543606Y-90564882D01*
X125541711Y-90557314D01*
X125540566Y-90549596D01*
X125540183Y-90541804D01*
X125540183Y-90340804D01*
X125540566Y-90333012D01*
X125541711Y-90325294D01*
X125543606Y-90317726D01*
X125546235Y-90310381D01*
X125549570Y-90303328D01*
X125553581Y-90296636D01*
X125558229Y-90290370D01*
X125563468Y-90284589D01*
X125569249Y-90279350D01*
X125575515Y-90274702D01*
X125582207Y-90270691D01*
X125589260Y-90267356D01*
X125596605Y-90264727D01*
X125604173Y-90262832D01*
X125611891Y-90261687D01*
X125619683Y-90261304D01*
X125778683Y-90261304D01*
X125786475Y-90261687D01*
X125786475Y-90261687D01*
G37*
D11*
X125699183Y-90441304D03*
D10*
G36*
X125096475Y-90261687D02*
G01*
X125104193Y-90262832D01*
X125111761Y-90264727D01*
X125119106Y-90267356D01*
X125126159Y-90270691D01*
X125132851Y-90274702D01*
X125139117Y-90279350D01*
X125144898Y-90284589D01*
X125150137Y-90290370D01*
X125154785Y-90296636D01*
X125158796Y-90303328D01*
X125162131Y-90310381D01*
X125164760Y-90317726D01*
X125166655Y-90325294D01*
X125167800Y-90333012D01*
X125168183Y-90340804D01*
X125168183Y-90541804D01*
X125167800Y-90549596D01*
X125166655Y-90557314D01*
X125164760Y-90564882D01*
X125162131Y-90572227D01*
X125158796Y-90579280D01*
X125154785Y-90585972D01*
X125150137Y-90592238D01*
X125144898Y-90598019D01*
X125139117Y-90603258D01*
X125132851Y-90607906D01*
X125126159Y-90611917D01*
X125119106Y-90615252D01*
X125111761Y-90617881D01*
X125104193Y-90619776D01*
X125096475Y-90620921D01*
X125088683Y-90621304D01*
X124929683Y-90621304D01*
X124921891Y-90620921D01*
X124914173Y-90619776D01*
X124906605Y-90617881D01*
X124899260Y-90615252D01*
X124892207Y-90611917D01*
X124885515Y-90607906D01*
X124879249Y-90603258D01*
X124873468Y-90598019D01*
X124868229Y-90592238D01*
X124863581Y-90585972D01*
X124859570Y-90579280D01*
X124856235Y-90572227D01*
X124853606Y-90564882D01*
X124851711Y-90557314D01*
X124850566Y-90549596D01*
X124850183Y-90541804D01*
X124850183Y-90340804D01*
X124850566Y-90333012D01*
X124851711Y-90325294D01*
X124853606Y-90317726D01*
X124856235Y-90310381D01*
X124859570Y-90303328D01*
X124863581Y-90296636D01*
X124868229Y-90290370D01*
X124873468Y-90284589D01*
X124879249Y-90279350D01*
X124885515Y-90274702D01*
X124892207Y-90270691D01*
X124899260Y-90267356D01*
X124906605Y-90264727D01*
X124914173Y-90262832D01*
X124921891Y-90261687D01*
X124929683Y-90261304D01*
X125088683Y-90261304D01*
X125096475Y-90261687D01*
X125096475Y-90261687D01*
G37*
D11*
X125009183Y-90441304D03*
M02*
