G04 #@! TF.GenerationSoftware,KiCad,Pcbnew,(5.1.4-0-10_14)*
G04 #@! TF.CreationDate,2019-09-19T16:40:19-04:00*
G04 #@! TF.ProjectId,Tympan_BTE_RIGID,54796d70-616e-45f4-9254-455f52494749,V1*
G04 #@! TF.SameCoordinates,Original*
G04 #@! TF.FileFunction,Soldermask,Bot*
G04 #@! TF.FilePolarity,Negative*
%FSLAX46Y46*%
G04 Gerber Fmt 4.6, Leading zero omitted, Abs format (unit mm)*
G04 Created by KiCad (PCBNEW (5.1.4-0-10_14)) date 2019-09-19 16:40:19*
%MOMM*%
%LPD*%
G04 APERTURE LIST*
%ADD10C,0.100000*%
G04 APERTURE END LIST*
D10*
G36*
X124504353Y-94462107D02*
G01*
X124516060Y-94465659D01*
X124535260Y-94475921D01*
X124557899Y-94485298D01*
X124581932Y-94490078D01*
X124606436Y-94490078D01*
X124630469Y-94485297D01*
X124653106Y-94475921D01*
X124672306Y-94465659D01*
X124684013Y-94462107D01*
X124702321Y-94460304D01*
X125126045Y-94460304D01*
X125144353Y-94462107D01*
X125156058Y-94465658D01*
X125166848Y-94471425D01*
X125176302Y-94479185D01*
X125184062Y-94488639D01*
X125189829Y-94499429D01*
X125193380Y-94511134D01*
X125195183Y-94529442D01*
X125195183Y-94893166D01*
X125193380Y-94911474D01*
X125189829Y-94923179D01*
X125184062Y-94933969D01*
X125176302Y-94943423D01*
X125166848Y-94951183D01*
X125156058Y-94956950D01*
X125144353Y-94960501D01*
X125126045Y-94962304D01*
X124702321Y-94962304D01*
X124684013Y-94960501D01*
X124672306Y-94956949D01*
X124653106Y-94946687D01*
X124630467Y-94937310D01*
X124606434Y-94932530D01*
X124581930Y-94932530D01*
X124557897Y-94937311D01*
X124535260Y-94946687D01*
X124516060Y-94956949D01*
X124504353Y-94960501D01*
X124486045Y-94962304D01*
X124062321Y-94962304D01*
X124044013Y-94960501D01*
X124032308Y-94956950D01*
X124021518Y-94951183D01*
X124012064Y-94943423D01*
X124004304Y-94933969D01*
X123998537Y-94923179D01*
X123994986Y-94911474D01*
X123993183Y-94893166D01*
X123993183Y-94529442D01*
X123994986Y-94511134D01*
X123998537Y-94499429D01*
X124004304Y-94488639D01*
X124012064Y-94479185D01*
X124021518Y-94471425D01*
X124032308Y-94465658D01*
X124044013Y-94462107D01*
X124062321Y-94460304D01*
X124486045Y-94460304D01*
X124504353Y-94462107D01*
X124504353Y-94462107D01*
G37*
G36*
X127290183Y-94562304D02*
G01*
X126388183Y-94562304D01*
X126388183Y-93940304D01*
X127290183Y-93940304D01*
X127290183Y-94562304D01*
X127290183Y-94562304D01*
G37*
G36*
X128290183Y-93562304D02*
G01*
X127338183Y-93562304D01*
X127338183Y-91660304D01*
X128290183Y-91660304D01*
X128290183Y-93562304D01*
X128290183Y-93562304D01*
G37*
G36*
X127290183Y-91282304D02*
G01*
X126388183Y-91282304D01*
X126388183Y-90660304D01*
X127290183Y-90660304D01*
X127290183Y-91282304D01*
X127290183Y-91282304D01*
G37*
G36*
X125983164Y-88698832D02*
G01*
X126107086Y-88715147D01*
X126107093Y-88715149D01*
X126229042Y-88731204D01*
X126229042Y-88731203D01*
X126825892Y-88809780D01*
X126682052Y-89902353D01*
X126085202Y-89823776D01*
X125961280Y-89807461D01*
X125961273Y-89807459D01*
X125839324Y-89791404D01*
X125839324Y-89791405D01*
X125242474Y-89712828D01*
X125386314Y-88620255D01*
X125983164Y-88698832D01*
X125983164Y-88698832D01*
G37*
M02*
