G04 #@! TF.GenerationSoftware,KiCad,Pcbnew,(5.1.4-0-10_14)*
G04 #@! TF.CreationDate,2019-09-19T16:40:19-04:00*
G04 #@! TF.ProjectId,Tympan_BTE_RIGID,54796d70-616e-45f4-9254-455f52494749,V1*
G04 #@! TF.SameCoordinates,Original*
G04 #@! TF.FileFunction,Soldermask,Top*
G04 #@! TF.FilePolarity,Negative*
%FSLAX46Y46*%
G04 Gerber Fmt 4.6, Leading zero omitted, Abs format (unit mm)*
G04 Created by KiCad (PCBNEW (5.1.4-0-10_14)) date 2019-09-19 16:40:19*
%MOMM*%
%LPD*%
G04 APERTURE LIST*
%ADD10C,0.100000*%
G04 APERTURE END LIST*
D10*
G36*
X128000183Y-93082304D02*
G01*
X124048183Y-93082304D01*
X124048183Y-90980304D01*
X128000183Y-90980304D01*
X128000183Y-93082304D01*
X128000183Y-93082304D01*
G37*
G36*
X125264353Y-90192107D02*
G01*
X125276060Y-90195659D01*
X125295260Y-90205921D01*
X125317899Y-90215298D01*
X125341932Y-90220078D01*
X125366436Y-90220078D01*
X125390469Y-90215297D01*
X125413106Y-90205921D01*
X125432306Y-90195659D01*
X125444013Y-90192107D01*
X125462321Y-90190304D01*
X125886045Y-90190304D01*
X125904353Y-90192107D01*
X125916058Y-90195658D01*
X125926848Y-90201425D01*
X125936302Y-90209185D01*
X125944062Y-90218639D01*
X125949829Y-90229429D01*
X125953380Y-90241134D01*
X125955183Y-90259442D01*
X125955183Y-90623166D01*
X125953380Y-90641474D01*
X125949829Y-90653179D01*
X125944062Y-90663969D01*
X125936302Y-90673423D01*
X125926848Y-90681183D01*
X125916058Y-90686950D01*
X125904353Y-90690501D01*
X125886045Y-90692304D01*
X125462321Y-90692304D01*
X125444013Y-90690501D01*
X125432306Y-90686949D01*
X125413106Y-90676687D01*
X125390467Y-90667310D01*
X125366434Y-90662530D01*
X125341930Y-90662530D01*
X125317897Y-90667311D01*
X125295260Y-90676687D01*
X125276060Y-90686949D01*
X125264353Y-90690501D01*
X125246045Y-90692304D01*
X124822321Y-90692304D01*
X124804013Y-90690501D01*
X124792308Y-90686950D01*
X124781518Y-90681183D01*
X124772064Y-90673423D01*
X124764304Y-90663969D01*
X124758537Y-90653179D01*
X124754986Y-90641474D01*
X124753183Y-90623166D01*
X124753183Y-90259442D01*
X124754986Y-90241134D01*
X124758537Y-90229429D01*
X124764304Y-90218639D01*
X124772064Y-90209185D01*
X124781518Y-90201425D01*
X124792308Y-90195658D01*
X124804013Y-90192107D01*
X124822321Y-90190304D01*
X125246045Y-90190304D01*
X125264353Y-90192107D01*
X125264353Y-90192107D01*
G37*
G36*
X125983164Y-88698832D02*
G01*
X126107086Y-88715147D01*
X126107093Y-88715149D01*
X126229042Y-88731204D01*
X126229042Y-88731203D01*
X126825892Y-88809780D01*
X126682052Y-89902353D01*
X126085202Y-89823776D01*
X125961280Y-89807461D01*
X125961273Y-89807459D01*
X125839324Y-89791404D01*
X125839324Y-89791405D01*
X125242474Y-89712828D01*
X125386314Y-88620255D01*
X125983164Y-88698832D01*
X125983164Y-88698832D01*
G37*
M02*
