G04 #@! TF.GenerationSoftware,KiCad,Pcbnew,(5.1.4-0-10_14)*
G04 #@! TF.CreationDate,2019-09-19T16:40:19-04:00*
G04 #@! TF.ProjectId,Tympan_BTE_RIGID,54796d70-616e-45f4-9254-455f52494749,V1*
G04 #@! TF.SameCoordinates,Original*
G04 #@! TF.FileFunction,Copper,L2,Bot*
G04 #@! TF.FilePolarity,Positive*
%FSLAX46Y46*%
G04 Gerber Fmt 4.6, Leading zero omitted, Abs format (unit mm)*
G04 Created by KiCad (PCBNEW (5.1.4-0-10_14)) date 2019-09-19 16:40:19*
%MOMM*%
%LPD*%
G04 APERTURE LIST*
%ADD10C,0.500000*%
%ADD11C,0.100000*%
%ADD12R,0.850000X0.300000*%
%ADD13R,0.800000X0.520000*%
%ADD14C,0.400000*%
G04 APERTURE END LIST*
D10*
X125612819Y-89205830D03*
D11*
G36*
X125299695Y-89668921D02*
G01*
X125430221Y-88677476D01*
X125925943Y-88742739D01*
X125795417Y-89734184D01*
X125299695Y-89668921D01*
X125299695Y-89668921D01*
G37*
D10*
X126455547Y-89316778D03*
D11*
G36*
X126142423Y-89779869D02*
G01*
X126272949Y-88788424D01*
X126768671Y-88853687D01*
X126638145Y-89845132D01*
X126142423Y-89779869D01*
X126142423Y-89779869D01*
G37*
D12*
X127814183Y-91861304D03*
X127814183Y-92361304D03*
X127814183Y-92861304D03*
X127814183Y-93361304D03*
D13*
X126839183Y-94251304D03*
X126839183Y-90971304D03*
D11*
G36*
X124413985Y-94511786D02*
G01*
X124423692Y-94513225D01*
X124433211Y-94515610D01*
X124442451Y-94518916D01*
X124451323Y-94523112D01*
X124459740Y-94528157D01*
X124467622Y-94534003D01*
X124474894Y-94540593D01*
X124481484Y-94547865D01*
X124487330Y-94555747D01*
X124492375Y-94564164D01*
X124496571Y-94573036D01*
X124499877Y-94582276D01*
X124502262Y-94591795D01*
X124503701Y-94601502D01*
X124504183Y-94611304D01*
X124504183Y-94811304D01*
X124503701Y-94821106D01*
X124502262Y-94830813D01*
X124499877Y-94840332D01*
X124496571Y-94849572D01*
X124492375Y-94858444D01*
X124487330Y-94866861D01*
X124481484Y-94874743D01*
X124474894Y-94882015D01*
X124467622Y-94888605D01*
X124459740Y-94894451D01*
X124451323Y-94899496D01*
X124442451Y-94903692D01*
X124433211Y-94906998D01*
X124423692Y-94909383D01*
X124413985Y-94910822D01*
X124404183Y-94911304D01*
X124144183Y-94911304D01*
X124134381Y-94910822D01*
X124124674Y-94909383D01*
X124115155Y-94906998D01*
X124105915Y-94903692D01*
X124097043Y-94899496D01*
X124088626Y-94894451D01*
X124080744Y-94888605D01*
X124073472Y-94882015D01*
X124066882Y-94874743D01*
X124061036Y-94866861D01*
X124055991Y-94858444D01*
X124051795Y-94849572D01*
X124048489Y-94840332D01*
X124046104Y-94830813D01*
X124044665Y-94821106D01*
X124044183Y-94811304D01*
X124044183Y-94611304D01*
X124044665Y-94601502D01*
X124046104Y-94591795D01*
X124048489Y-94582276D01*
X124051795Y-94573036D01*
X124055991Y-94564164D01*
X124061036Y-94555747D01*
X124066882Y-94547865D01*
X124073472Y-94540593D01*
X124080744Y-94534003D01*
X124088626Y-94528157D01*
X124097043Y-94523112D01*
X124105915Y-94518916D01*
X124115155Y-94515610D01*
X124124674Y-94513225D01*
X124134381Y-94511786D01*
X124144183Y-94511304D01*
X124404183Y-94511304D01*
X124413985Y-94511786D01*
X124413985Y-94511786D01*
G37*
D14*
X124274183Y-94711304D03*
D11*
G36*
X125053985Y-94511786D02*
G01*
X125063692Y-94513225D01*
X125073211Y-94515610D01*
X125082451Y-94518916D01*
X125091323Y-94523112D01*
X125099740Y-94528157D01*
X125107622Y-94534003D01*
X125114894Y-94540593D01*
X125121484Y-94547865D01*
X125127330Y-94555747D01*
X125132375Y-94564164D01*
X125136571Y-94573036D01*
X125139877Y-94582276D01*
X125142262Y-94591795D01*
X125143701Y-94601502D01*
X125144183Y-94611304D01*
X125144183Y-94811304D01*
X125143701Y-94821106D01*
X125142262Y-94830813D01*
X125139877Y-94840332D01*
X125136571Y-94849572D01*
X125132375Y-94858444D01*
X125127330Y-94866861D01*
X125121484Y-94874743D01*
X125114894Y-94882015D01*
X125107622Y-94888605D01*
X125099740Y-94894451D01*
X125091323Y-94899496D01*
X125082451Y-94903692D01*
X125073211Y-94906998D01*
X125063692Y-94909383D01*
X125053985Y-94910822D01*
X125044183Y-94911304D01*
X124784183Y-94911304D01*
X124774381Y-94910822D01*
X124764674Y-94909383D01*
X124755155Y-94906998D01*
X124745915Y-94903692D01*
X124737043Y-94899496D01*
X124728626Y-94894451D01*
X124720744Y-94888605D01*
X124713472Y-94882015D01*
X124706882Y-94874743D01*
X124701036Y-94866861D01*
X124695991Y-94858444D01*
X124691795Y-94849572D01*
X124688489Y-94840332D01*
X124686104Y-94830813D01*
X124684665Y-94821106D01*
X124684183Y-94811304D01*
X124684183Y-94611304D01*
X124684665Y-94601502D01*
X124686104Y-94591795D01*
X124688489Y-94582276D01*
X124691795Y-94573036D01*
X124695991Y-94564164D01*
X124701036Y-94555747D01*
X124706882Y-94547865D01*
X124713472Y-94540593D01*
X124720744Y-94534003D01*
X124728626Y-94528157D01*
X124737043Y-94523112D01*
X124745915Y-94518916D01*
X124755155Y-94515610D01*
X124764674Y-94513225D01*
X124774381Y-94511786D01*
X124784183Y-94511304D01*
X125044183Y-94511304D01*
X125053985Y-94511786D01*
X125053985Y-94511786D01*
G37*
D14*
X124914183Y-94711304D03*
X126774187Y-90271304D03*
X124274183Y-93531314D03*
X125674183Y-93531296D03*
X124974183Y-93531306D03*
X124274183Y-90441304D03*
X127744183Y-94251304D03*
X127421729Y-90216951D03*
D11*
X125594183Y-89221304D02*
X125514183Y-89301304D01*
X125514183Y-89524156D02*
X126261331Y-90271304D01*
X126261331Y-90271304D02*
X126491345Y-90271304D01*
X125514183Y-89301304D02*
X125514183Y-89524156D01*
X126491345Y-90271304D02*
X126774187Y-90271304D01*
X124274183Y-94711304D02*
X124274183Y-93531314D01*
X126344175Y-92861304D02*
X125874182Y-93331297D01*
X127794183Y-92861304D02*
X126344175Y-92861304D01*
X125874182Y-93331297D02*
X125674183Y-93531296D01*
X127814183Y-92371304D02*
X125851343Y-92371304D01*
X124974183Y-93248464D02*
X124974183Y-93531306D01*
X125851343Y-92371304D02*
X124974183Y-93248464D01*
X126839183Y-94251304D02*
X127744183Y-94251304D01*
X126536082Y-89331304D02*
X127221730Y-90016952D01*
X127221730Y-90016952D02*
X127421729Y-90216951D01*
X126474183Y-89331304D02*
X126536082Y-89331304D01*
X127744183Y-93361304D02*
X127764183Y-93341304D01*
X126494183Y-93361304D02*
X127744183Y-93361304D01*
X125144183Y-94711304D02*
X126494183Y-93361304D01*
X124914183Y-94711304D02*
X125144183Y-94711304D01*
G36*
X125208851Y-88560297D02*
G01*
X125192344Y-88596728D01*
X125181161Y-88644687D01*
X125050635Y-89636132D01*
X125049024Y-89685351D01*
X125057046Y-89733939D01*
X125074393Y-89780028D01*
X125100398Y-89821847D01*
X125134061Y-89857790D01*
X125174091Y-89886474D01*
X125218947Y-89906798D01*
X125266906Y-89917981D01*
X125516620Y-89950856D01*
X126038782Y-90473019D01*
X126048173Y-90484462D01*
X126059616Y-90493853D01*
X126093853Y-90521951D01*
X126145970Y-90549808D01*
X126159132Y-90553801D01*
X126202521Y-90566963D01*
X126231858Y-90569852D01*
X126230310Y-90571739D01*
X126207095Y-90615170D01*
X126192800Y-90662295D01*
X126187973Y-90711304D01*
X126189183Y-90858804D01*
X126251683Y-90921304D01*
X126789183Y-90921304D01*
X126789183Y-90901304D01*
X126889183Y-90901304D01*
X126889183Y-90921304D01*
X127426683Y-90921304D01*
X127489183Y-90858804D01*
X127490393Y-90711304D01*
X127485641Y-90663054D01*
X127552989Y-90649657D01*
X127634884Y-90615736D01*
X127708587Y-90566489D01*
X127771267Y-90503809D01*
X127820514Y-90430106D01*
X127843180Y-90375383D01*
X127867839Y-90395623D01*
X127881038Y-90404452D01*
X127894084Y-90413444D01*
X127896229Y-90414613D01*
X127965043Y-90451477D01*
X127979698Y-90457570D01*
X127994248Y-90463860D01*
X127996580Y-90464590D01*
X128071243Y-90487386D01*
X128086793Y-90490515D01*
X128102299Y-90493861D01*
X128104724Y-90494124D01*
X128104728Y-90494124D01*
X128133835Y-90497069D01*
X128324490Y-91475932D01*
X128288192Y-91464921D01*
X128239183Y-91460094D01*
X127926683Y-91461304D01*
X127864183Y-91523804D01*
X127864183Y-91811304D01*
X127884183Y-91811304D01*
X127884183Y-91911304D01*
X127864183Y-91911304D01*
X127864183Y-91931304D01*
X127764183Y-91931304D01*
X127764183Y-91911304D01*
X127201683Y-91911304D01*
X127139183Y-91973804D01*
X127137973Y-92011304D01*
X127142800Y-92060313D01*
X127146134Y-92071304D01*
X125866073Y-92071304D01*
X125851343Y-92069853D01*
X125836613Y-92071304D01*
X125836610Y-92071304D01*
X125792533Y-92075645D01*
X125735983Y-92092800D01*
X125683865Y-92120657D01*
X125649629Y-92148754D01*
X125638185Y-92158146D01*
X125628794Y-92169589D01*
X124772473Y-93025911D01*
X124761025Y-93035306D01*
X124740880Y-93059854D01*
X124723536Y-93080987D01*
X124714122Y-93098600D01*
X124695679Y-93133105D01*
X124678524Y-93189655D01*
X124678424Y-93190669D01*
X124624645Y-93244448D01*
X124624180Y-93245143D01*
X124623721Y-93244456D01*
X124561041Y-93181776D01*
X124487338Y-93132529D01*
X124405443Y-93098608D01*
X124318504Y-93081314D01*
X124229862Y-93081314D01*
X124142923Y-93098608D01*
X124061028Y-93132529D01*
X123987325Y-93181776D01*
X123924645Y-93244456D01*
X123875398Y-93318159D01*
X123841477Y-93400054D01*
X123824183Y-93486993D01*
X123824183Y-93575635D01*
X123841477Y-93662574D01*
X123875398Y-93744469D01*
X123924645Y-93818172D01*
X123974184Y-93867711D01*
X123974183Y-94305856D01*
X123949062Y-94319284D01*
X123895841Y-94362962D01*
X123852163Y-94416183D01*
X123819708Y-94476902D01*
X123799722Y-94542787D01*
X123792974Y-94611304D01*
X123792974Y-94811304D01*
X123797662Y-94858908D01*
X123774521Y-94858920D01*
X123611408Y-93815303D01*
X123610310Y-91711304D01*
X127137973Y-91711304D01*
X127139183Y-91748804D01*
X127201683Y-91811304D01*
X127764183Y-91811304D01*
X127764183Y-91523804D01*
X127701683Y-91461304D01*
X127389183Y-91460094D01*
X127340174Y-91464921D01*
X127293049Y-91479216D01*
X127249618Y-91502431D01*
X127211551Y-91533672D01*
X127180310Y-91571739D01*
X127157095Y-91615170D01*
X127142800Y-91662295D01*
X127137973Y-91711304D01*
X123610310Y-91711304D01*
X123610163Y-91429639D01*
X123663124Y-91231304D01*
X126187973Y-91231304D01*
X126192800Y-91280313D01*
X126207095Y-91327438D01*
X126230310Y-91370869D01*
X126261551Y-91408936D01*
X126299618Y-91440177D01*
X126343049Y-91463392D01*
X126390174Y-91477687D01*
X126439183Y-91482514D01*
X126726683Y-91481304D01*
X126789183Y-91418804D01*
X126789183Y-91021304D01*
X126889183Y-91021304D01*
X126889183Y-91418804D01*
X126951683Y-91481304D01*
X127239183Y-91482514D01*
X127288192Y-91477687D01*
X127335317Y-91463392D01*
X127378748Y-91440177D01*
X127416815Y-91408936D01*
X127448056Y-91370869D01*
X127471271Y-91327438D01*
X127485566Y-91280313D01*
X127490393Y-91231304D01*
X127489183Y-91083804D01*
X127426683Y-91021304D01*
X126889183Y-91021304D01*
X126789183Y-91021304D01*
X126251683Y-91021304D01*
X126189183Y-91083804D01*
X126187973Y-91231304D01*
X123663124Y-91231304D01*
X124006786Y-89944334D01*
X124043980Y-89942613D01*
X124059687Y-89940336D01*
X124075404Y-89938281D01*
X124077780Y-89937713D01*
X124153577Y-89919027D01*
X124168531Y-89913747D01*
X124183564Y-89908673D01*
X124185784Y-89907654D01*
X124256509Y-89874601D01*
X124270143Y-89866522D01*
X124283910Y-89858622D01*
X124285890Y-89857191D01*
X124348847Y-89811031D01*
X124360641Y-89800468D01*
X124372624Y-89790033D01*
X124374289Y-89788245D01*
X124427081Y-89730736D01*
X124436631Y-89718040D01*
X124446327Y-89705517D01*
X124447613Y-89703440D01*
X124488229Y-89636771D01*
X124495097Y-89622531D01*
X124502209Y-89608299D01*
X124503066Y-89606011D01*
X124529960Y-89532724D01*
X124533932Y-89517424D01*
X124538145Y-89502076D01*
X124538542Y-89499666D01*
X124550689Y-89422549D01*
X124551616Y-89406707D01*
X124552764Y-89390893D01*
X124552685Y-89388451D01*
X124549621Y-89310445D01*
X124547454Y-89294722D01*
X124545509Y-89278994D01*
X124544958Y-89276615D01*
X124526801Y-89200688D01*
X124521623Y-89185692D01*
X124516657Y-89170630D01*
X124515657Y-89168409D01*
X124515655Y-89168404D01*
X124515652Y-89168400D01*
X124483096Y-89097450D01*
X124475124Y-89083779D01*
X124467308Y-89069936D01*
X124465891Y-89067946D01*
X124420170Y-89004668D01*
X124409684Y-88992794D01*
X124399338Y-88980744D01*
X124397561Y-88979067D01*
X124340421Y-88925875D01*
X124327842Y-88916275D01*
X124315341Y-88906455D01*
X124313272Y-88905155D01*
X124288391Y-88889757D01*
X124404639Y-88454421D01*
X125208851Y-88560297D01*
X125208851Y-88560297D01*
G37*
X125208851Y-88560297D02*
X125192344Y-88596728D01*
X125181161Y-88644687D01*
X125050635Y-89636132D01*
X125049024Y-89685351D01*
X125057046Y-89733939D01*
X125074393Y-89780028D01*
X125100398Y-89821847D01*
X125134061Y-89857790D01*
X125174091Y-89886474D01*
X125218947Y-89906798D01*
X125266906Y-89917981D01*
X125516620Y-89950856D01*
X126038782Y-90473019D01*
X126048173Y-90484462D01*
X126059616Y-90493853D01*
X126093853Y-90521951D01*
X126145970Y-90549808D01*
X126159132Y-90553801D01*
X126202521Y-90566963D01*
X126231858Y-90569852D01*
X126230310Y-90571739D01*
X126207095Y-90615170D01*
X126192800Y-90662295D01*
X126187973Y-90711304D01*
X126189183Y-90858804D01*
X126251683Y-90921304D01*
X126789183Y-90921304D01*
X126789183Y-90901304D01*
X126889183Y-90901304D01*
X126889183Y-90921304D01*
X127426683Y-90921304D01*
X127489183Y-90858804D01*
X127490393Y-90711304D01*
X127485641Y-90663054D01*
X127552989Y-90649657D01*
X127634884Y-90615736D01*
X127708587Y-90566489D01*
X127771267Y-90503809D01*
X127820514Y-90430106D01*
X127843180Y-90375383D01*
X127867839Y-90395623D01*
X127881038Y-90404452D01*
X127894084Y-90413444D01*
X127896229Y-90414613D01*
X127965043Y-90451477D01*
X127979698Y-90457570D01*
X127994248Y-90463860D01*
X127996580Y-90464590D01*
X128071243Y-90487386D01*
X128086793Y-90490515D01*
X128102299Y-90493861D01*
X128104724Y-90494124D01*
X128104728Y-90494124D01*
X128133835Y-90497069D01*
X128324490Y-91475932D01*
X128288192Y-91464921D01*
X128239183Y-91460094D01*
X127926683Y-91461304D01*
X127864183Y-91523804D01*
X127864183Y-91811304D01*
X127884183Y-91811304D01*
X127884183Y-91911304D01*
X127864183Y-91911304D01*
X127864183Y-91931304D01*
X127764183Y-91931304D01*
X127764183Y-91911304D01*
X127201683Y-91911304D01*
X127139183Y-91973804D01*
X127137973Y-92011304D01*
X127142800Y-92060313D01*
X127146134Y-92071304D01*
X125866073Y-92071304D01*
X125851343Y-92069853D01*
X125836613Y-92071304D01*
X125836610Y-92071304D01*
X125792533Y-92075645D01*
X125735983Y-92092800D01*
X125683865Y-92120657D01*
X125649629Y-92148754D01*
X125638185Y-92158146D01*
X125628794Y-92169589D01*
X124772473Y-93025911D01*
X124761025Y-93035306D01*
X124740880Y-93059854D01*
X124723536Y-93080987D01*
X124714122Y-93098600D01*
X124695679Y-93133105D01*
X124678524Y-93189655D01*
X124678424Y-93190669D01*
X124624645Y-93244448D01*
X124624180Y-93245143D01*
X124623721Y-93244456D01*
X124561041Y-93181776D01*
X124487338Y-93132529D01*
X124405443Y-93098608D01*
X124318504Y-93081314D01*
X124229862Y-93081314D01*
X124142923Y-93098608D01*
X124061028Y-93132529D01*
X123987325Y-93181776D01*
X123924645Y-93244456D01*
X123875398Y-93318159D01*
X123841477Y-93400054D01*
X123824183Y-93486993D01*
X123824183Y-93575635D01*
X123841477Y-93662574D01*
X123875398Y-93744469D01*
X123924645Y-93818172D01*
X123974184Y-93867711D01*
X123974183Y-94305856D01*
X123949062Y-94319284D01*
X123895841Y-94362962D01*
X123852163Y-94416183D01*
X123819708Y-94476902D01*
X123799722Y-94542787D01*
X123792974Y-94611304D01*
X123792974Y-94811304D01*
X123797662Y-94858908D01*
X123774521Y-94858920D01*
X123611408Y-93815303D01*
X123610310Y-91711304D01*
X127137973Y-91711304D01*
X127139183Y-91748804D01*
X127201683Y-91811304D01*
X127764183Y-91811304D01*
X127764183Y-91523804D01*
X127701683Y-91461304D01*
X127389183Y-91460094D01*
X127340174Y-91464921D01*
X127293049Y-91479216D01*
X127249618Y-91502431D01*
X127211551Y-91533672D01*
X127180310Y-91571739D01*
X127157095Y-91615170D01*
X127142800Y-91662295D01*
X127137973Y-91711304D01*
X123610310Y-91711304D01*
X123610163Y-91429639D01*
X123663124Y-91231304D01*
X126187973Y-91231304D01*
X126192800Y-91280313D01*
X126207095Y-91327438D01*
X126230310Y-91370869D01*
X126261551Y-91408936D01*
X126299618Y-91440177D01*
X126343049Y-91463392D01*
X126390174Y-91477687D01*
X126439183Y-91482514D01*
X126726683Y-91481304D01*
X126789183Y-91418804D01*
X126789183Y-91021304D01*
X126889183Y-91021304D01*
X126889183Y-91418804D01*
X126951683Y-91481304D01*
X127239183Y-91482514D01*
X127288192Y-91477687D01*
X127335317Y-91463392D01*
X127378748Y-91440177D01*
X127416815Y-91408936D01*
X127448056Y-91370869D01*
X127471271Y-91327438D01*
X127485566Y-91280313D01*
X127490393Y-91231304D01*
X127489183Y-91083804D01*
X127426683Y-91021304D01*
X126889183Y-91021304D01*
X126789183Y-91021304D01*
X126251683Y-91021304D01*
X126189183Y-91083804D01*
X126187973Y-91231304D01*
X123663124Y-91231304D01*
X124006786Y-89944334D01*
X124043980Y-89942613D01*
X124059687Y-89940336D01*
X124075404Y-89938281D01*
X124077780Y-89937713D01*
X124153577Y-89919027D01*
X124168531Y-89913747D01*
X124183564Y-89908673D01*
X124185784Y-89907654D01*
X124256509Y-89874601D01*
X124270143Y-89866522D01*
X124283910Y-89858622D01*
X124285890Y-89857191D01*
X124348847Y-89811031D01*
X124360641Y-89800468D01*
X124372624Y-89790033D01*
X124374289Y-89788245D01*
X124427081Y-89730736D01*
X124436631Y-89718040D01*
X124446327Y-89705517D01*
X124447613Y-89703440D01*
X124488229Y-89636771D01*
X124495097Y-89622531D01*
X124502209Y-89608299D01*
X124503066Y-89606011D01*
X124529960Y-89532724D01*
X124533932Y-89517424D01*
X124538145Y-89502076D01*
X124538542Y-89499666D01*
X124550689Y-89422549D01*
X124551616Y-89406707D01*
X124552764Y-89390893D01*
X124552685Y-89388451D01*
X124549621Y-89310445D01*
X124547454Y-89294722D01*
X124545509Y-89278994D01*
X124544958Y-89276615D01*
X124526801Y-89200688D01*
X124521623Y-89185692D01*
X124516657Y-89170630D01*
X124515657Y-89168409D01*
X124515655Y-89168404D01*
X124515652Y-89168400D01*
X124483096Y-89097450D01*
X124475124Y-89083779D01*
X124467308Y-89069936D01*
X124465891Y-89067946D01*
X124420170Y-89004668D01*
X124409684Y-88992794D01*
X124399338Y-88980744D01*
X124397561Y-88979067D01*
X124340421Y-88925875D01*
X124327842Y-88916275D01*
X124315341Y-88906455D01*
X124313272Y-88905155D01*
X124288391Y-88889757D01*
X124404639Y-88454421D01*
X125208851Y-88560297D01*
G36*
X128608086Y-92931975D02*
G01*
X128609092Y-94856396D01*
X125421690Y-94858060D01*
X125768446Y-94511304D01*
X126187973Y-94511304D01*
X126192800Y-94560313D01*
X126207095Y-94607438D01*
X126230310Y-94650869D01*
X126261551Y-94688936D01*
X126299618Y-94720177D01*
X126343049Y-94743392D01*
X126390174Y-94757687D01*
X126439183Y-94762514D01*
X126726683Y-94761304D01*
X126789183Y-94698804D01*
X126789183Y-94301304D01*
X126889183Y-94301304D01*
X126889183Y-94698804D01*
X126951683Y-94761304D01*
X127239183Y-94762514D01*
X127288192Y-94757687D01*
X127335317Y-94743392D01*
X127378748Y-94720177D01*
X127416815Y-94688936D01*
X127448056Y-94650869D01*
X127471271Y-94607438D01*
X127485566Y-94560313D01*
X127490393Y-94511304D01*
X127489183Y-94363804D01*
X127426683Y-94301304D01*
X126889183Y-94301304D01*
X126789183Y-94301304D01*
X126251683Y-94301304D01*
X126189183Y-94363804D01*
X126187973Y-94511304D01*
X125768446Y-94511304D01*
X126188791Y-94090960D01*
X126189183Y-94138804D01*
X126251683Y-94201304D01*
X126789183Y-94201304D01*
X126789183Y-93803804D01*
X126889183Y-93803804D01*
X126889183Y-94201304D01*
X127426683Y-94201304D01*
X127489183Y-94138804D01*
X127490393Y-93991304D01*
X127485566Y-93942295D01*
X127471271Y-93895170D01*
X127448056Y-93851739D01*
X127416815Y-93813672D01*
X127378748Y-93782431D01*
X127335317Y-93759216D01*
X127288192Y-93744921D01*
X127239183Y-93740094D01*
X126951683Y-93741304D01*
X126889183Y-93803804D01*
X126789183Y-93803804D01*
X126726683Y-93741304D01*
X126539236Y-93740515D01*
X126618447Y-93661304D01*
X127188874Y-93661304D01*
X127211551Y-93688936D01*
X127249619Y-93720177D01*
X127293049Y-93743391D01*
X127340175Y-93757686D01*
X127389183Y-93762513D01*
X128239183Y-93762513D01*
X128288191Y-93757686D01*
X128335317Y-93743391D01*
X128378747Y-93720177D01*
X128416815Y-93688936D01*
X128448056Y-93650868D01*
X128471270Y-93607438D01*
X128485565Y-93560312D01*
X128490392Y-93511304D01*
X128490392Y-93211304D01*
X128485565Y-93162296D01*
X128471270Y-93115170D01*
X128469204Y-93111304D01*
X128471270Y-93107438D01*
X128485565Y-93060312D01*
X128490392Y-93011304D01*
X128490392Y-92711304D01*
X128485565Y-92662296D01*
X128471270Y-92615170D01*
X128469204Y-92611304D01*
X128471270Y-92607438D01*
X128485565Y-92560312D01*
X128490392Y-92511304D01*
X128490392Y-92327708D01*
X128608086Y-92931975D01*
X128608086Y-92931975D01*
G37*
X128608086Y-92931975D02*
X128609092Y-94856396D01*
X125421690Y-94858060D01*
X125768446Y-94511304D01*
X126187973Y-94511304D01*
X126192800Y-94560313D01*
X126207095Y-94607438D01*
X126230310Y-94650869D01*
X126261551Y-94688936D01*
X126299618Y-94720177D01*
X126343049Y-94743392D01*
X126390174Y-94757687D01*
X126439183Y-94762514D01*
X126726683Y-94761304D01*
X126789183Y-94698804D01*
X126789183Y-94301304D01*
X126889183Y-94301304D01*
X126889183Y-94698804D01*
X126951683Y-94761304D01*
X127239183Y-94762514D01*
X127288192Y-94757687D01*
X127335317Y-94743392D01*
X127378748Y-94720177D01*
X127416815Y-94688936D01*
X127448056Y-94650869D01*
X127471271Y-94607438D01*
X127485566Y-94560313D01*
X127490393Y-94511304D01*
X127489183Y-94363804D01*
X127426683Y-94301304D01*
X126889183Y-94301304D01*
X126789183Y-94301304D01*
X126251683Y-94301304D01*
X126189183Y-94363804D01*
X126187973Y-94511304D01*
X125768446Y-94511304D01*
X126188791Y-94090960D01*
X126189183Y-94138804D01*
X126251683Y-94201304D01*
X126789183Y-94201304D01*
X126789183Y-93803804D01*
X126889183Y-93803804D01*
X126889183Y-94201304D01*
X127426683Y-94201304D01*
X127489183Y-94138804D01*
X127490393Y-93991304D01*
X127485566Y-93942295D01*
X127471271Y-93895170D01*
X127448056Y-93851739D01*
X127416815Y-93813672D01*
X127378748Y-93782431D01*
X127335317Y-93759216D01*
X127288192Y-93744921D01*
X127239183Y-93740094D01*
X126951683Y-93741304D01*
X126889183Y-93803804D01*
X126789183Y-93803804D01*
X126726683Y-93741304D01*
X126539236Y-93740515D01*
X126618447Y-93661304D01*
X127188874Y-93661304D01*
X127211551Y-93688936D01*
X127249619Y-93720177D01*
X127293049Y-93743391D01*
X127340175Y-93757686D01*
X127389183Y-93762513D01*
X128239183Y-93762513D01*
X128288191Y-93757686D01*
X128335317Y-93743391D01*
X128378747Y-93720177D01*
X128416815Y-93688936D01*
X128448056Y-93650868D01*
X128471270Y-93607438D01*
X128485565Y-93560312D01*
X128490392Y-93511304D01*
X128490392Y-93211304D01*
X128485565Y-93162296D01*
X128471270Y-93115170D01*
X128469204Y-93111304D01*
X128471270Y-93107438D01*
X128485565Y-93060312D01*
X128490392Y-93011304D01*
X128490392Y-92711304D01*
X128485565Y-92662296D01*
X128471270Y-92615170D01*
X128469204Y-92611304D01*
X128471270Y-92607438D01*
X128485565Y-92560312D01*
X128490392Y-92511304D01*
X128490392Y-92327708D01*
X128608086Y-92931975D01*
M02*
