G04 #@! TF.GenerationSoftware,KiCad,Pcbnew,(5.1.4-0-10_14)*
G04 #@! TF.CreationDate,2019-09-19T16:40:19-04:00*
G04 #@! TF.ProjectId,Tympan_BTE_RIGID,54796d70-616e-45f4-9254-455f52494749,V1*
G04 #@! TF.SameCoordinates,Original*
G04 #@! TF.FileFunction,Paste,Bot*
G04 #@! TF.FilePolarity,Positive*
%FSLAX46Y46*%
G04 Gerber Fmt 4.6, Leading zero omitted, Abs format (unit mm)*
G04 Created by KiCad (PCBNEW (5.1.4-0-10_14)) date 2019-09-19 16:40:19*
%MOMM*%
%LPD*%
G04 APERTURE LIST*
%ADD10R,0.850000X0.300000*%
%ADD11R,0.800000X0.520000*%
%ADD12C,0.100000*%
%ADD13C,0.318000*%
G04 APERTURE END LIST*
D10*
X127814183Y-91861304D03*
X127814183Y-92361304D03*
X127814183Y-92861304D03*
X127814183Y-93361304D03*
D11*
X126839183Y-94251304D03*
X126839183Y-90971304D03*
D12*
G36*
X124336475Y-94531687D02*
G01*
X124344193Y-94532832D01*
X124351761Y-94534727D01*
X124359106Y-94537356D01*
X124366159Y-94540691D01*
X124372851Y-94544702D01*
X124379117Y-94549350D01*
X124384898Y-94554589D01*
X124390137Y-94560370D01*
X124394785Y-94566636D01*
X124398796Y-94573328D01*
X124402131Y-94580381D01*
X124404760Y-94587726D01*
X124406655Y-94595294D01*
X124407800Y-94603012D01*
X124408183Y-94610804D01*
X124408183Y-94811804D01*
X124407800Y-94819596D01*
X124406655Y-94827314D01*
X124404760Y-94834882D01*
X124402131Y-94842227D01*
X124398796Y-94849280D01*
X124394785Y-94855972D01*
X124390137Y-94862238D01*
X124384898Y-94868019D01*
X124379117Y-94873258D01*
X124372851Y-94877906D01*
X124366159Y-94881917D01*
X124359106Y-94885252D01*
X124351761Y-94887881D01*
X124344193Y-94889776D01*
X124336475Y-94890921D01*
X124328683Y-94891304D01*
X124169683Y-94891304D01*
X124161891Y-94890921D01*
X124154173Y-94889776D01*
X124146605Y-94887881D01*
X124139260Y-94885252D01*
X124132207Y-94881917D01*
X124125515Y-94877906D01*
X124119249Y-94873258D01*
X124113468Y-94868019D01*
X124108229Y-94862238D01*
X124103581Y-94855972D01*
X124099570Y-94849280D01*
X124096235Y-94842227D01*
X124093606Y-94834882D01*
X124091711Y-94827314D01*
X124090566Y-94819596D01*
X124090183Y-94811804D01*
X124090183Y-94610804D01*
X124090566Y-94603012D01*
X124091711Y-94595294D01*
X124093606Y-94587726D01*
X124096235Y-94580381D01*
X124099570Y-94573328D01*
X124103581Y-94566636D01*
X124108229Y-94560370D01*
X124113468Y-94554589D01*
X124119249Y-94549350D01*
X124125515Y-94544702D01*
X124132207Y-94540691D01*
X124139260Y-94537356D01*
X124146605Y-94534727D01*
X124154173Y-94532832D01*
X124161891Y-94531687D01*
X124169683Y-94531304D01*
X124328683Y-94531304D01*
X124336475Y-94531687D01*
X124336475Y-94531687D01*
G37*
D13*
X124249183Y-94711304D03*
D12*
G36*
X125026475Y-94531687D02*
G01*
X125034193Y-94532832D01*
X125041761Y-94534727D01*
X125049106Y-94537356D01*
X125056159Y-94540691D01*
X125062851Y-94544702D01*
X125069117Y-94549350D01*
X125074898Y-94554589D01*
X125080137Y-94560370D01*
X125084785Y-94566636D01*
X125088796Y-94573328D01*
X125092131Y-94580381D01*
X125094760Y-94587726D01*
X125096655Y-94595294D01*
X125097800Y-94603012D01*
X125098183Y-94610804D01*
X125098183Y-94811804D01*
X125097800Y-94819596D01*
X125096655Y-94827314D01*
X125094760Y-94834882D01*
X125092131Y-94842227D01*
X125088796Y-94849280D01*
X125084785Y-94855972D01*
X125080137Y-94862238D01*
X125074898Y-94868019D01*
X125069117Y-94873258D01*
X125062851Y-94877906D01*
X125056159Y-94881917D01*
X125049106Y-94885252D01*
X125041761Y-94887881D01*
X125034193Y-94889776D01*
X125026475Y-94890921D01*
X125018683Y-94891304D01*
X124859683Y-94891304D01*
X124851891Y-94890921D01*
X124844173Y-94889776D01*
X124836605Y-94887881D01*
X124829260Y-94885252D01*
X124822207Y-94881917D01*
X124815515Y-94877906D01*
X124809249Y-94873258D01*
X124803468Y-94868019D01*
X124798229Y-94862238D01*
X124793581Y-94855972D01*
X124789570Y-94849280D01*
X124786235Y-94842227D01*
X124783606Y-94834882D01*
X124781711Y-94827314D01*
X124780566Y-94819596D01*
X124780183Y-94811804D01*
X124780183Y-94610804D01*
X124780566Y-94603012D01*
X124781711Y-94595294D01*
X124783606Y-94587726D01*
X124786235Y-94580381D01*
X124789570Y-94573328D01*
X124793581Y-94566636D01*
X124798229Y-94560370D01*
X124803468Y-94554589D01*
X124809249Y-94549350D01*
X124815515Y-94544702D01*
X124822207Y-94540691D01*
X124829260Y-94537356D01*
X124836605Y-94534727D01*
X124844173Y-94532832D01*
X124851891Y-94531687D01*
X124859683Y-94531304D01*
X125018683Y-94531304D01*
X125026475Y-94531687D01*
X125026475Y-94531687D01*
G37*
D13*
X124939183Y-94711304D03*
M02*
