G04 #@! TF.GenerationSoftware,KiCad,Pcbnew,(5.1.4-0-10_14)*
G04 #@! TF.CreationDate,2019-09-19T16:40:19-04:00*
G04 #@! TF.ProjectId,Tympan_BTE_RIGID,54796d70-616e-45f4-9254-455f52494749,V1*
G04 #@! TF.SameCoordinates,Original*
G04 #@! TF.FileFunction,Legend,Bot*
G04 #@! TF.FilePolarity,Positive*
%FSLAX46Y46*%
G04 Gerber Fmt 4.6, Leading zero omitted, Abs format (unit mm)*
G04 Created by KiCad (PCBNEW (5.1.4-0-10_14)) date 2019-09-19 16:40:19*
%MOMM*%
%LPD*%
G04 APERTURE LIST*
%ADD10C,0.120000*%
%ADD11C,0.100000*%
G04 APERTURE END LIST*
D10*
X124814183Y-90861304D02*
X124814183Y-94361304D01*
X126314183Y-94361304D02*
X124814183Y-94361304D01*
X126314183Y-90861304D02*
X124814183Y-90861304D01*
D11*
X127620373Y-90814637D02*
X127977516Y-90814637D01*
X128048944Y-90790827D01*
X128096563Y-90743208D01*
X128120373Y-90671780D01*
X128120373Y-90624161D01*
X127667992Y-91028923D02*
X127644183Y-91052732D01*
X127620373Y-91100351D01*
X127620373Y-91219399D01*
X127644183Y-91267018D01*
X127667992Y-91290827D01*
X127715611Y-91314637D01*
X127763230Y-91314637D01*
X127834659Y-91290827D01*
X128120373Y-91005113D01*
X128120373Y-91314637D01*
X125847516Y-94947494D02*
X126014183Y-94709399D01*
X126133230Y-94947494D02*
X126133230Y-94447494D01*
X125942754Y-94447494D01*
X125895135Y-94471304D01*
X125871325Y-94495113D01*
X125847516Y-94542732D01*
X125847516Y-94614161D01*
X125871325Y-94661780D01*
X125895135Y-94685589D01*
X125942754Y-94709399D01*
X126133230Y-94709399D01*
X125371325Y-94947494D02*
X125657040Y-94947494D01*
X125514183Y-94947494D02*
X125514183Y-94447494D01*
X125561802Y-94518923D01*
X125609421Y-94566542D01*
X125657040Y-94590351D01*
M02*
